<?xml version="1.0" encoding="utf-8"?>
<!-- Generator: Adobe Illustrator 23.0.1, SVG Export Plug-In . SVG Version: 6.00 Build 0)  -->
<svg version="1.1" id="Layer_1" xmlns="http://www.w3.org/2000/svg" xmlns:xlink="http://www.w3.org/1999/xlink" x="0px" y="0px"
	 viewBox="0 0 822 629" style="enable-background:new 0 0 822 629;" xml:space="preserve">
<style type="text/css">
	.st0{fill:#E5ACDD;}
</style>
<path class="st0" d="M410.58,187.89c-20.43,20.43-72.78,75.16-87.97,59.98c-11.45-11.45,46.04-73.55,60.22-87.73
	S422.54,175.92,410.58,187.89z"/>
<path class="st0" d="M451.34,233.76c-24.75,16.26-101.82,46.67-108.77,33.82c-7.7-14.24,61.81-55.33,79.78-64.22
	C440.31,194.46,465.48,224.47,451.34,233.76z"/>
<path class="st0" d="M337.12,119.54c-16.26,24.75-46.67,101.82-33.82,108.77c14.24,7.7,55.33-61.81,64.22-79.78
	C376.42,130.56,346.41,105.39,337.12,119.54z"/>
<path class="st0" d="M461.24,217.5c9.19,15.56,30.41-30.41,10.61-50.2c-26.52-26.52-67.18-50.2-61.52-51.62
	c7.39-1.85,23.44,9.31,52.33,29.7c13.12,9.26,27.85-1.3,22.63-19.09c-5.17-17.61-12.73-27.58,4.95-33.94
	c0.67-0.24-18.58-13.75-33.94,0c-13.43,12.02-21.21,2.83-36.77-2.83c-27.37-9.95-81.55,7.6-50.91,31.11
	C399.01,143.96,443.6,187.65,461.24,217.5z"/>
<path class="st0" d="M71.53,82.32c-23.33,23.33-26.87,57.98-15.56,76.37c11.78,19.14,31.11,33.94,38.18,22.63
	c7.07-11.31-17.68-6.36-18.38-21.21c-0.71-14.85,10.61-17.68,12.73-9.9s16.97-2.83,9.9-9.9c-7.07-7.07-9.19-19.09-1.41-16.97
	s15.46,6.21,20.51,17.68c7.78,17.68,33.02-5.85,12.02-14.85c-14.85-6.36-12.78-19.75-7.78-24.75c4.95-4.95,20.55,0.21,23.33,7.78
	c4.95,13.44,24.04-1.41,10.61-7.78c-13.43-6.36-1.56-14.29,2.83-9.9c3.54,3.54,11.73-0.56-12.02-20.51
	C128.81,56.15,94.16,59.69,71.53,82.32z"/>
<path class="st0" d="M99.82,184.14c0,0,27.54,2.16,53.74-24.04c21.92-21.92,19.09-54.45,19.09-54.45s4.95,12.02,3.54,27.58
	s-9.9,25.46-9.9,25.46l73.54,73.54c0.71-0.44,1.41,2.83-5.66,9.9c-7.78,7.78-10.61,6.36-10.61,6.36l-73.54-73.54
	c0,0-7.07,4.24-21.21,8.49C113.21,188.11,99.82,184.14,99.82,184.14z"/>
<path class="st0" d="M530,243c0,0,72.19,11,133.68,11S784,243,784,243s-57.04,28-123.88,29S530,243,530,243z"/>
<path class="st0" d="M571.89,206c0,0,52.58,5,84.67,5c22.3,0,78.43-5,78.43-5v-48c0,0-1.42-13.4-17.82-18c-24.95-7-39.21,1-39.21,1
	L571.9,183L571.89,206L571.89,206z"/>
<path class="st0" d="M571.89,246c0,0,68.62,7,90.91,6c22.28-1,72.19-6,72.19-6v-32l0,0c-23.17,7-132.79,7-163.09,1l0,0v31H571.89z"
	/>
<path class="st0" d="M662.79,69c0,0-12.48,28.97-12.48,45c0,22,8.91,24,16.04,16s4.46-29,0-32C661.9,95,662.79,69,662.79,69z"/>
<path class="st0" d="M450.93,448.09c14.18,14.18,71.67,76.28,60.22,87.73c-15.19,15.18-67.54-39.55-87.97-59.98
	C411.22,463.87,436.75,433.91,450.93,448.09z"/>
<path class="st0" d="M411.41,491.31c17.97,8.89,87.48,49.98,79.78,64.22c-6.95,12.85-84.02-17.56-108.77-33.82
	C368.28,512.42,393.45,482.41,411.41,491.31z"/>
<path class="st0" d="M466.24,436.48c8.89,17.97,49.98,87.48,64.22,79.78c12.85-6.95-17.56-84.02-33.82-108.77
	C487.35,393.34,457.34,418.51,466.24,436.48z"/>
<path class="st0" d="M465.14,408.58c30.64-23.51-23.54-41.06-50.91-31.11c-15.56,5.66-23.34,14.85-36.77,2.83
	c-15.36-13.75-34.61-0.24-33.94,0c17.68,6.36,10.12,16.33,4.95,33.94c-5.22,17.79,9.51,28.35,22.63,19.09
	c28.89-20.39,44.94-31.55,52.33-29.7c5.66,1.42-35,25.1-61.52,51.62c-19.8,19.79,1.42,65.76,10.61,50.2
	C390.16,475.6,434.75,431.91,465.14,408.58z"/>
<path class="st0" d="M687.27,358.96c-23.75,19.95-15.56,24.05-12.02,20.51c4.39-4.39,16.26,3.54,2.83,9.9
	c-13.43,6.37,5.66,21.22,10.61,7.78c2.78-7.57,18.38-12.73,23.33-7.78c5,5,7.07,18.39-7.78,24.75c-21,9,4.24,32.53,12.02,14.85
	c5.05-11.47,12.73-15.56,20.51-17.68s5.66,9.9-1.41,16.97s7.78,17.68,9.9,9.9s13.44-4.95,12.73,9.9
	c-0.7,14.85-25.45,9.9-18.38,21.21s26.4-3.49,38.18-22.63c11.31-18.39,7.77-53.04-15.56-76.37
	C739.6,347.64,704.95,344.1,687.27,358.96z"/>
<path class="st0" d="M704.95,471.39c-14.14-4.25-21.21-8.49-21.21-8.49l-73.54,73.54c0,0-2.83,1.42-10.61-6.36
	c-7.07-7.07-6.37-10.34-5.66-9.9l73.54-73.54c0,0-8.49-9.9-9.9-25.46c-1.41-15.56,3.54-27.58,3.54-27.58s-2.83,32.53,19.09,54.45
	c26.2,26.2,53.74,24.04,53.74,24.04S720.55,476.06,704.95,471.39z"/>
<path class="st0" d="M173.64,559.95c-66.84-1-123.88-47.21-123.88-47.21s58.83,29.21,120.32,29.21s133.68-11,133.68-11
	S240.48,560.95,173.64,559.95z"/>
<path class="st0" d="M261.87,493.95l-0.01-23l-106.06-42c0,0-14.26-8-39.21-1c-16.4,4.6-17.82-0.21-17.82-0.21v48
	c0,0,56.28,13.1,78.43,15.66C234.68,498.04,261.87,493.95,261.87,493.95L261.87,493.95z"/>
<path class="st0" d="M261.86,533.95v-31l0,0c-30.3,6-139.92-12.21-163.09-19.21l0,0v40.41c0,0,49.91,14.8,72.19,15.8
	c22.29,1,90.91-6,90.91-6H261.86z"/>
<path class="st0" d="M167.41,385.95c-4.46,3-7.13,24,0,32s16.04,6,16.04-16c0-16.03-12.48-45-12.48-45S171.86,382.95,167.41,385.95z
	"/>
</svg>
