<?xml version="1.0" encoding="utf-8"?>
<!-- Generator: Adobe Illustrator 23.0.1, SVG Export Plug-In . SVG Version: 6.00 Build 0)  -->
<svg version="1.1" id="HomePage" xmlns="http://www.w3.org/2000/svg" xmlns:xlink="http://www.w3.org/1999/xlink" x="0px" y="0px"
	 viewBox="0 0 1000 400" style="enable-background:new 0 0 1000 400;" xml:space="preserve">
<style type="text/css">
	.st0{fill:url(#SVGID_1_);}
	.st1{fill:#020202;}
	.st2{fill:#E2E2E2;stroke:#000000;stroke-miterlimit:10;}
	.st3{fill:#BFAA6F;stroke:#000000;stroke-miterlimit:10;}
	.st4{fill:none;stroke:#000000;stroke-miterlimit:10;}
	.st5{fill:#4F350F;}
	.st6{fill:#D8A877;stroke:#000000;stroke-miterlimit:10;}
	.st7{fill:#D8A877;}
	.st8{fill:#D864B4;stroke:#000000;stroke-miterlimit:10;}
</style>
<g id="Logo">
	<g>
		<radialGradient id="SVGID_1_" cx="500" cy="200" r="519.967" gradientUnits="userSpaceOnUse">
			<stop  offset="0" style="stop-color:#E8C2DD"/>
			<stop  offset="0.8951" style="stop-color:#CC7AB4"/>
		</radialGradient>
		<path class="st0" d="M23.94,399.5c-12.92,0-23.44-10.51-23.44-23.44V23.94C0.5,11.01,11.01,0.5,23.94,0.5h952.12
			c12.92,0,23.44,10.51,23.44,23.44v352.12c0,12.92-10.51,23.44-23.44,23.44H23.94z"/>
		<path class="st1" d="M976.06,1C988.71,1,999,11.29,999,23.94v352.12c0,12.65-10.29,22.94-22.94,22.94H23.94
			C11.29,399,1,388.71,1,376.06V23.94C1,11.29,11.29,1,23.94,1H976.06 M976.06,0H23.94C10.72,0,0,10.72,0,23.94v352.12
			C0,389.28,10.72,400,23.94,400h952.12c13.22,0,23.94-10.72,23.94-23.94V23.94C1000,10.72,989.28,0,976.06,0L976.06,0z"/>
	</g>
	<g>
		<path class="st1" d="M955.06,17h-7c-0.83,0-1.5,0.67-1.5,1.5s0.67,1.5,1.5,1.5h7c0.37,0,0.71-0.14,0.97-0.36
			c0.24,0.24,0.57,0.4,0.93,0.43c0.3,0.02,0.6,0.05,0.9,0.09c0,0,0,0,0,0c0.03,0,0.05,0.01,0.08,0.01c0,0,0,0,0,0
			c0.01,0,0.02,0,0.02,0c0,0,0.01,0,0.01,0c0.02,0,0.04,0.01,0.07,0.01c0.01,0,0.01,0,0.02,0c0,0,0.01,0,0.01,0
			c0.01,0,0.01,0,0.02,0c0,0,0.01,0,0.01,0c0.01,0,0.02,0,0.03,0c0,0,0.01,0,0.01,0c0.01,0,0.02,0,0.03,0c0,0,0,0,0.01,0
			c0.02,0,0.05,0.01,0.07,0.01c0,0,0,0,0,0c1.73,0.23,3.4,0.65,4.99,1.23c0,0,0,0,0,0c0.01,0,0.02,0.01,0.03,0.01c0,0,0.01,0,0.01,0
			c0.01,0,0.02,0.01,0.03,0.01c0,0,0,0,0.01,0c0.01,0,0.02,0.01,0.02,0.01c0,0,0.01,0,0.01,0c0.01,0,0.01,0.01,0.02,0.01
			c0,0,0.01,0,0.01,0c0.01,0,0.02,0.01,0.03,0.01c0.01,0,0.01,0,0.02,0.01c0,0,0.01,0,0.01,0c0.01,0,0.01,0,0.02,0.01
			c0,0,0.01,0,0.01,0c0.1,0.04,0.2,0.08,0.3,0.11c0.18,0.07,0.36,0.1,0.54,0.1c0.6,0,1.17-0.36,1.4-0.95
			c0.3-0.77-0.08-1.64-0.85-1.94c-2.45-0.96-5.02-1.55-7.65-1.76c-0.04,0-0.08,0-0.12,0c-0.37,0-0.71,0.13-0.97,0.36
			C955.85,17.17,955.47,17,955.06,17L955.06,17z M941.06,17h-7c-0.83,0-1.5,0.67-1.5,1.5s0.67,1.5,1.5,1.5h7
			c0.83,0,1.5-0.67,1.5-1.5S941.89,17,941.06,17L941.06,17z M927.06,17h-7c-0.83,0-1.5,0.67-1.5,1.5s0.67,1.5,1.5,1.5h7
			c0.83,0,1.5-0.67,1.5-1.5S927.89,17,927.06,17L927.06,17z M913.06,17h-7c-0.83,0-1.5,0.67-1.5,1.5s0.67,1.5,1.5,1.5h7
			c0.83,0,1.5-0.67,1.5-1.5S913.89,17,913.06,17L913.06,17z M899.06,17h-7c-0.83,0-1.5,0.67-1.5,1.5s0.67,1.5,1.5,1.5h7
			c0.83,0,1.5-0.67,1.5-1.5S899.89,17,899.06,17L899.06,17z M885.06,17h-7c-0.83,0-1.5,0.67-1.5,1.5s0.67,1.5,1.5,1.5h7
			c0.83,0,1.5-0.67,1.5-1.5S885.89,17,885.06,17L885.06,17z M871.06,17h-7c-0.83,0-1.5,0.67-1.5,1.5s0.67,1.5,1.5,1.5h7
			c0.83,0,1.5-0.67,1.5-1.5S871.89,17,871.06,17L871.06,17z M857.06,17h-7c-0.83,0-1.5,0.67-1.5,1.5s0.67,1.5,1.5,1.5h7
			c0.83,0,1.5-0.67,1.5-1.5S857.89,17,857.06,17L857.06,17z M843.06,17h-7c-0.83,0-1.5,0.67-1.5,1.5s0.67,1.5,1.5,1.5h7
			c0.83,0,1.5-0.67,1.5-1.5S843.89,17,843.06,17L843.06,17z M829.06,17h-7c-0.83,0-1.5,0.67-1.5,1.5s0.67,1.5,1.5,1.5h7
			c0.83,0,1.5-0.67,1.5-1.5S829.89,17,829.06,17L829.06,17z M815.06,17h-7c-0.83,0-1.5,0.67-1.5,1.5s0.67,1.5,1.5,1.5h7
			c0.83,0,1.5-0.67,1.5-1.5S815.89,17,815.06,17L815.06,17z M801.06,17h-7c-0.83,0-1.5,0.67-1.5,1.5s0.67,1.5,1.5,1.5h7
			c0.83,0,1.5-0.67,1.5-1.5S801.89,17,801.06,17L801.06,17z M787.06,17h-7c-0.83,0-1.5,0.67-1.5,1.5s0.67,1.5,1.5,1.5h7
			c0.83,0,1.5-0.67,1.5-1.5S787.89,17,787.06,17L787.06,17z M773.06,17h-7c-0.83,0-1.5,0.67-1.5,1.5s0.67,1.5,1.5,1.5h7
			c0.83,0,1.5-0.67,1.5-1.5S773.89,17,773.06,17L773.06,17z M759.06,17h-7c-0.83,0-1.5,0.67-1.5,1.5s0.67,1.5,1.5,1.5h7
			c0.83,0,1.5-0.67,1.5-1.5S759.89,17,759.06,17L759.06,17z M745.06,17h-7c-0.83,0-1.5,0.67-1.5,1.5s0.67,1.5,1.5,1.5h7
			c0.83,0,1.5-0.67,1.5-1.5S745.89,17,745.06,17L745.06,17z M731.06,17h-7c-0.83,0-1.5,0.67-1.5,1.5s0.67,1.5,1.5,1.5h7
			c0.83,0,1.5-0.67,1.5-1.5S731.89,17,731.06,17L731.06,17z M717.06,17h-7c-0.83,0-1.5,0.67-1.5,1.5s0.67,1.5,1.5,1.5h7
			c0.83,0,1.5-0.67,1.5-1.5S717.89,17,717.06,17L717.06,17z M703.06,17h-7c-0.83,0-1.5,0.67-1.5,1.5s0.67,1.5,1.5,1.5h7
			c0.83,0,1.5-0.67,1.5-1.5S703.89,17,703.06,17L703.06,17z M689.06,17h-7c-0.83,0-1.5,0.67-1.5,1.5s0.67,1.5,1.5,1.5h7
			c0.83,0,1.5-0.67,1.5-1.5S689.89,17,689.06,17L689.06,17z M675.06,17h-7c-0.83,0-1.5,0.67-1.5,1.5s0.67,1.5,1.5,1.5h7
			c0.83,0,1.5-0.67,1.5-1.5S675.89,17,675.06,17L675.06,17z M661.06,17h-7c-0.83,0-1.5,0.67-1.5,1.5s0.67,1.5,1.5,1.5h7
			c0.83,0,1.5-0.67,1.5-1.5S661.89,17,661.06,17L661.06,17z M647.06,17h-7c-0.83,0-1.5,0.67-1.5,1.5s0.67,1.5,1.5,1.5h7
			c0.83,0,1.5-0.67,1.5-1.5S647.89,17,647.06,17L647.06,17z M633.06,17h-7c-0.83,0-1.5,0.67-1.5,1.5s0.67,1.5,1.5,1.5h7
			c0.83,0,1.5-0.67,1.5-1.5S633.89,17,633.06,17L633.06,17z M619.06,17h-7c-0.83,0-1.5,0.67-1.5,1.5s0.67,1.5,1.5,1.5h7
			c0.83,0,1.5-0.67,1.5-1.5S619.89,17,619.06,17L619.06,17z M605.06,17h-7c-0.83,0-1.5,0.67-1.5,1.5s0.67,1.5,1.5,1.5h7
			c0.83,0,1.5-0.67,1.5-1.5S605.89,17,605.06,17L605.06,17z M591.06,17h-7c-0.83,0-1.5,0.67-1.5,1.5s0.67,1.5,1.5,1.5h7
			c0.83,0,1.5-0.67,1.5-1.5S591.89,17,591.06,17L591.06,17z M577.06,17h-7c-0.83,0-1.5,0.67-1.5,1.5s0.67,1.5,1.5,1.5h7
			c0.83,0,1.5-0.67,1.5-1.5S577.89,17,577.06,17L577.06,17z M563.06,17h-7c-0.83,0-1.5,0.67-1.5,1.5s0.67,1.5,1.5,1.5h7
			c0.83,0,1.5-0.67,1.5-1.5S563.89,17,563.06,17L563.06,17z M549.06,17h-7c-0.83,0-1.5,0.67-1.5,1.5s0.67,1.5,1.5,1.5h7
			c0.83,0,1.5-0.67,1.5-1.5S549.89,17,549.06,17L549.06,17z M535.06,17h-7c-0.83,0-1.5,0.67-1.5,1.5s0.67,1.5,1.5,1.5h7
			c0.83,0,1.5-0.67,1.5-1.5S535.89,17,535.06,17L535.06,17z M521.06,17h-7c-0.83,0-1.5,0.67-1.5,1.5s0.67,1.5,1.5,1.5h7
			c0.83,0,1.5-0.67,1.5-1.5S521.89,17,521.06,17L521.06,17z M507.06,17h-7c-0.83,0-1.5,0.67-1.5,1.5s0.67,1.5,1.5,1.5h7
			c0.83,0,1.5-0.67,1.5-1.5S507.89,17,507.06,17L507.06,17z M493.06,17h-7c-0.83,0-1.5,0.67-1.5,1.5s0.67,1.5,1.5,1.5h7
			c0.83,0,1.5-0.67,1.5-1.5S493.89,17,493.06,17L493.06,17z M479.06,17h-7c-0.83,0-1.5,0.67-1.5,1.5s0.67,1.5,1.5,1.5h7
			c0.83,0,1.5-0.67,1.5-1.5S479.89,17,479.06,17L479.06,17z M465.06,17h-7c-0.83,0-1.5,0.67-1.5,1.5s0.67,1.5,1.5,1.5h7
			c0.83,0,1.5-0.67,1.5-1.5S465.89,17,465.06,17L465.06,17z M451.06,17h-7c-0.83,0-1.5,0.67-1.5,1.5s0.67,1.5,1.5,1.5h7
			c0.83,0,1.5-0.67,1.5-1.5S451.89,17,451.06,17L451.06,17z M437.06,17h-7c-0.83,0-1.5,0.67-1.5,1.5s0.67,1.5,1.5,1.5h7
			c0.83,0,1.5-0.67,1.5-1.5S437.89,17,437.06,17L437.06,17z M423.06,17h-7c-0.83,0-1.5,0.67-1.5,1.5s0.67,1.5,1.5,1.5h7
			c0.83,0,1.5-0.67,1.5-1.5S423.89,17,423.06,17L423.06,17z M409.06,17h-7c-0.83,0-1.5,0.67-1.5,1.5s0.67,1.5,1.5,1.5h7
			c0.83,0,1.5-0.67,1.5-1.5S409.89,17,409.06,17L409.06,17z M395.06,17h-7c-0.83,0-1.5,0.67-1.5,1.5s0.67,1.5,1.5,1.5h7
			c0.83,0,1.5-0.67,1.5-1.5S395.89,17,395.06,17L395.06,17z M381.06,17h-7c-0.83,0-1.5,0.67-1.5,1.5s0.67,1.5,1.5,1.5h7
			c0.83,0,1.5-0.67,1.5-1.5S381.89,17,381.06,17L381.06,17z M367.06,17h-7c-0.83,0-1.5,0.67-1.5,1.5s0.67,1.5,1.5,1.5h7
			c0.83,0,1.5-0.67,1.5-1.5S367.89,17,367.06,17L367.06,17z M353.06,17h-7c-0.83,0-1.5,0.67-1.5,1.5s0.67,1.5,1.5,1.5h7
			c0.83,0,1.5-0.67,1.5-1.5S353.89,17,353.06,17L353.06,17z M339.06,17h-7c-0.83,0-1.5,0.67-1.5,1.5s0.67,1.5,1.5,1.5h7
			c0.83,0,1.5-0.67,1.5-1.5S339.89,17,339.06,17L339.06,17z M325.06,17h-7c-0.83,0-1.5,0.67-1.5,1.5s0.67,1.5,1.5,1.5h7
			c0.83,0,1.5-0.67,1.5-1.5S325.89,17,325.06,17L325.06,17z M311.06,17h-7c-0.83,0-1.5,0.67-1.5,1.5s0.67,1.5,1.5,1.5h7
			c0.83,0,1.5-0.67,1.5-1.5S311.89,17,311.06,17L311.06,17z M297.06,17h-7c-0.83,0-1.5,0.67-1.5,1.5s0.67,1.5,1.5,1.5h7
			c0.83,0,1.5-0.67,1.5-1.5S297.89,17,297.06,17L297.06,17z M283.06,17h-7c-0.83,0-1.5,0.67-1.5,1.5s0.67,1.5,1.5,1.5h7
			c0.83,0,1.5-0.67,1.5-1.5S283.89,17,283.06,17L283.06,17z M269.06,17h-7c-0.83,0-1.5,0.67-1.5,1.5s0.67,1.5,1.5,1.5h7
			c0.83,0,1.5-0.67,1.5-1.5S269.89,17,269.06,17L269.06,17z M255.06,17h-7c-0.83,0-1.5,0.67-1.5,1.5s0.67,1.5,1.5,1.5h7
			c0.83,0,1.5-0.67,1.5-1.5S255.89,17,255.06,17L255.06,17z M241.06,17h-7c-0.83,0-1.5,0.67-1.5,1.5s0.67,1.5,1.5,1.5h7
			c0.83,0,1.5-0.67,1.5-1.5S241.89,17,241.06,17L241.06,17z M227.06,17h-7c-0.83,0-1.5,0.67-1.5,1.5s0.67,1.5,1.5,1.5h7
			c0.83,0,1.5-0.67,1.5-1.5S227.89,17,227.06,17L227.06,17z M213.06,17h-7c-0.83,0-1.5,0.67-1.5,1.5s0.67,1.5,1.5,1.5h7
			c0.83,0,1.5-0.67,1.5-1.5S213.89,17,213.06,17L213.06,17z M199.06,17h-7c-0.83,0-1.5,0.67-1.5,1.5s0.67,1.5,1.5,1.5h7
			c0.83,0,1.5-0.67,1.5-1.5S199.89,17,199.06,17L199.06,17z M185.06,17h-7c-0.83,0-1.5,0.67-1.5,1.5s0.67,1.5,1.5,1.5h7
			c0.83,0,1.5-0.67,1.5-1.5S185.89,17,185.06,17L185.06,17z M171.06,17h-7c-0.83,0-1.5,0.67-1.5,1.5s0.67,1.5,1.5,1.5h7
			c0.83,0,1.5-0.67,1.5-1.5S171.89,17,171.06,17L171.06,17z M157.06,17h-7c-0.83,0-1.5,0.67-1.5,1.5s0.67,1.5,1.5,1.5h7
			c0.83,0,1.5-0.67,1.5-1.5S157.89,17,157.06,17L157.06,17z M143.06,17h-7c-0.83,0-1.5,0.67-1.5,1.5s0.67,1.5,1.5,1.5h7
			c0.83,0,1.5-0.67,1.5-1.5S143.89,17,143.06,17L143.06,17z M129.06,17h-7c-0.83,0-1.5,0.67-1.5,1.5s0.67,1.5,1.5,1.5h7
			c0.83,0,1.5-0.67,1.5-1.5S129.89,17,129.06,17L129.06,17z M115.06,17h-7c-0.83,0-1.5,0.67-1.5,1.5s0.67,1.5,1.5,1.5h7
			c0.83,0,1.5-0.67,1.5-1.5S115.89,17,115.06,17L115.06,17z M101.06,17h-7c-0.83,0-1.5,0.67-1.5,1.5s0.67,1.5,1.5,1.5h7
			c0.83,0,1.5-0.67,1.5-1.5S101.89,17,101.06,17L101.06,17z M87.06,17h-7c-0.83,0-1.5,0.67-1.5,1.5s0.67,1.5,1.5,1.5h7
			c0.83,0,1.5-0.67,1.5-1.5S87.89,17,87.06,17L87.06,17z M73.06,17h-7c-0.83,0-1.5,0.67-1.5,1.5s0.67,1.5,1.5,1.5h7
			c0.83,0,1.5-0.67,1.5-1.5S73.89,17,73.06,17L73.06,17z M59.06,17h-7c-0.83,0-1.5,0.67-1.5,1.5s0.67,1.5,1.5,1.5h7
			c0.83,0,1.5-0.67,1.5-1.5S59.89,17,59.06,17L59.06,17z M45.06,17h-0.12c-2.6,0-5.17,0.37-7.63,1.1c-0.79,0.23-1.25,1.07-1.01,1.86
			c0.19,0.65,0.79,1.08,1.44,1.08c0.14,0,0.28-0.02,0.43-0.06c0,0,0,0,0,0c0.03-0.01,0.06-0.02,0.1-0.03c0,0,0,0,0,0
			c0.01,0,0.03-0.01,0.05-0.01c0,0,0,0,0,0c0.02,0,0.03-0.01,0.05-0.01c0,0,0,0,0,0c0.02,0,0.03-0.01,0.05-0.01c0,0,0,0,0.01,0
			c0.03-0.01,0.06-0.02,0.09-0.03c0,0,0.01,0,0.01,0c0.01,0,0.03-0.01,0.04-0.01c0,0,0,0,0.01,0c0.02,0,0.03-0.01,0.05-0.01
			c0,0,0.01,0,0.01,0c0.01,0,0.03-0.01,0.04-0.01c0,0,0.01,0,0.01,0c0.02,0,0.03-0.01,0.05-0.01c0,0,0,0,0,0
			c0.01,0,0.03-0.01,0.04-0.01c0,0,0.01,0,0.01,0c0.03-0.01,0.06-0.02,0.09-0.02c0,0,0.01,0,0.01,0c0.01,0,0.03-0.01,0.04-0.01
			c0,0,0.01,0,0.01,0c0.02,0,0.03-0.01,0.05-0.01c0,0,0.01,0,0.01,0c0.01,0,0.02-0.01,0.04-0.01c0,0,0.01,0,0.01,0
			c0.01,0,0.03-0.01,0.05-0.01c0,0,0.01,0,0.01,0c0.01,0,0.03-0.01,0.04-0.01c0,0,0.01,0,0.01,0c0.01,0,0.03-0.01,0.04-0.01
			c0,0,0,0,0.01,0c0.01,0,0.03-0.01,0.04-0.01c0,0,0.01,0,0.01,0c0.01,0,0.02-0.01,0.03-0.01c0,0,0.01,0,0.01,0
			c0.01,0,0.03-0.01,0.04-0.01c0,0,0.01,0,0.01,0c0.01,0,0.02,0,0.03-0.01c0.01,0,0.01,0,0.02,0c0.02,0,0.03-0.01,0.04-0.01
			c0,0,0.01,0,0.01,0c0.01,0,0.02-0.01,0.04-0.01c0.01,0,0.01,0,0.02,0c0.01,0,0.03-0.01,0.04-0.01c0,0,0,0,0.01,0
			c0.01,0,0.03-0.01,0.04-0.01c0.01,0,0.01,0,0.02,0c0.01,0,0.02-0.01,0.03-0.01c0,0,0.01,0,0.01,0c0.01,0,0.03-0.01,0.04-0.01
			c0.01,0,0.01,0,0.01,0c0.01,0,0.02,0,0.03-0.01c0.01,0,0.01,0,0.02,0c0.01,0,0.03-0.01,0.04-0.01c0,0,0.01,0,0.01,0
			c0.01,0,0.02,0,0.03-0.01c0.01,0,0.01,0,0.02,0c0.01,0,0.02-0.01,0.03-0.01c0,0,0.01,0,0.01,0c0.01,0,0.03-0.01,0.04-0.01
			c0.01,0,0.01,0,0.02,0c0.01,0,0.02,0,0.03-0.01c0,0,0.01,0,0.01,0c0.01,0,0.03-0.01,0.04-0.01c0,0,0.01,0,0.01,0
			c0.01,0,0.02,0,0.03-0.01c0,0,0.01,0,0.01,0c0.01,0,0.03-0.01,0.04-0.01c0,0,0.01,0,0.01,0c0.01,0,0.02,0,0.04-0.01
			c0.01,0,0.01,0,0.02,0c0.01,0,0.02,0,0.04-0.01c0,0,0.01,0,0.01,0c0.01,0,0.03-0.01,0.04-0.01c0.01,0,0.01,0,0.02,0
			c0.01,0,0.02,0,0.03-0.01c0,0,0.01,0,0.01,0c0.01,0,0.03-0.01,0.04-0.01c0.01,0,0.01,0,0.02,0c0.01,0,0.02,0,0.03-0.01
			c0.01,0,0.01,0,0.02,0c0.01,0,0.03-0.01,0.04-0.01c0,0,0.01,0,0.01,0c0.01,0,0.02,0,0.03-0.01c0.01,0,0.01,0,0.02,0
			c0.01,0,0.02,0,0.03-0.01c0.01,0,0.01,0,0.02,0c0.01,0,0.03-0.01,0.04-0.01c0.01,0,0.01,0,0.02,0c0.01,0,0.02,0,0.03-0.01
			c0.01,0,0.01,0,0.02,0c0.01,0,0.03-0.01,0.04-0.01c0.01,0,0.01,0,0.02,0c0.01,0,0.02,0,0.03-0.01c0.01,0,0.01,0,0.02,0
			c0.01,0,0.03,0,0.04-0.01c0.01,0,0.01,0,0.01,0c0.01,0,0.02,0,0.03-0.01c0.01,0,0.01,0,0.02,0c0.01,0,0.02,0,0.03-0.01
			c0,0,0.01,0,0.01,0c0.01,0,0.03,0,0.04-0.01c0.01,0,0.01,0,0.02,0c0.01,0,0.02,0,0.03,0c0.01,0,0.01,0,0.02,0
			c0.01,0,0.03,0,0.04-0.01c0,0,0.01,0,0.01,0c0.01,0,0.02,0,0.03-0.01c0.01,0,0.01,0,0.02,0c0.01,0,0.03,0,0.04-0.01
			c0.01,0,0.01,0,0.01,0c0.01,0,0.03,0,0.04-0.01c0.01,0,0.01,0,0.02,0c0.01,0,0.02,0,0.03-0.01c0,0,0.01,0,0.01,0
			c0.01,0,0.03,0,0.04-0.01c0.01,0,0.01,0,0.02,0c0.01,0,0.02,0,0.03,0c0.01,0,0.01,0,0.02,0c0.01,0,0.03,0,0.04-0.01
			c0.01,0,0.01,0,0.02,0c0.01,0,0.02,0,0.03,0c0.01,0,0.01,0,0.02,0c0.01,0,0.03,0,0.04-0.01c0,0,0.01,0,0.01,0
			c0.01,0,0.02,0,0.04-0.01c0.01,0,0.01,0,0.02,0c0.01,0,0.02,0,0.03,0c0,0,0.01,0,0.01,0c0.01,0,0.03,0,0.04-0.01
			c0.01,0,0.01,0,0.02,0c0.01,0,0.02,0,0.03,0c0.01,0,0.01,0,0.02,0c0.01,0,0.03,0,0.04-0.01c0,0,0.01,0,0.01,0
			c0.01,0,0.02,0,0.03,0c0.01,0,0.01,0,0.02,0c0.01,0,0.03,0,0.04,0c0,0,0.01,0,0.01,0c0.01,0,0.03,0,0.04-0.01
			c0.01,0,0.01,0,0.02,0c0.01,0,0.02,0,0.03,0c0,0,0.01,0,0.01,0c0.01,0,0.03,0,0.04-0.01c0,0,0.01,0,0.01,0c0.01,0,0.02,0,0.03,0
			c0.01,0,0.01,0,0.02,0c0.01,0,0.03,0,0.04-0.01c0,0,0.01,0,0.01,0c0.01,0,0.02,0,0.03,0c0.01,0,0.01,0,0.02,0
			c0.01,0,0.03,0,0.04,0c0,0,0.01,0,0.01,0c0.01,0,0.03,0,0.04,0c0.01,0,0.01,0,0.02,0c0.01,0,0.02,0,0.04,0c0,0,0.01,0,0.01,0
			c0.02,0,0.03,0,0.05,0c0,0,0.01,0,0.01,0c0.01,0,0.03,0,0.04,0c0,0,0.01,0,0.01,0c0.02,0,0.03,0,0.05,0c0,0,0.01,0,0.01,0
			c0.01,0,0.03,0,0.04,0c0,0,0.01,0,0.02,0c0.01,0,0.03,0,0.04,0c0,0,0.01,0,0.01,0c0.01,0,0.03,0,0.05,0c0.01,0,0.01,0,0.02,0
			c0.01,0,0.02,0,0.04,0c0,0,0.01,0,0.01,0c0.02,0,0.03,0,0.05,0c0,0,0.01,0,0.01,0c0.01,0,0.02,0,0.04,0c0.01,0,0.01,0,0.02,0
			c0.02,0,0.03,0,0.05,0c0,0,0.01,0,0.01,0c0.01,0,0.03,0,0.04,0c0.01,0,0.01,0,0.02,0c0.01,0,0.03,0,0.04,0c0,0,0.01,0,0.01,0
			c0.01,0,0.03,0,0.05,0c0.01,0,0.01,0,0.02,0c0.01,0,0.02,0,0.03,0c0,0,0.01,0,0.01,0c0.02,0,0.03,0,0.05,0c0,0,0.01,0,0.01,0
			c0.01,0,0.02,0,0.04,0c0.01,0,0.01,0,0.02,0c0.02,0,0.03,0,0.05,0c0,0,0.01,0,0.01,0c0.01,0,0.03,0,0.04,0c0.01,0,0.01,0,0.01,0
			c0.01,0,0.03,0,0.04,0c0,0,0.01,0,0.01,0c0.02,0,0.03,0,0.05,0c0,0,0.01,0,0.01,0c0.01,0,0.03,0,0.04,0c0,0,0.01,0,0.01,0
			c0.02,0,0.03,0,0.05,0c0,0,0.01,0,0.01,0c0.01,0,0.03,0,0.04,0c0,0,0.01,0,0.01,0c0.02,0,0.03,0,0.05,0c0,0,0,0,0,0
			c0.02,0,0.03,0,0.04,0c0,0,0.01,0,0.01,0c0.01,0,0.03,0,0.04,0c0,0,0.01,0,0.01,0c0.02,0,0.03,0,0.05,0c0,0,0.01,0,0.01,0
			c0.01,0,0.03,0,0.04,0c0,0,0.01,0,0.01,0c0.02,0,0.03,0,0.05,0c0,0,0.01,0,0.01,0c0.01,0,0.02,0,0.04,0c0.01,0,0.01,0,0.01,0
			c0.02,0,0.03,0,0.05,0c0,0,0,0,0,0c0.02,0,0.03,0,0.05,0c0,0,0.01,0,0.01,0c0.01,0,0.03,0,0.04,0c0,0,0.01,0,0.01,0
			c0.02,0,0.03,0,0.05,0c0,0,0.01,0,0.01,0c0.01,0,0.03,0,0.04,0c0,0,0.01,0,0.01,0c0.02,0,0.03,0,0.05,0c0,0,0.01,0,0.01,0
			c0.01,0,0.03,0,0.04,0c0.01,0,0.01,0,0.02,0c0.02,0,0.03,0,0.05,0c0,0,0,0,0,0c0.02,0,0.03,0,0.05,0c0,0,0.01,0,0.01,0
			c0.01,0,0.03,0,0.04,0c0,0,0,0,0.01,0c0.02,0,0.03,0,0.05,0c0,0,0.01,0,0.01,0c0.01,0,0.03,0,0.04,0c0,0,0.01,0,0.01,0
			c0.02,0,0.03,0,0.05,0c0,0,0.01,0,0.01,0c0.01,0,0.03,0,0.04,0c0,0,0.01,0,0.01,0c0.02,0,0.03,0,0.05,0l0,0h0.12
			c0.83,0,1.5-0.67,1.5-1.5S45.89,17,45.06,17L45.06,17z M31,21.15c-0.28,0-0.57,0.08-0.82,0.25c-2.2,1.44-4.17,3.19-5.87,5.21
			c-0.53,0.63-0.45,1.58,0.18,2.11c0.28,0.24,0.62,0.35,0.96,0.35c0.43,0,0.85-0.18,1.15-0.53c0.03-0.03,0.06-0.07,0.09-0.1
			c0,0,0,0,0-0.01c0.02-0.02,0.04-0.05,0.06-0.07c0,0,0.01-0.01,0.01-0.01c0.01-0.01,0.01-0.02,0.02-0.03
			c0.01-0.01,0.01-0.02,0.02-0.02c0-0.01,0.01-0.01,0.01-0.02c0.01-0.01,0.01-0.01,0.02-0.02c0,0,0.01-0.01,0.01-0.01
			c0.01-0.01,0.02-0.02,0.03-0.03c0,0,0.01-0.01,0.01-0.01c0.01-0.01,0.02-0.02,0.02-0.03c0,0,0,0,0.01-0.01
			c0.01-0.01,0.02-0.02,0.03-0.04c0,0,0.01-0.01,0.01-0.01c0.01-0.01,0.02-0.02,0.03-0.04l0,0c0.01-0.01,0.02-0.03,0.03-0.04
			c0,0,0,0,0.01-0.01c0.02-0.03,0.05-0.05,0.07-0.08c0,0,0,0,0,0c0.61-0.68,1.25-1.32,1.93-1.92c0,0,0,0,0,0
			c0.03-0.02,0.05-0.05,0.08-0.07c0,0,0,0,0,0c0.03-0.02,0.05-0.05,0.08-0.07c0,0,0,0,0,0c0.01-0.01,0.03-0.02,0.04-0.03
			c0,0,0,0,0,0c0.01-0.01,0.02-0.02,0.04-0.03c0,0,0,0,0,0c0.01-0.01,0.02-0.02,0.04-0.03c0,0,0,0,0.01-0.01
			c0.01-0.01,0.02-0.02,0.03-0.03c0,0,0,0,0.01-0.01c0.01-0.01,0.02-0.02,0.04-0.03c0,0,0.01-0.01,0.01-0.01
			c0.01-0.01,0.02-0.02,0.03-0.02c0,0,0.01-0.01,0.01-0.01c0.01-0.01,0.02-0.02,0.03-0.03c0,0,0.01-0.01,0.01-0.01
			c0.01-0.01,0.02-0.01,0.03-0.02c0,0,0.01-0.01,0.01-0.01c0.01-0.01,0.02-0.02,0.03-0.03c0,0,0.01-0.01,0.01-0.01
			c0.01-0.01,0.02-0.01,0.02-0.02c0.01,0,0.01-0.01,0.02-0.01c0.01-0.01,0.02-0.01,0.03-0.02c0.01,0,0.01-0.01,0.02-0.01
			c0.01-0.01,0.01-0.01,0.02-0.02c0.01-0.01,0.02-0.01,0.03-0.02c0.01-0.01,0.01-0.01,0.02-0.02c0.01-0.01,0.01-0.01,0.02-0.02
			c0.01,0,0.01-0.01,0.02-0.01c0.01-0.01,0.02-0.02,0.03-0.03c0,0,0.01-0.01,0.01-0.01c0.01-0.01,0.01-0.01,0.02-0.02
			c0,0,0.01,0,0.01-0.01c0.01-0.01,0.03-0.02,0.04-0.04c0,0,0,0,0.01-0.01c0.01-0.01,0.02-0.01,0.03-0.02c0,0,0,0,0,0
			c0.02-0.01,0.03-0.03,0.05-0.04c0,0,0,0,0,0c0.59-0.47,1.2-0.92,1.83-1.33c0.69-0.45,0.89-1.38,0.43-2.08
			C31.97,21.39,31.49,21.15,31,21.15L31,21.15z M21.57,32.38c-0.58,0-1.13,0.34-1.38,0.91c-1.04,2.42-1.72,4.97-2.02,7.59
			c-0.09,0.82,0.5,1.57,1.32,1.66c0.06,0.01,0.11,0.01,0.17,0.01c0.75,0,1.4-0.57,1.49-1.33c0.06-0.56,0.15-1.11,0.25-1.66
			c0,0,0,0,0,0c0.01-0.04,0.01-0.07,0.02-0.11c0,0,0,0,0,0c0-0.02,0.01-0.05,0.01-0.07c0,0,0,0,0,0c0-0.01,0-0.02,0.01-0.03
			c0,0,0,0,0-0.01c0-0.02,0.01-0.04,0.01-0.07c0,0,0-0.01,0-0.01c0-0.01,0-0.01,0-0.02c0,0,0-0.01,0-0.01c0-0.01,0-0.02,0-0.02
			c0-0.01,0-0.01,0-0.02c0-0.01,0-0.01,0-0.02c0-0.01,0-0.01,0-0.02c0-0.01,0-0.01,0-0.02c0-0.01,0-0.01,0-0.02
			c0-0.01,0-0.01,0-0.02c0-0.01,0-0.02,0-0.02c0-0.01,0-0.01,0-0.02c0-0.01,0-0.01,0-0.02c0-0.01,0-0.01,0-0.02
			c0-0.01,0-0.01,0-0.02c0-0.01,0-0.01,0-0.02c0-0.01,0-0.02,0.01-0.03c0,0,0-0.01,0-0.01c0-0.01,0-0.01,0-0.02c0,0,0-0.01,0-0.01
			c0-0.02,0.01-0.04,0.01-0.07c0,0,0-0.01,0-0.01c0-0.01,0-0.01,0-0.02c0,0,0-0.01,0-0.01c0-0.02,0.01-0.03,0.01-0.05c0,0,0,0,0,0
			c0-0.01,0-0.01,0-0.02c0,0,0-0.01,0-0.01c0-0.01,0-0.01,0-0.02c0,0,0,0,0-0.01c0-0.02,0.01-0.03,0.01-0.05c0,0,0,0,0,0
			c0-0.01,0-0.02,0.01-0.02c0,0,0,0,0,0c0.2-0.88,0.45-1.75,0.74-2.59c0,0,0,0,0,0c0.01-0.03,0.02-0.07,0.04-0.1c0,0,0,0,0,0
			c0-0.01,0.01-0.02,0.01-0.02c0,0,0,0,0,0c0.01-0.02,0.02-0.05,0.03-0.07c0,0,0,0,0-0.01c0-0.01,0.01-0.01,0.01-0.02c0,0,0,0,0,0
			c0.01-0.02,0.01-0.03,0.02-0.05c0,0,0,0,0,0c0-0.01,0.01-0.01,0.01-0.02c0,0,0-0.01,0-0.01c0.01-0.02,0.01-0.04,0.02-0.06
			c0,0,0-0.01,0.01-0.02c0-0.01,0-0.01,0.01-0.02c0-0.01,0-0.01,0.01-0.02c0,0,0-0.01,0-0.01c0-0.01,0.01-0.02,0.01-0.03
			c0,0,0-0.01,0-0.01c0-0.01,0-0.01,0.01-0.02c0,0,0-0.01,0-0.01c0-0.01,0.01-0.02,0.01-0.02c0,0,0,0,0-0.01
			c0-0.01,0.01-0.02,0.01-0.03c0,0,0,0,0,0c0-0.01,0.01-0.02,0.01-0.03c0,0,0-0.01,0-0.01c0.01-0.02,0.02-0.04,0.02-0.06
			c0,0,0,0,0,0c0-0.01,0.01-0.02,0.01-0.03l0,0c0.11-0.29,0.23-0.57,0.35-0.86c0.33-0.76-0.02-1.64-0.78-1.97
			C21.97,32.42,21.77,32.38,21.57,32.38L21.57,32.38z M19.5,46.71c-0.83,0-1.5,0.67-1.5,1.5v7c0,0.83,0.67,1.5,1.5,1.5
			c0.83,0,1.5-0.67,1.5-1.5v-7C21,47.38,20.33,46.71,19.5,46.71L19.5,46.71z M19.5,60.71c-0.83,0-1.5,0.67-1.5,1.5v7
			c0,0.83,0.67,1.5,1.5,1.5c0.83,0,1.5-0.67,1.5-1.5v-7C21,61.38,20.33,60.71,19.5,60.71L19.5,60.71z M19.5,74.71
			c-0.83,0-1.5,0.67-1.5,1.5v7c0,0.83,0.67,1.5,1.5,1.5c0.83,0,1.5-0.67,1.5-1.5v-7C21,75.38,20.33,74.71,19.5,74.71L19.5,74.71z
			 M19.5,88.71c-0.83,0-1.5,0.67-1.5,1.5v7c0,0.83,0.67,1.5,1.5,1.5c0.83,0,1.5-0.67,1.5-1.5v-7C21,89.38,20.33,88.71,19.5,88.71
			L19.5,88.71z M19.5,102.71c-0.83,0-1.5,0.67-1.5,1.5v7c0,0.83,0.67,1.5,1.5,1.5c0.83,0,1.5-0.67,1.5-1.5v-7
			C21,103.38,20.33,102.71,19.5,102.71L19.5,102.71z M19.5,116.71c-0.83,0-1.5,0.67-1.5,1.5v7c0,0.83,0.67,1.5,1.5,1.5
			c0.83,0,1.5-0.67,1.5-1.5v-7C21,117.38,20.33,116.71,19.5,116.71L19.5,116.71z M19.5,130.71c-0.83,0-1.5,0.67-1.5,1.5v7
			c0,0.83,0.67,1.5,1.5,1.5c0.83,0,1.5-0.67,1.5-1.5v-7C21,131.38,20.33,130.71,19.5,130.71L19.5,130.71z M19.5,144.71
			c-0.83,0-1.5,0.67-1.5,1.5v7c0,0.83,0.67,1.5,1.5,1.5c0.83,0,1.5-0.67,1.5-1.5v-7C21,145.38,20.33,144.71,19.5,144.71L19.5,144.71
			z M19.5,158.71c-0.83,0-1.5,0.67-1.5,1.5v7c0,0.83,0.67,1.5,1.5,1.5c0.83,0,1.5-0.67,1.5-1.5v-7
			C21,159.38,20.33,158.71,19.5,158.71L19.5,158.71z M19.5,172.71c-0.83,0-1.5,0.67-1.5,1.5v7c0,0.83,0.67,1.5,1.5,1.5
			c0.83,0,1.5-0.67,1.5-1.5v-7C21,173.38,20.33,172.71,19.5,172.71L19.5,172.71z M19.5,186.71c-0.83,0-1.5,0.67-1.5,1.5v7
			c0,0.83,0.67,1.5,1.5,1.5c0.83,0,1.5-0.67,1.5-1.5v-7C21,187.38,20.33,186.71,19.5,186.71L19.5,186.71z M19.5,200.71
			c-0.83,0-1.5,0.67-1.5,1.5v7c0,0.83,0.67,1.5,1.5,1.5c0.83,0,1.5-0.67,1.5-1.5v-7C21,201.38,20.33,200.71,19.5,200.71L19.5,200.71
			z M19.5,214.71c-0.83,0-1.5,0.67-1.5,1.5v7c0,0.83,0.67,1.5,1.5,1.5c0.83,0,1.5-0.67,1.5-1.5v-7
			C21,215.38,20.33,214.71,19.5,214.71L19.5,214.71z M19.5,228.71c-0.83,0-1.5,0.67-1.5,1.5v7c0,0.83,0.67,1.5,1.5,1.5
			c0.83,0,1.5-0.67,1.5-1.5v-7C21,229.38,20.33,228.71,19.5,228.71L19.5,228.71z M19.5,242.71c-0.83,0-1.5,0.67-1.5,1.5v7
			c0,0.83,0.67,1.5,1.5,1.5c0.83,0,1.5-0.67,1.5-1.5v-7C21,243.38,20.33,242.71,19.5,242.71L19.5,242.71z M19.5,256.71
			c-0.83,0-1.5,0.67-1.5,1.5v7c0,0.83,0.67,1.5,1.5,1.5c0.83,0,1.5-0.67,1.5-1.5v-7C21,257.38,20.33,256.71,19.5,256.71L19.5,256.71
			z M19.5,270.71c-0.83,0-1.5,0.67-1.5,1.5v7c0,0.83,0.67,1.5,1.5,1.5c0.83,0,1.5-0.67,1.5-1.5v-7
			C21,271.38,20.33,270.71,19.5,270.71L19.5,270.71z M19.5,284.71c-0.83,0-1.5,0.67-1.5,1.5v7c0,0.83,0.67,1.5,1.5,1.5
			c0.83,0,1.5-0.67,1.5-1.5v-7C21,285.38,20.33,284.71,19.5,284.71L19.5,284.71z M19.5,298.71c-0.83,0-1.5,0.67-1.5,1.5v7
			c0,0.83,0.67,1.5,1.5,1.5c0.83,0,1.5-0.67,1.5-1.5v-7C21,299.38,20.33,298.71,19.5,298.71L19.5,298.71z M19.5,312.71
			c-0.83,0-1.5,0.67-1.5,1.5v7c0,0.83,0.67,1.5,1.5,1.5c0.83,0,1.5-0.67,1.5-1.5v-7C21,313.38,20.33,312.71,19.5,312.71L19.5,312.71
			z M19.5,326.71c-0.83,0-1.5,0.67-1.5,1.5v7c0,0.83,0.67,1.5,1.5,1.5c0.83,0,1.5-0.67,1.5-1.5v-7
			C21,327.38,20.33,326.71,19.5,326.71L19.5,326.71z M19.5,340.71c-0.83,0-1.5,0.67-1.5,1.5v7c0,0.83,0.67,1.5,1.5,1.5
			c0.83,0,1.5-0.67,1.5-1.5v-7C21,341.38,20.33,340.71,19.5,340.71L19.5,340.71z M19.5,354.71c-0.83,0-1.5,0.67-1.5,1.5v1.85
			c0,1.94,0.21,3.87,0.62,5.75c0.15,0.7,0.77,1.18,1.46,1.18c0.11,0,0.21-0.01,0.32-0.03c0.81-0.18,1.32-0.97,1.15-1.78
			c-0.09-0.43-0.17-0.86-0.24-1.29c0,0,0,0,0,0c0-0.01,0-0.02-0.01-0.04c0,0,0,0,0,0c0-0.01,0-0.02-0.01-0.03c0,0,0-0.01,0-0.01
			c0-0.01,0-0.02,0-0.03c0,0,0-0.01,0-0.01c0-0.01,0-0.02,0-0.03c0,0,0-0.01,0-0.01c0-0.01,0-0.02,0-0.03c0,0,0-0.01,0-0.01
			c0-0.01,0-0.02,0-0.03c0,0,0-0.01,0-0.01c0-0.01,0-0.02,0-0.03c0,0,0-0.01,0-0.01c0-0.01,0-0.02,0-0.02c0,0,0-0.01,0-0.01
			c0-0.01,0-0.02,0-0.02c0,0,0-0.01,0-0.01c0-0.01,0-0.02,0-0.02c0,0,0-0.01,0-0.01c0-0.01,0-0.02,0-0.02c0,0,0-0.01,0-0.01
			c0-0.01,0-0.02,0-0.03c0,0,0-0.01,0-0.01c0-0.01,0-0.02,0-0.03c0,0,0-0.01,0-0.01c0-0.01,0-0.03-0.01-0.04c0-0.01,0-0.01,0-0.02
			c0-0.01,0-0.01,0-0.02c0-0.01,0-0.01,0-0.02c0-0.01,0-0.01,0-0.02c0-0.01,0-0.01,0-0.02c0-0.01,0-0.01,0-0.02
			c0-0.01,0-0.01,0-0.02c0-0.01,0-0.01,0-0.02c0-0.01,0-0.01,0-0.02c0-0.01,0-0.01,0-0.02c0-0.01,0-0.01,0-0.02
			c0-0.01,0-0.01,0-0.02c0-0.01,0-0.01,0-0.02c0-0.01,0-0.01,0-0.02c0-0.01,0-0.01,0-0.02c0-0.01,0-0.01,0-0.02
			c0-0.01,0-0.01,0-0.02c0-0.01,0-0.01,0-0.02c0-0.01,0-0.02,0-0.02c0-0.01,0-0.01,0-0.02c0-0.01,0-0.02,0-0.02c0,0,0-0.01,0-0.02
			c0-0.01,0-0.02,0-0.02c0-0.01,0-0.01,0-0.01c0-0.01,0-0.02,0-0.02c0,0,0-0.01,0-0.01c0-0.01,0-0.02,0-0.02c0,0,0-0.01,0-0.01
			c0-0.01,0-0.02,0-0.03c0,0,0-0.01,0-0.01c-0.01-0.05-0.01-0.09-0.01-0.14c0,0,0,0,0-0.01c0-0.01,0-0.02,0-0.03c0,0,0-0.01,0-0.01
			c0-0.01,0-0.02,0-0.03c0,0,0-0.01,0-0.01c0-0.01,0-0.02,0-0.02c0-0.01,0-0.01,0-0.02c0-0.01,0-0.01,0-0.02c0-0.01,0-0.01,0-0.02
			c0-0.01,0-0.01,0-0.02c0-0.01,0-0.01,0-0.02c0-0.01,0-0.01,0-0.02c0-0.01,0-0.01,0-0.02c0-0.01,0-0.01,0-0.02c0,0,0-0.01,0-0.02
			c0-0.01,0-0.02,0-0.02c0,0,0-0.01,0-0.01c0-0.01,0-0.02,0-0.02c0,0,0-0.01,0-0.01c0-0.01,0-0.02,0-0.02c0,0,0-0.01,0-0.01
			c0-0.01,0-0.02,0-0.02c0,0,0-0.01,0-0.01c0-0.01,0-0.02,0-0.02c0,0,0-0.01,0-0.01c0-0.01,0-0.02,0-0.03c0,0,0-0.01,0-0.01
			c0-0.05-0.01-0.09-0.01-0.14c0,0,0,0,0,0c0-0.01,0-0.02,0-0.03c0,0,0-0.01,0-0.01c0-0.01,0-0.02,0-0.03c0,0,0-0.01,0-0.01
			c0-0.01,0-0.02,0-0.02c0,0,0-0.01,0-0.01c0-0.01,0-0.02,0-0.02c0,0,0-0.01,0-0.01c0-0.01,0-0.02,0-0.02c0,0,0-0.01,0-0.01
			c0-0.01,0-0.02,0-0.02c0-0.01,0-0.01,0-0.02c0-0.01,0-0.02,0-0.02c0,0,0-0.01,0-0.01c0-0.01,0-0.02,0-0.03c0,0,0-0.01,0-0.01
			c0-0.01,0-0.02,0-0.02c0,0,0-0.01,0-0.02c0-0.01,0-0.02,0-0.02c0-0.01,0-0.01,0-0.02c0-0.01,0-0.02,0-0.02c0-0.01,0-0.01,0-0.02
			c0-0.01,0-0.02,0-0.02c0,0,0-0.01,0-0.01c0-0.01,0-0.02,0-0.02c0-0.01,0-0.01,0-0.02c0-0.01,0-0.02,0-0.02c0,0,0-0.01,0-0.01
			c0-0.03,0-0.06-0.01-0.09c0,0,0-0.01,0-0.01c0-0.01,0-0.01,0-0.02c0-0.01,0-0.01,0-0.02c0-0.01,0-0.01,0-0.02
			c0-0.01,0-0.01,0-0.02c0-0.01,0-0.01,0-0.02c0-0.01,0-0.01,0-0.02c0-0.01,0-0.01,0-0.02c0-0.01,0-0.01,0-0.02
			c0-0.01,0-0.01,0-0.02c0-0.01,0-0.01,0-0.02c0-0.01,0-0.01,0-0.02c0-0.01,0-0.01,0-0.02c0-0.01,0-0.01,0-0.02
			c0-0.01,0-0.01,0-0.02c0-0.01,0-0.01,0-0.02c0-0.01,0-0.01,0-0.02c0-0.01,0-0.01,0-0.02c0-0.01,0-0.01,0-0.02
			c0-0.01,0-0.01,0-0.02c0-0.01,0-0.01,0-0.02c0-0.01,0-0.01,0-0.02c0-0.01,0-0.01,0-0.02c0-0.01,0-0.01,0-0.02
			c0-0.01,0-0.01,0-0.02c0-0.01,0-0.01,0-0.02c0-0.01,0-0.02,0-0.02c0-0.01,0-0.01,0-0.02c0-0.01,0-0.02,0-0.02c0,0,0-0.01,0-0.01
			c0-0.01,0-0.02,0-0.03c0-0.01,0-0.01,0-0.02c0-0.01,0-0.02,0-0.03c0,0,0-0.01,0-0.01c0-0.01,0-0.02,0-0.03c0-0.01,0-0.01,0-0.02
			c0-0.01,0-0.01,0-0.02c0-0.01,0-0.01,0-0.02c0-0.01,0-0.01,0-0.02c0-0.01,0-0.01,0-0.02c0-0.01,0-0.01,0-0.02
			c0-0.01,0-0.01,0-0.02c0-0.01,0-0.01,0-0.02c0-0.01,0-0.01,0-0.02c0-0.01,0-0.01,0-0.02c0-0.01,0-0.01,0-0.02
			c0-0.01,0-0.01,0-0.02c0-0.01,0-0.01,0-0.02c0-0.01,0-0.01,0-0.02c0-0.01,0-0.01,0-0.02c0-0.01,0-0.01,0-0.02
			c0-0.01,0-0.01,0-0.02c0-0.01,0-0.02,0-0.02c0-0.01,0-0.01,0-0.02c0-0.01,0-0.02,0-0.02c0-0.01,0-0.01,0-0.02
			c0-0.01,0-0.02,0-0.02c0-0.01,0-0.01,0-0.02c0-0.01,0-0.02,0-0.02c0-0.01,0-0.01,0-0.02c0-0.01,0-0.02,0-0.03c0,0,0-0.01,0-0.01
			c0-0.01,0-0.03,0-0.04v-1.85C21,355.38,20.33,354.71,19.5,354.71L19.5,354.71z M22.7,368.93c-0.25,0-0.5,0.06-0.73,0.19
			c-0.72,0.4-0.98,1.32-0.58,2.04c1.28,2.3,2.89,4.39,4.77,6.23c0.29,0.28,0.67,0.42,1.05,0.42c0.39,0,0.78-0.15,1.08-0.45
			c0.58-0.59,0.56-1.54-0.03-2.12c-0.25-0.24-0.49-0.49-0.73-0.74l0,0c-0.01-0.01-0.02-0.03-0.04-0.04c0,0,0,0,0,0
			c-0.01-0.01-0.02-0.03-0.04-0.04c0,0,0,0,0,0c-0.01-0.01-0.02-0.02-0.03-0.04c0,0,0,0,0,0c-0.01-0.01-0.02-0.02-0.03-0.04
			c0,0,0,0-0.01-0.01c-0.01-0.01-0.02-0.02-0.03-0.03c0,0,0,0,0,0c-0.01-0.01-0.02-0.02-0.03-0.04c0,0,0,0-0.01-0.01
			c-0.01-0.01-0.02-0.02-0.03-0.03c0,0,0,0,0,0c-0.01-0.01-0.02-0.02-0.03-0.04c0,0,0-0.01-0.01-0.01
			c-0.01-0.01-0.02-0.02-0.03-0.03c0,0,0,0,0,0c-0.01-0.01-0.02-0.02-0.03-0.04c0,0-0.01-0.01-0.01-0.01
			c-0.01-0.01-0.02-0.02-0.03-0.03c0,0,0,0,0,0c-0.01-0.01-0.02-0.02-0.03-0.03c0,0-0.01-0.01-0.01-0.01
			c-0.01-0.01-0.02-0.02-0.03-0.03c0,0-0.01-0.01-0.01-0.01c-0.01-0.01-0.02-0.02-0.03-0.03c0,0-0.01-0.01-0.01-0.01
			c-0.01-0.01-0.02-0.02-0.03-0.03c0,0-0.01-0.01-0.01-0.01c-0.01-0.01-0.02-0.02-0.02-0.03c0,0-0.01-0.01-0.01-0.01
			c-0.01-0.01-0.02-0.02-0.03-0.03c0,0-0.01-0.01-0.01-0.01c-0.01-0.01-0.01-0.02-0.02-0.03c0,0-0.01-0.01-0.01-0.01
			c-0.01-0.01-0.02-0.02-0.03-0.03c0,0-0.01-0.01-0.01-0.01c-0.01-0.01-0.01-0.02-0.02-0.03c0,0-0.01-0.01-0.01-0.01
			c-0.01-0.01-0.02-0.02-0.03-0.03c0,0-0.01-0.01-0.01-0.01c-0.01-0.01-0.01-0.02-0.02-0.02c0,0-0.01-0.01-0.01-0.01
			c-0.01-0.01-0.02-0.02-0.03-0.03c0,0-0.01-0.01-0.01-0.01c-0.01-0.01-0.01-0.02-0.02-0.02c0,0-0.01-0.01-0.01-0.01
			c-0.01-0.01-0.02-0.02-0.03-0.03c0,0-0.01-0.01-0.01-0.01c-0.01-0.01-0.01-0.02-0.02-0.02c0,0-0.01-0.01-0.01-0.01
			c-0.01-0.01-0.02-0.02-0.03-0.03c0,0-0.01-0.01-0.01-0.01c-0.01-0.01-0.01-0.02-0.02-0.03c0,0-0.01-0.01-0.01-0.01
			c-0.01-0.01-0.02-0.02-0.03-0.03c0,0-0.01-0.01-0.01-0.01c-0.01-0.01-0.01-0.02-0.02-0.03c0,0-0.01-0.01-0.01-0.01
			c-0.01-0.01-0.02-0.02-0.03-0.03c0,0-0.01-0.01-0.01-0.01c-0.01-0.01-0.01-0.02-0.02-0.03c0,0-0.01-0.01-0.01-0.01
			c-0.01-0.01-0.02-0.02-0.03-0.03c0,0-0.01-0.01-0.01-0.01c-0.01-0.01-0.01-0.02-0.02-0.03c0,0-0.01-0.01-0.01-0.01
			c-0.01-0.01-0.02-0.02-0.03-0.03c0,0-0.01-0.01-0.01-0.01c-0.01-0.01-0.02-0.02-0.02-0.03c0,0-0.01-0.01-0.01-0.01
			c-0.01-0.01-0.02-0.02-0.02-0.03c0,0-0.01-0.01-0.01-0.01c-0.01-0.01-0.02-0.02-0.02-0.03c0,0-0.01-0.01-0.01-0.01
			c-0.01-0.01-0.02-0.02-0.02-0.03c0,0-0.01-0.01-0.01-0.01c-0.01-0.01-0.02-0.02-0.03-0.04c0,0,0,0-0.01-0.01
			c-0.01-0.01-0.02-0.02-0.02-0.03c0,0-0.01-0.01-0.01-0.01c-0.01-0.01-0.02-0.02-0.03-0.04c0,0,0-0.01-0.01-0.01
			c-0.01-0.01-0.02-0.02-0.02-0.03c0,0-0.01-0.01-0.01-0.01c-0.01-0.01-0.02-0.02-0.03-0.04c0,0-0.01-0.01-0.01-0.01
			c-0.01-0.01-0.01-0.02-0.02-0.03c0,0-0.01-0.01-0.01-0.01c-0.01-0.01-0.02-0.02-0.03-0.04c0,0,0-0.01-0.01-0.01
			c-0.01-0.01-0.02-0.02-0.02-0.03c0,0-0.01-0.01-0.01-0.01c-0.01-0.01-0.02-0.02-0.03-0.04c0,0,0-0.01-0.01-0.01
			c-0.01-0.01-0.02-0.02-0.02-0.03c0,0,0-0.01-0.01-0.01c-0.01-0.01-0.02-0.03-0.03-0.04c0,0,0,0,0-0.01
			c-0.01-0.01-0.02-0.02-0.03-0.04c0,0,0,0,0-0.01c-0.01-0.01-0.02-0.03-0.03-0.04c0,0,0,0-0.01-0.01
			c-0.01-0.01-0.02-0.02-0.03-0.03c0,0,0,0,0-0.01c-0.01-0.01-0.02-0.03-0.03-0.04c0,0,0-0.01-0.01-0.01
			c-0.01-0.01-0.02-0.02-0.03-0.04c0,0,0,0,0-0.01c-0.01-0.01-0.02-0.03-0.03-0.04c0,0,0,0,0-0.01c-0.01-0.01-0.02-0.03-0.03-0.04
			c0,0,0,0,0,0c-0.01-0.01-0.02-0.03-0.03-0.04c0,0,0,0,0-0.01c-0.02-0.03-0.04-0.06-0.06-0.08c0,0,0,0,0,0
			c-0.02-0.03-0.04-0.06-0.06-0.08c0,0,0,0,0,0c-0.02-0.03-0.04-0.06-0.06-0.09c0,0,0,0,0,0c-0.02-0.03-0.04-0.06-0.06-0.09
			c0,0,0,0,0,0c-0.02-0.03-0.04-0.06-0.06-0.09c0,0,0,0,0,0c-0.3-0.44-0.59-0.88-0.86-1.34l0,0c-0.04-0.06-0.07-0.13-0.11-0.19
			c0,0,0,0,0,0c-0.01-0.01-0.02-0.03-0.03-0.05c0,0,0,0,0,0c-0.02-0.03-0.04-0.06-0.05-0.09c0,0,0,0,0,0
			c-0.01-0.01-0.02-0.03-0.02-0.04c0,0,0,0,0,0c-0.01-0.02-0.02-0.03-0.03-0.04c0,0,0,0,0-0.01c-0.01-0.01-0.01-0.03-0.02-0.04
			c0,0,0,0,0,0c-0.01-0.01-0.02-0.03-0.02-0.04c0,0,0-0.01-0.01-0.01c-0.01-0.01-0.01-0.02-0.02-0.04c0,0,0,0,0-0.01
			C23.74,369.2,23.23,368.93,22.7,368.93L22.7,368.93z M33.22,379.15c-0.54,0-1.06,0.29-1.33,0.81c-0.38,0.73-0.1,1.64,0.64,2.02
			c2.34,1.22,4.84,2.08,7.42,2.56c0.09,0.02,0.19,0.03,0.28,0.03c0.71,0,1.34-0.5,1.47-1.22c0.15-0.81-0.38-1.59-1.19-1.75
			c-2.34-0.44-4.56-1.21-6.61-2.28C33.69,379.2,33.45,379.15,33.22,379.15L33.22,379.15z M54.48,382h-7c-0.83,0-1.5,0.67-1.5,1.5
			s0.67,1.5,1.5,1.5h7c0.83,0,1.5-0.67,1.5-1.5S55.31,382,54.48,382L54.48,382z M68.48,382h-7c-0.83,0-1.5,0.67-1.5,1.5
			s0.67,1.5,1.5,1.5h7c0.83,0,1.5-0.67,1.5-1.5S69.31,382,68.48,382L68.48,382z M82.48,382h-7c-0.83,0-1.5,0.67-1.5,1.5
			s0.67,1.5,1.5,1.5h7c0.83,0,1.5-0.67,1.5-1.5S83.31,382,82.48,382L82.48,382z M96.48,382h-7c-0.83,0-1.5,0.67-1.5,1.5
			s0.67,1.5,1.5,1.5h7c0.83,0,1.5-0.67,1.5-1.5S97.31,382,96.48,382L96.48,382z M110.48,382h-7c-0.83,0-1.5,0.67-1.5,1.5
			s0.67,1.5,1.5,1.5h7c0.83,0,1.5-0.67,1.5-1.5S111.31,382,110.48,382L110.48,382z M124.48,382h-7c-0.83,0-1.5,0.67-1.5,1.5
			s0.67,1.5,1.5,1.5h7c0.83,0,1.5-0.67,1.5-1.5S125.31,382,124.48,382L124.48,382z M138.48,382h-7c-0.83,0-1.5,0.67-1.5,1.5
			s0.67,1.5,1.5,1.5h7c0.83,0,1.5-0.67,1.5-1.5S139.31,382,138.48,382L138.48,382z M152.48,382h-7c-0.83,0-1.5,0.67-1.5,1.5
			s0.67,1.5,1.5,1.5h7c0.83,0,1.5-0.67,1.5-1.5S153.31,382,152.48,382L152.48,382z M166.48,382h-7c-0.83,0-1.5,0.67-1.5,1.5
			s0.67,1.5,1.5,1.5h7c0.83,0,1.5-0.67,1.5-1.5S167.31,382,166.48,382L166.48,382z M180.48,382h-7c-0.83,0-1.5,0.67-1.5,1.5
			s0.67,1.5,1.5,1.5h7c0.83,0,1.5-0.67,1.5-1.5S181.31,382,180.48,382L180.48,382z M194.48,382h-7c-0.83,0-1.5,0.67-1.5,1.5
			s0.67,1.5,1.5,1.5h7c0.83,0,1.5-0.67,1.5-1.5S195.31,382,194.48,382L194.48,382z M208.48,382h-7c-0.83,0-1.5,0.67-1.5,1.5
			s0.67,1.5,1.5,1.5h7c0.83,0,1.5-0.67,1.5-1.5S209.31,382,208.48,382L208.48,382z M222.48,382h-7c-0.83,0-1.5,0.67-1.5,1.5
			s0.67,1.5,1.5,1.5h7c0.83,0,1.5-0.67,1.5-1.5S223.31,382,222.48,382L222.48,382z M236.48,382h-7c-0.83,0-1.5,0.67-1.5,1.5
			s0.67,1.5,1.5,1.5h7c0.83,0,1.5-0.67,1.5-1.5S237.31,382,236.48,382L236.48,382z M250.48,382h-7c-0.83,0-1.5,0.67-1.5,1.5
			s0.67,1.5,1.5,1.5h7c0.83,0,1.5-0.67,1.5-1.5S251.31,382,250.48,382L250.48,382z M264.48,382h-7c-0.83,0-1.5,0.67-1.5,1.5
			s0.67,1.5,1.5,1.5h7c0.83,0,1.5-0.67,1.5-1.5S265.31,382,264.48,382L264.48,382z M278.48,382h-7c-0.83,0-1.5,0.67-1.5,1.5
			s0.67,1.5,1.5,1.5h7c0.83,0,1.5-0.67,1.5-1.5S279.31,382,278.48,382L278.48,382z M292.48,382h-7c-0.83,0-1.5,0.67-1.5,1.5
			s0.67,1.5,1.5,1.5h7c0.83,0,1.5-0.67,1.5-1.5S293.31,382,292.48,382L292.48,382z M306.48,382h-7c-0.83,0-1.5,0.67-1.5,1.5
			s0.67,1.5,1.5,1.5h7c0.83,0,1.5-0.67,1.5-1.5S307.31,382,306.48,382L306.48,382z M320.48,382h-7c-0.83,0-1.5,0.67-1.5,1.5
			s0.67,1.5,1.5,1.5h7c0.83,0,1.5-0.67,1.5-1.5S321.31,382,320.48,382L320.48,382z M334.48,382h-7c-0.83,0-1.5,0.67-1.5,1.5
			s0.67,1.5,1.5,1.5h7c0.83,0,1.5-0.67,1.5-1.5S335.31,382,334.48,382L334.48,382z M348.48,382h-7c-0.83,0-1.5,0.67-1.5,1.5
			s0.67,1.5,1.5,1.5h7c0.83,0,1.5-0.67,1.5-1.5S349.31,382,348.48,382L348.48,382z M362.48,382h-7c-0.83,0-1.5,0.67-1.5,1.5
			s0.67,1.5,1.5,1.5h7c0.83,0,1.5-0.67,1.5-1.5S363.31,382,362.48,382L362.48,382z M376.48,382h-7c-0.83,0-1.5,0.67-1.5,1.5
			s0.67,1.5,1.5,1.5h7c0.83,0,1.5-0.67,1.5-1.5S377.31,382,376.48,382L376.48,382z M390.48,382h-7c-0.83,0-1.5,0.67-1.5,1.5
			s0.67,1.5,1.5,1.5h7c0.83,0,1.5-0.67,1.5-1.5S391.31,382,390.48,382L390.48,382z M404.48,382h-7c-0.83,0-1.5,0.67-1.5,1.5
			s0.67,1.5,1.5,1.5h7c0.83,0,1.5-0.67,1.5-1.5S405.31,382,404.48,382L404.48,382z M418.48,382h-7c-0.83,0-1.5,0.67-1.5,1.5
			s0.67,1.5,1.5,1.5h7c0.83,0,1.5-0.67,1.5-1.5S419.31,382,418.48,382L418.48,382z M432.48,382h-7c-0.83,0-1.5,0.67-1.5,1.5
			s0.67,1.5,1.5,1.5h7c0.83,0,1.5-0.67,1.5-1.5S433.31,382,432.48,382L432.48,382z M446.48,382h-7c-0.83,0-1.5,0.67-1.5,1.5
			s0.67,1.5,1.5,1.5h7c0.83,0,1.5-0.67,1.5-1.5S447.31,382,446.48,382L446.48,382z M460.48,382h-7c-0.83,0-1.5,0.67-1.5,1.5
			s0.67,1.5,1.5,1.5h7c0.83,0,1.5-0.67,1.5-1.5S461.31,382,460.48,382L460.48,382z M474.48,382h-7c-0.83,0-1.5,0.67-1.5,1.5
			s0.67,1.5,1.5,1.5h7c0.83,0,1.5-0.67,1.5-1.5S475.31,382,474.48,382L474.48,382z M488.48,382h-7c-0.83,0-1.5,0.67-1.5,1.5
			s0.67,1.5,1.5,1.5h7c0.83,0,1.5-0.67,1.5-1.5S489.31,382,488.48,382L488.48,382z M502.48,382h-7c-0.83,0-1.5,0.67-1.5,1.5
			s0.67,1.5,1.5,1.5h7c0.83,0,1.5-0.67,1.5-1.5S503.31,382,502.48,382L502.48,382z M516.48,382h-7c-0.83,0-1.5,0.67-1.5,1.5
			s0.67,1.5,1.5,1.5h7c0.83,0,1.5-0.67,1.5-1.5S517.31,382,516.48,382L516.48,382z M530.48,382h-7c-0.83,0-1.5,0.67-1.5,1.5
			s0.67,1.5,1.5,1.5h7c0.83,0,1.5-0.67,1.5-1.5S531.31,382,530.48,382L530.48,382z M544.48,382h-7c-0.83,0-1.5,0.67-1.5,1.5
			s0.67,1.5,1.5,1.5h7c0.83,0,1.5-0.67,1.5-1.5S545.31,382,544.48,382L544.48,382z M558.48,382h-7c-0.83,0-1.5,0.67-1.5,1.5
			s0.67,1.5,1.5,1.5h7c0.83,0,1.5-0.67,1.5-1.5S559.31,382,558.48,382L558.48,382z M572.48,382h-7c-0.83,0-1.5,0.67-1.5,1.5
			s0.67,1.5,1.5,1.5h7c0.83,0,1.5-0.67,1.5-1.5S573.31,382,572.48,382L572.48,382z M586.48,382h-7c-0.83,0-1.5,0.67-1.5,1.5
			s0.67,1.5,1.5,1.5h7c0.83,0,1.5-0.67,1.5-1.5S587.31,382,586.48,382L586.48,382z M600.48,382h-7c-0.83,0-1.5,0.67-1.5,1.5
			s0.67,1.5,1.5,1.5h7c0.83,0,1.5-0.67,1.5-1.5S601.31,382,600.48,382L600.48,382z M614.48,382h-7c-0.83,0-1.5,0.67-1.5,1.5
			s0.67,1.5,1.5,1.5h7c0.83,0,1.5-0.67,1.5-1.5S615.31,382,614.48,382L614.48,382z M628.48,382h-7c-0.83,0-1.5,0.67-1.5,1.5
			s0.67,1.5,1.5,1.5h7c0.83,0,1.5-0.67,1.5-1.5S629.31,382,628.48,382L628.48,382z M642.48,382h-7c-0.83,0-1.5,0.67-1.5,1.5
			s0.67,1.5,1.5,1.5h7c0.83,0,1.5-0.67,1.5-1.5S643.31,382,642.48,382L642.48,382z M656.48,382h-7c-0.83,0-1.5,0.67-1.5,1.5
			s0.67,1.5,1.5,1.5h7c0.83,0,1.5-0.67,1.5-1.5S657.31,382,656.48,382L656.48,382z M670.48,382h-7c-0.83,0-1.5,0.67-1.5,1.5
			s0.67,1.5,1.5,1.5h7c0.83,0,1.5-0.67,1.5-1.5S671.31,382,670.48,382L670.48,382z M684.48,382h-7c-0.83,0-1.5,0.67-1.5,1.5
			s0.67,1.5,1.5,1.5h7c0.83,0,1.5-0.67,1.5-1.5S685.31,382,684.48,382L684.48,382z M698.48,382h-7c-0.83,0-1.5,0.67-1.5,1.5
			s0.67,1.5,1.5,1.5h7c0.83,0,1.5-0.67,1.5-1.5S699.31,382,698.48,382L698.48,382z M712.48,382h-7c-0.83,0-1.5,0.67-1.5,1.5
			s0.67,1.5,1.5,1.5h7c0.83,0,1.5-0.67,1.5-1.5S713.31,382,712.48,382L712.48,382z M726.48,382h-7c-0.83,0-1.5,0.67-1.5,1.5
			s0.67,1.5,1.5,1.5h7c0.83,0,1.5-0.67,1.5-1.5S727.31,382,726.48,382L726.48,382z M740.48,382h-7c-0.83,0-1.5,0.67-1.5,1.5
			s0.67,1.5,1.5,1.5h7c0.83,0,1.5-0.67,1.5-1.5S741.31,382,740.48,382L740.48,382z M754.48,382h-7c-0.83,0-1.5,0.67-1.5,1.5
			s0.67,1.5,1.5,1.5h7c0.83,0,1.5-0.67,1.5-1.5S755.31,382,754.48,382L754.48,382z M768.48,382h-7c-0.83,0-1.5,0.67-1.5,1.5
			s0.67,1.5,1.5,1.5h7c0.83,0,1.5-0.67,1.5-1.5S769.31,382,768.48,382L768.48,382z M782.48,382h-7c-0.83,0-1.5,0.67-1.5,1.5
			s0.67,1.5,1.5,1.5h7c0.83,0,1.5-0.67,1.5-1.5S783.31,382,782.48,382L782.48,382z M796.48,382h-7c-0.83,0-1.5,0.67-1.5,1.5
			s0.67,1.5,1.5,1.5h7c0.83,0,1.5-0.67,1.5-1.5S797.31,382,796.48,382L796.48,382z M810.48,382h-7c-0.83,0-1.5,0.67-1.5,1.5
			s0.67,1.5,1.5,1.5h7c0.83,0,1.5-0.67,1.5-1.5S811.31,382,810.48,382L810.48,382z M824.48,382h-7c-0.83,0-1.5,0.67-1.5,1.5
			s0.67,1.5,1.5,1.5h7c0.83,0,1.5-0.67,1.5-1.5S825.31,382,824.48,382L824.48,382z M838.48,382h-7c-0.83,0-1.5,0.67-1.5,1.5
			s0.67,1.5,1.5,1.5h7c0.83,0,1.5-0.67,1.5-1.5S839.31,382,838.48,382L838.48,382z M852.48,382h-7c-0.83,0-1.5,0.67-1.5,1.5
			s0.67,1.5,1.5,1.5h7c0.83,0,1.5-0.67,1.5-1.5S853.31,382,852.48,382L852.48,382z M866.48,382h-7c-0.83,0-1.5,0.67-1.5,1.5
			s0.67,1.5,1.5,1.5h7c0.83,0,1.5-0.67,1.5-1.5S867.31,382,866.48,382L866.48,382z M880.48,382h-7c-0.83,0-1.5,0.67-1.5,1.5
			s0.67,1.5,1.5,1.5h7c0.83,0,1.5-0.67,1.5-1.5S881.31,382,880.48,382L880.48,382z M894.48,382h-7c-0.83,0-1.5,0.67-1.5,1.5
			s0.67,1.5,1.5,1.5h7c0.83,0,1.5-0.67,1.5-1.5S895.31,382,894.48,382L894.48,382z M908.48,382h-7c-0.83,0-1.5,0.67-1.5,1.5
			s0.67,1.5,1.5,1.5h7c0.83,0,1.5-0.67,1.5-1.5S909.31,382,908.48,382L908.48,382z M922.48,382h-7c-0.83,0-1.5,0.67-1.5,1.5
			s0.67,1.5,1.5,1.5h7c0.83,0,1.5-0.67,1.5-1.5S923.31,382,922.48,382L922.48,382z M936.48,382h-7c-0.83,0-1.5,0.67-1.5,1.5
			s0.67,1.5,1.5,1.5h7c0.83,0,1.5-0.67,1.5-1.5S937.31,382,936.48,382L936.48,382z M950.48,382h-7c-0.83,0-1.5,0.67-1.5,1.5
			s0.67,1.5,1.5,1.5h7c0.83,0,1.5-0.67,1.5-1.5S951.31,382,950.48,382L950.48,382z M964.82,380.06c-0.19,0-0.39,0.04-0.58,0.12
			c-0.14,0.06-0.29,0.12-0.43,0.18c0,0,0,0,0,0c-0.01,0-0.02,0.01-0.03,0.01c0,0,0,0,0,0c-0.01,0-0.02,0.01-0.03,0.01c0,0,0,0,0,0
			c-0.01,0-0.02,0.01-0.02,0.01c0,0-0.01,0-0.01,0c-0.01,0-0.02,0.01-0.02,0.01c0,0,0,0-0.01,0c-0.01,0-0.02,0.01-0.03,0.01
			c0,0-0.01,0-0.01,0c-0.01,0-0.01,0-0.02,0.01c-0.01,0-0.01,0-0.01,0.01c0,0-0.01,0-0.01,0.01c-0.01,0-0.02,0.01-0.03,0.01
			c0,0-0.01,0-0.01,0c-0.01,0-0.01,0-0.02,0.01c0,0-0.01,0-0.01,0c-0.01,0-0.01,0-0.02,0.01c0,0-0.01,0-0.01,0
			c-0.01,0-0.02,0.01-0.04,0.01c0,0-0.01,0-0.01,0c-0.01,0-0.01,0.01-0.02,0.01c0,0,0,0-0.01,0c-0.02,0.01-0.05,0.02-0.07,0.03h0
			c-1.32,0.48-2.68,0.86-4.1,1.11c0,0-0.01,0-0.01,0c-0.01,0-0.01,0-0.02,0c0,0-0.01,0-0.01,0c-0.01,0-0.01,0-0.02,0c0,0,0,0-0.01,0
			c-0.01,0-0.03,0-0.04,0.01c0,0-0.01,0-0.01,0c-0.01,0-0.01,0-0.02,0c0,0-0.01,0-0.01,0c-0.01,0-0.01,0-0.02,0
			c-0.01,0-0.02,0-0.03,0c0,0-0.01,0-0.01,0c-0.01,0-0.01,0-0.02,0c-0.01,0-0.01,0-0.01,0c-0.01,0-0.02,0-0.03,0c0,0,0,0-0.01,0
			c-0.01,0-0.02,0-0.03,0.01c0,0-0.01,0-0.01,0c-0.01,0-0.02,0-0.03,0c0,0,0,0-0.01,0c-0.02,0-0.05,0.01-0.07,0.01c0,0,0,0,0,0
			c-0.04,0.01-0.07,0.01-0.11,0.02l0,0c-0.41,0.06-0.82,0.11-1.23,0.16c-0.82,0.08-1.43,0.82-1.34,1.64
			c0.08,0.77,0.73,1.35,1.49,1.35c0.05,0,0.1,0,0.15-0.01c2.62-0.26,5.19-0.91,7.62-1.92c0.76-0.32,1.13-1.2,0.81-1.96
			C965.96,380.41,965.4,380.06,964.82,380.06L964.82,380.06z M976.17,370.77c-0.48,0-0.96,0.23-1.24,0.66
			c-0.08,0.11-0.15,0.23-0.23,0.34c0,0,0,0,0,0c-0.02,0.03-0.04,0.05-0.06,0.08c0,0-0.01,0.01-0.01,0.01
			c-0.01,0.01-0.02,0.02-0.02,0.03c-0.01,0.01-0.01,0.01-0.02,0.02c0,0.01-0.01,0.01-0.01,0.02c0,0.01-0.01,0.01-0.01,0.02
			c0,0.01-0.01,0.01-0.01,0.02c-0.01,0.01-0.02,0.02-0.02,0.03c0,0.01-0.01,0.01-0.01,0.02c-0.01,0.01-0.01,0.02-0.02,0.03
			c0,0-0.01,0.01-0.01,0.01c-0.01,0.01-0.02,0.02-0.03,0.04c0,0-0.01,0.01-0.01,0.01c-0.01,0.01-0.01,0.02-0.02,0.03
			c0,0,0,0.01-0.01,0.01c-0.01,0.01-0.02,0.03-0.03,0.04c0,0,0,0.01-0.01,0.01c-0.01,0.01-0.02,0.03-0.03,0.04c0,0,0,0,0,0
			c-0.01,0.01-0.02,0.03-0.03,0.04c0,0,0,0,0,0.01c-0.02,0.03-0.04,0.06-0.06,0.08c0,0,0,0,0,0c-0.64,0.86-1.34,1.68-2.1,2.45
			c0,0,0,0,0,0c-0.03,0.03-0.05,0.05-0.08,0.08c0,0,0,0,0,0c-0.02,0.02-0.05,0.05-0.08,0.08c0,0,0,0,0,0
			c-0.02,0.02-0.05,0.05-0.07,0.07c0,0,0,0,0,0c-0.02,0.02-0.05,0.05-0.07,0.07c0,0,0,0-0.01,0.01c-0.01,0.01-0.02,0.02-0.04,0.03
			c0,0,0,0,0,0c-0.01,0.01-0.02,0.02-0.03,0.03c0,0,0,0-0.01,0.01c-0.01,0.01-0.02,0.02-0.04,0.03c0,0,0,0,0,0
			c-0.01,0.01-0.02,0.02-0.03,0.03c0,0-0.01,0.01-0.01,0.01c-0.01,0.01-0.02,0.02-0.03,0.03c0,0,0,0-0.01,0.01
			c-0.01,0.01-0.02,0.02-0.03,0.03c0,0-0.01,0.01-0.01,0.01c-0.01,0.01-0.02,0.02-0.03,0.03c0,0-0.01,0-0.01,0.01
			c-0.01,0.01-0.02,0.02-0.03,0.03c0,0-0.01,0.01-0.01,0.01c-0.01,0.01-0.02,0.02-0.03,0.03c0,0-0.01,0.01-0.01,0.01
			c-0.01,0.01-0.02,0.02-0.02,0.02c0,0-0.01,0.01-0.01,0.01c-0.01,0.01-0.02,0.02-0.03,0.03c0,0-0.01,0.01-0.01,0.01
			c-0.01,0.01-0.02,0.01-0.02,0.02c0,0-0.01,0.01-0.01,0.01c-0.01,0.01-0.02,0.02-0.03,0.03c0,0-0.01,0.01-0.01,0.01
			c-0.01,0.01-0.01,0.01-0.02,0.02c0,0-0.01,0.01-0.01,0.01c-0.01,0.01-0.02,0.02-0.03,0.03c-0.01,0-0.01,0.01-0.02,0.01
			c-0.01,0.01-0.01,0.01-0.02,0.02c-0.01,0.01-0.01,0.01-0.02,0.02c-0.01,0.01-0.02,0.02-0.03,0.02c-0.01,0-0.01,0.01-0.02,0.01
			c-0.01,0.01-0.01,0.01-0.02,0.02s-0.01,0.01-0.02,0.02c-0.01,0.01-0.02,0.01-0.02,0.02c-0.01,0.01-0.01,0.01-0.02,0.02
			c-0.01,0.01-0.01,0.01-0.02,0.02c-0.01,0.01-0.02,0.02-0.03,0.02c-0.01,0.01-0.01,0.01-0.02,0.02c-0.01,0.01-0.01,0.01-0.02,0.02
			c-0.01,0.01-0.01,0.01-0.02,0.02c-0.01,0.01-0.02,0.02-0.03,0.02c-0.01,0.01-0.01,0.01-0.02,0.02c-0.01,0.01-0.01,0.01-0.02,0.02
			c-0.01,0-0.01,0.01-0.02,0.01c-0.01,0.01-0.02,0.02-0.03,0.03c-0.01,0-0.01,0.01-0.01,0.01c-0.01,0.01-0.01,0.01-0.02,0.02
			c-0.01,0.01-0.01,0.01-0.02,0.02c-0.01,0.01-0.02,0.02-0.03,0.02c-0.01,0.01-0.01,0.01-0.02,0.02c-0.01,0.01-0.01,0.01-0.02,0.02
			c-0.01,0.01-0.01,0.01-0.02,0.02c-0.01,0.01-0.02,0.01-0.02,0.02c-0.01,0-0.01,0.01-0.02,0.01c-0.01,0.01-0.01,0.01-0.02,0.02
			c-0.01,0.01-0.02,0.01-0.02,0.02c-0.01,0.01-0.02,0.01-0.02,0.02c-0.01,0.01-0.01,0.01-0.02,0.01c-0.01,0.01-0.01,0.01-0.02,0.02
			c-0.01,0.01-0.02,0.02-0.03,0.02c-0.01,0.01-0.01,0.01-0.02,0.02c-0.01,0-0.01,0.01-0.02,0.01c-0.01,0.01-0.01,0.01-0.02,0.02
			c-0.01,0.01-0.02,0.02-0.03,0.03c-0.01,0.01-0.01,0.01-0.02,0.01c-0.01,0.01-0.01,0.01-0.02,0.02c-0.01,0-0.01,0.01-0.02,0.01
			c-0.01,0.01-0.02,0.02-0.03,0.03c-0.01,0-0.01,0.01-0.02,0.01c-0.01,0.01-0.01,0.01-0.02,0.02c0,0-0.01,0.01-0.01,0.01
			c-0.01,0.01-0.02,0.02-0.03,0.03c0,0-0.01,0.01-0.01,0.01c-0.01,0.01-0.02,0.01-0.03,0.02c0,0-0.01,0.01-0.01,0.01
			c-0.01,0.01-0.02,0.02-0.03,0.03c0,0,0,0-0.01,0.01c-0.64,0.52-0.73,1.47-0.21,2.11c0.3,0.36,0.73,0.55,1.16,0.55
			c0.33,0,0.67-0.11,0.95-0.34c2.04-1.67,3.81-3.62,5.28-5.8c0.46-0.69,0.28-1.62-0.4-2.08
			C976.75,370.85,976.45,370.77,976.17,370.77L976.17,370.77z M980.5,356.76c-0.82,0-1.49,0.66-1.5,1.48c0,0.39-0.01,0.77-0.04,1.15
			c0,0,0,0,0,0c0,0.01,0,0.02,0,0.03c0,0,0,0,0,0c0,0.02,0,0.05,0,0.08c0,0,0,0.01,0,0.01c0,0.01,0,0.01,0,0.02c0,0,0,0.01,0,0.01
			c0,0.01,0,0.02,0,0.04c0,0,0,0.01,0,0.01c0,0.01,0,0.01,0,0.02c0,0.01,0,0.01,0,0.02c0,0.01,0,0.01,0,0.02c0,0.01,0,0.02,0,0.02
			c0,0.01,0,0.01,0,0.02c0,0.01,0,0.01,0,0.02c0,0,0,0.01,0,0.01c0,0.01,0,0.01,0,0.02c0,0,0,0.01,0,0.01c0,0.01,0,0.02,0,0.03
			c0,0,0,0.01,0,0.01c0,0.01,0,0.02,0,0.02c0,0,0,0.01,0,0.01c0,0.01,0,0.02,0,0.03c0,0,0,0,0,0c0,0.01,0,0.02,0,0.03
			c0,0,0,0.01,0,0.01c0,0.01,0,0.02,0,0.03c0,0,0,0.01,0,0.01c0,0.01,0,0.02,0,0.04l0,0c0,0.01,0,0.02,0,0.04c0,0,0,0,0,0
			c0,0.01,0,0.02,0,0.03c0,0,0,0,0,0c0,0.02,0,0.05-0.01,0.07c0,0,0,0,0,0c0,0.02,0,0.05-0.01,0.07c0,0,0,0,0,0
			c-0.15,1.7-0.48,3.35-0.97,4.94c-0.24,0.79,0.2,1.63,0.99,1.88c0.15,0.05,0.3,0.07,0.44,0.07c0.64,0,1.23-0.41,1.43-1.06
			c0.77-2.5,1.18-5.11,1.2-7.76c0.01-0.83-0.66-1.51-1.49-1.51C980.51,356.76,980.5,356.76,980.5,356.76L980.5,356.76z
			 M980.5,342.75c-0.83,0-1.5,0.67-1.5,1.5v7c0,0.83,0.67,1.5,1.5,1.5s1.5-0.67,1.5-1.5v-7C982,343.42,981.33,342.75,980.5,342.75
			L980.5,342.75z M980.5,328.75c-0.83,0-1.5,0.67-1.5,1.5v7c0,0.83,0.67,1.5,1.5,1.5s1.5-0.67,1.5-1.5v-7
			C982,329.42,981.33,328.75,980.5,328.75L980.5,328.75z M980.5,314.75c-0.83,0-1.5,0.67-1.5,1.5v7c0,0.83,0.67,1.5,1.5,1.5
			s1.5-0.67,1.5-1.5v-7C982,315.42,981.33,314.75,980.5,314.75L980.5,314.75z M980.5,300.75c-0.83,0-1.5,0.67-1.5,1.5v7
			c0,0.83,0.67,1.5,1.5,1.5s1.5-0.67,1.5-1.5v-7C982,301.42,981.33,300.75,980.5,300.75L980.5,300.75z M980.5,286.75
			c-0.83,0-1.5,0.67-1.5,1.5v7c0,0.83,0.67,1.5,1.5,1.5s1.5-0.67,1.5-1.5v-7C982,287.42,981.33,286.75,980.5,286.75L980.5,286.75z
			 M980.5,272.75c-0.83,0-1.5,0.67-1.5,1.5v7c0,0.83,0.67,1.5,1.5,1.5s1.5-0.67,1.5-1.5v-7C982,273.42,981.33,272.75,980.5,272.75
			L980.5,272.75z M980.5,258.75c-0.83,0-1.5,0.67-1.5,1.5v7c0,0.83,0.67,1.5,1.5,1.5s1.5-0.67,1.5-1.5v-7
			C982,259.42,981.33,258.75,980.5,258.75L980.5,258.75z M980.5,244.75c-0.83,0-1.5,0.67-1.5,1.5v7c0,0.83,0.67,1.5,1.5,1.5
			s1.5-0.67,1.5-1.5v-7C982,245.42,981.33,244.75,980.5,244.75L980.5,244.75z M980.5,230.75c-0.83,0-1.5,0.67-1.5,1.5v7
			c0,0.83,0.67,1.5,1.5,1.5s1.5-0.67,1.5-1.5v-7C982,231.42,981.33,230.75,980.5,230.75L980.5,230.75z M980.5,216.75
			c-0.83,0-1.5,0.67-1.5,1.5v7c0,0.83,0.67,1.5,1.5,1.5s1.5-0.67,1.5-1.5v-7C982,217.42,981.33,216.75,980.5,216.75L980.5,216.75z
			 M980.5,202.75c-0.83,0-1.5,0.67-1.5,1.5v7c0,0.83,0.67,1.5,1.5,1.5s1.5-0.67,1.5-1.5v-7C982,203.42,981.33,202.75,980.5,202.75
			L980.5,202.75z M980.5,188.75c-0.83,0-1.5,0.67-1.5,1.5v7c0,0.83,0.67,1.5,1.5,1.5s1.5-0.67,1.5-1.5v-7
			C982,189.42,981.33,188.75,980.5,188.75L980.5,188.75z M980.5,174.75c-0.83,0-1.5,0.67-1.5,1.5v7c0,0.83,0.67,1.5,1.5,1.5
			s1.5-0.67,1.5-1.5v-7C982,175.42,981.33,174.75,980.5,174.75L980.5,174.75z M980.5,160.75c-0.83,0-1.5,0.67-1.5,1.5v7
			c0,0.83,0.67,1.5,1.5,1.5s1.5-0.67,1.5-1.5v-7C982,161.42,981.33,160.75,980.5,160.75L980.5,160.75z M980.5,146.75
			c-0.83,0-1.5,0.67-1.5,1.5v7c0,0.83,0.67,1.5,1.5,1.5s1.5-0.67,1.5-1.5v-7C982,147.42,981.33,146.75,980.5,146.75L980.5,146.75z
			 M980.5,132.75c-0.83,0-1.5,0.67-1.5,1.5v7c0,0.83,0.67,1.5,1.5,1.5s1.5-0.67,1.5-1.5v-7C982,133.42,981.33,132.75,980.5,132.75
			L980.5,132.75z M980.5,118.75c-0.83,0-1.5,0.67-1.5,1.5v7c0,0.83,0.67,1.5,1.5,1.5s1.5-0.67,1.5-1.5v-7
			C982,119.42,981.33,118.75,980.5,118.75L980.5,118.75z M980.5,104.75c-0.83,0-1.5,0.67-1.5,1.5v7c0,0.83,0.67,1.5,1.5,1.5
			s1.5-0.67,1.5-1.5v-7C982,105.42,981.33,104.75,980.5,104.75L980.5,104.75z M980.5,90.75c-0.83,0-1.5,0.67-1.5,1.5v7
			c0,0.83,0.67,1.5,1.5,1.5s1.5-0.67,1.5-1.5v-7C982,91.42,981.33,90.75,980.5,90.75L980.5,90.75z M980.5,76.75
			c-0.83,0-1.5,0.67-1.5,1.5v7c0,0.83,0.67,1.5,1.5,1.5s1.5-0.67,1.5-1.5v-7C982,77.42,981.33,76.75,980.5,76.75L980.5,76.75z
			 M980.5,62.75c-0.83,0-1.5,0.67-1.5,1.5v7c0,0.83,0.67,1.5,1.5,1.5s1.5-0.67,1.5-1.5v-7C982,63.42,981.33,62.75,980.5,62.75
			L980.5,62.75z M980.5,48.75c-0.83,0-1.5,0.67-1.5,1.5v7c0,0.83,0.67,1.5,1.5,1.5s1.5-0.67,1.5-1.5v-7
			C982,49.42,981.33,48.75,980.5,48.75L980.5,48.75z M979.21,34.41c-0.16,0-0.32,0.02-0.47,0.08c-0.78,0.26-1.21,1.1-0.95,1.89
			c0.63,1.9,1.03,3.91,1.17,5.98c0,0,0,0,0,0c0,0.01,0,0.02,0,0.02c0,0,0,0,0,0.01c0,0.02,0,0.05,0,0.07c0,0,0,0.01,0,0.01
			c0,0.01,0,0.01,0,0.02c0,0,0,0.01,0,0.01c0,0.01,0,0.01,0,0.02c0,0.01,0,0.01,0,0.02c0,0.01,0,0.02,0,0.03c0,0.01,0,0.01,0,0.02
			c0,0,0,0.01,0,0.01c0,0.01,0,0.01,0,0.02c0,0,0,0.01,0,0.01c0,0.01,0,0.02,0,0.03c0,0,0,0.01,0,0.01c0,0.01,0,0.02,0,0.03
			c0,0,0,0.01,0,0.01c0,0.02,0,0.05,0,0.07c0,0,0,0,0,0c0.01,0.15,0.01,0.31,0.02,0.46c0.02,0.81,0.69,1.46,1.5,1.46
			c0.01,0,0.03,0,0.04,0c0.83-0.02,1.48-0.71,1.46-1.54c-0.07-2.64-0.53-5.24-1.36-7.73C980.42,34.8,979.83,34.41,979.21,34.41
			L979.21,34.41z M970.76,22.42c-0.44,0-0.89,0.2-1.18,0.57c-0.51,0.65-0.4,1.59,0.25,2.11c0.44,0.34,0.86,0.7,1.27,1.07l0,0
			c0.03,0.02,0.05,0.05,0.08,0.07l0,0c0.03,0.02,0.05,0.05,0.08,0.07c0,0,0,0,0,0c0.03,0.02,0.05,0.05,0.08,0.07c0,0,0,0,0,0
			c0.02,0.02,0.03,0.03,0.05,0.05l0,0c0.01,0.01,0.02,0.02,0.03,0.02c0,0,0,0,0,0c0.02,0.01,0.03,0.03,0.05,0.04c0,0,0,0,0,0
			c0.01,0.01,0.02,0.02,0.02,0.02l0,0c0.02,0.01,0.03,0.03,0.05,0.04c0,0,0,0,0.01,0.01c0.01,0.01,0.02,0.01,0.02,0.02
			c0,0,0,0,0.01,0.01c0.01,0.01,0.03,0.03,0.04,0.04c0,0,0,0,0.01,0.01c0.02,0.02,0.05,0.05,0.07,0.07c0,0,0,0,0.01,0.01
			c0.02,0.02,0.05,0.04,0.07,0.07c0,0,0.01,0.01,0.01,0.01c0.02,0.02,0.05,0.04,0.07,0.07c0,0,0.01,0.01,0.01,0.01
			c0.02,0.02,0.04,0.04,0.07,0.07c0,0,0.01,0.01,0.01,0.01c0.01,0.01,0.02,0.02,0.04,0.04c0,0,0.01,0.01,0.01,0.01
			c0.01,0.01,0.01,0.01,0.02,0.02c0,0,0.01,0.01,0.01,0.01c0.01,0.01,0.02,0.02,0.03,0.03c0,0,0.01,0.01,0.01,0.01
			c0.01,0.01,0.01,0.01,0.02,0.02c0,0,0.01,0.01,0.01,0.01c0.01,0.01,0.03,0.03,0.04,0.04c0,0,0,0,0.01,0.01
			c0.01,0.01,0.01,0.01,0.02,0.02c0,0,0.01,0.01,0.01,0.01c0.01,0.01,0.02,0.02,0.04,0.04c0,0,0.01,0.01,0.01,0.01
			c0.01,0.01,0.01,0.01,0.02,0.02c0,0,0.01,0.01,0.01,0.01c0.01,0.01,0.02,0.02,0.04,0.04c0,0,0.01,0.01,0.01,0.01
			c0.01,0.01,0.01,0.01,0.02,0.02c0,0,0.01,0.01,0.01,0.01c0.01,0.01,0.02,0.03,0.04,0.04c0,0,0.01,0.01,0.01,0.01
			c0.01,0.01,0.01,0.01,0.02,0.02c0,0,0.01,0.01,0.01,0.01c0.01,0.01,0.02,0.03,0.04,0.04c0,0,0.01,0.01,0.01,0.01
			c0.01,0.01,0.01,0.01,0.02,0.02c0,0,0,0,0.01,0.01c0.01,0.01,0.03,0.03,0.04,0.04c0,0,0.01,0.01,0.01,0.01
			c0.01,0.01,0.01,0.01,0.02,0.02c0,0,0,0,0,0c0.01,0.01,0.03,0.03,0.04,0.04c0,0,0.01,0.01,0.01,0.01
			c0.02,0.02,0.04,0.05,0.07,0.07c0,0,0.01,0.01,0.01,0.01c0.02,0.02,0.04,0.05,0.07,0.07c0,0,0.01,0.01,0.01,0.01
			c0.02,0.02,0.04,0.05,0.07,0.07c0,0,0,0.01,0.01,0.01c0.02,0.02,0.04,0.05,0.07,0.07c0,0,0,0,0.01,0.01
			c0.02,0.02,0.04,0.05,0.07,0.08c0,0,0,0,0,0c0.02,0.03,0.05,0.05,0.07,0.08l0,0c0.57,0.65,1.11,1.33,1.61,2.04
			c0.29,0.41,0.76,0.64,1.23,0.64c0.3,0,0.6-0.09,0.86-0.27c0.68-0.48,0.84-1.41,0.36-2.09c-1.52-2.15-3.33-4.06-5.4-5.69
			C971.41,22.52,971.08,22.42,970.76,22.42L970.76,22.42z"/>
	</g>
	<g>
		<g>
			<path d="M530.03,210.08c-0.14,0.27-0.7,0.6-1.67,0.99c-0.81,0.31-1.45,0.53-1.92,0.65l-0.43-0.15l-0.25-0.53
				c0.08-0.81,0.39-1.87,0.93-3.19c0.43-1.03,0.87-2.07,1.3-3.1c-0.19-0.23-0.37-0.47-0.56-0.73c-0.19-0.26-0.3-0.5-0.34-0.73
				c0.08-0.21,0.38-0.47,0.9-0.77c0.25-0.14,0.61-0.33,1.08-0.56c0.54-1.47,1.08-2.93,1.64-4.4c1.12-2.91,1.99-5.05,2.63-6.42
				c1.05-2.23,1.89-3.48,2.51-3.75l0.56,0.71c-0.14,1.45-0.45,2.98-0.93,4.59c-0.17,0.56-0.66,1.96-1.49,4.22
				c-0.66,1.82-1.15,3.33-1.46,4.53l0.25,0.22c1.92-0.58,3.65-1.75,5.18-3.5c1.63-1.86,2.45-3.75,2.45-5.67
				c0-2.5-1.1-4.36-3.29-5.58c-1.74-0.97-3.96-1.46-6.67-1.46c-2.19,0-3.91,0.35-5.15,1.05c-0.99,0.93-1.98,1.86-2.98,2.79
				l-0.78-0.31c-0.04-0.08-0.09-0.19-0.16-0.31c-0.06-0.12-0.09-0.2-0.09-0.22c0-0.33,0.01-0.62,0.03-0.87
				c0.02-0.25,0.07-0.51,0.16-0.77c1.38-1.3,3.18-2.37,5.39-3.21c2.21-0.84,4.3-1.26,6.26-1.26c3.1,0,5.68,0.8,7.75,2.39
				c2.25,1.74,3.38,4.1,3.38,7.1c0,2.79-0.66,4.99-1.98,6.6c-0.99,1.22-2.6,2.3-4.84,3.25c-2,0.83-4,1.65-5.98,2.48
				c-0.35,0.89-0.69,1.78-1.01,2.67s-0.48,1.75-0.48,2.57C530,209.68,530.01,209.91,530.03,210.08z"/>
			<path d="M546.52,204.16c-0.43,0-0.76-0.24-0.99-0.73s-0.34-0.99-0.34-1.5c0-1.67,1.42-3.7,4.26-6.09
				c2.84-2.39,5.16-3.58,6.96-3.58c0.6,0,1.2,0.11,1.8,0.34c0.81,0.31,1.21,0.7,1.21,1.18c0,0.7-0.34,2.06-1.02,4.06
				c-0.68,2-1.02,3.56-1.02,4.68c0,0.19,0.06,0.44,0.17,0.76c0.11,0.32,0.18,0.56,0.2,0.73c-0.06,0.23-0.19,0.44-0.37,0.64
				c-0.19,0.2-0.39,0.29-0.62,0.29c-0.19,0-0.49-0.03-0.9-0.08c-0.41-0.05-0.69-0.08-0.84-0.08c-0.41,0-0.69-0.32-0.84-0.96
				c-0.15-0.64-0.22-1.41-0.22-2.29c0-0.25,0-0.48,0-0.68c0-0.21,0.01-0.39,0.03-0.56c-0.85,1.14-1.96,2.07-3.33,2.79
				C549.29,203.79,547.91,204.16,546.52,204.16z M549.56,201.33c0,0.23,0.09,0.34,0.28,0.34c0.79,0,2.11-1.03,3.97-3.1
				c1.86-2.07,2.79-3.49,2.79-4.28c0-0.14-0.11-0.22-0.34-0.22c-0.89,0-2.23,0.97-4.01,2.9
				C550.46,198.91,549.56,200.36,549.56,201.33z"/>
			<path d="M566.43,194.92c0.54,0.89,1.02,1.72,1.44,2.5s0.64,1.49,0.64,2.15c0,1.34-0.7,2.47-2.11,3.38
				c-1.24,0.81-2.57,1.21-4,1.21c-0.66,0-1.24-0.09-1.74-0.28c-0.72-0.27-1.08-0.67-1.08-1.21c0-0.5,0.26-1.08,0.79-1.77
				s1.03-1.02,1.5-1.02c0.41,0,0.83,0.37,1.25,1.1c0.42,0.73,0.8,1.1,1.13,1.1c0.25,0,0.37-0.17,0.37-0.5c0-1.24-0.36-2.4-1.08-3.47
				c-0.72-1.07-1.08-1.78-1.08-2.11c0-0.74,0.7-1.71,2.09-2.9c1.4-1.19,2.5-1.78,3.3-1.78c0.31,0,0.62,0.08,0.93,0.25
				c0.31,0.17,0.46,0.39,0.46,0.68c0,0.64-0.06,1.17-0.19,1.58c-0.19,0.66-0.53,0.99-1.02,0.99c-0.31,0-0.57-0.06-0.78-0.17
				c-0.21-0.11-0.42-0.29-0.65-0.54C566.49,194.4,566.43,194.67,566.43,194.92z"/>
			<path d="M574.14,199.97c0,0.39,0.12,0.71,0.37,0.96s0.58,0.37,0.99,0.37c0.37,0,0.79-0.08,1.27-0.25
				c0.81-0.29,1.22-0.43,1.24-0.43l0.43,0.22l0.19,0.43c-0.27,0.81-1.02,1.5-2.26,2.08c-1.1,0.52-2.12,0.77-3.07,0.77
				c-0.91,0-1.64-0.35-2.2-1.05c-0.56-0.7-0.84-1.53-0.84-2.48c0-0.35,0.19-0.98,0.56-1.89c0.27-0.66,0.55-1.32,0.84-1.98
				c-0.21,0-0.41,0-0.62,0c-0.25-0.04-0.42-0.17-0.53-0.37c0.1-0.39,0.43-0.79,0.99-1.18c0.76-0.54,1.19-0.86,1.29-0.98
				c0.09-0.11,0.18-0.25,0.26-0.42c0.08-0.17,0.14-0.29,0.19-0.37c0.33-0.7,0.65-1.37,0.96-2.02c0.64-1.3,1.09-2.04,1.36-2.2
				c0.08-0.04,0.28-0.1,0.6-0.19s0.56-0.17,0.73-0.25c0.31-0.17,0.49-0.26,0.53-0.28c0.21-0.08,0.4-0.12,0.59-0.12
				c0.31,0,0.52,0.14,0.62,0.42c0.1,0.28,0.16,0.61,0.16,1.01c0,0.12-0.07,0.31-0.22,0.56s-0.28,0.48-0.4,0.68l-1.55,3.01
				c0.43,0,0.8,0.02,1.1,0.05c0.3,0.03,0.58,0.11,0.85,0.23l0.16,0.47c0,0.43-0.24,0.88-0.73,1.35c-0.49,0.47-0.95,0.7-1.38,0.7
				h-1.46c-0.37,0.76-0.64,1.4-0.79,1.89C574.22,199.2,574.14,199.62,574.14,199.97z"/>
			<path d="M586.39,202.54c0.27,0,0.56-0.05,0.87-0.15c0.91-0.31,1.38-0.47,1.43-0.47l0.46,0.16l0.16,0.4c0,0.52-0.6,0.98-1.8,1.4
				c-0.97,0.33-1.8,0.5-2.48,0.5c-0.31,0-0.53-0.02-0.67-0.05c-0.13-0.03-0.58-0.17-1.35-0.42c-0.89-0.25-1.78-0.5-2.67-0.74
				c-0.68-0.35-1.02-1.16-1.02-2.42c0-1.84,1.02-3.78,3.07-5.83s4-3.07,5.86-3.07c0.54,0,0.96,0.19,1.25,0.57
				c0.3,0.38,0.45,0.86,0.45,1.44c0,0.56-0.04,0.98-0.11,1.26c-0.07,0.28-0.2,0.54-0.39,0.79c-0.37,0.76-0.73,1.53-1.08,2.29
				c-0.62,0.79-1.3,1.45-2.05,1.98c-0.74,0.54-1.57,0.91-2.48,1.12C584.57,202.13,585.42,202.54,586.39,202.54z M583.72,198.89
				c0,0.35,0.12,0.53,0.37,0.53c0.48,0,1.21-0.59,2.2-1.77c0.99-1.18,1.49-2.09,1.49-2.73c0-0.41-0.16-0.62-0.47-0.62
				c-0.7,0-1.48,0.58-2.32,1.75C584.15,197.22,583.72,198.16,583.72,198.89z"/>
			<path d="M599.91,185.62l0.16,0.4c0,0.62-0.43,1.89-1.3,3.8c-0.87,1.91-1.71,3.79-2.54,5.63c-0.91,2.13-1.36,3.64-1.36,4.53
				c0,0.15,0.02,0.25,0.05,0.33c0.03,0.07,0.1,0.19,0.2,0.36l0.62,0.28c0.46,0,0.92-0.17,1.4-0.5c0.68-0.48,1.37-0.96,2.08-1.46
				l0.34,0.19l0.16,0.46c0,0.76-0.82,1.71-2.45,2.82c-1.63,1.12-2.85,1.67-3.66,1.67c-0.12,0-0.6-0.26-1.43-0.79
				c-0.83-0.53-1.24-0.85-1.24-0.98c0-1.55,0.37-3.32,1.12-5.3c0.68-1.63,1.36-3.27,2.05-4.9c0.76-1.9,1.15-3.47,1.15-4.71
				c0.14-0.23,0.79-0.6,1.95-1.13s1.95-0.82,2.39-0.88L599.91,185.62z"/>
			<path d="M606.85,202.54c0.27,0,0.56-0.05,0.87-0.15c0.91-0.31,1.38-0.47,1.43-0.47l0.46,0.16l0.16,0.4c0,0.52-0.6,0.98-1.8,1.4
				c-0.97,0.33-1.8,0.5-2.48,0.5c-0.31,0-0.53-0.02-0.67-0.05c-0.13-0.03-0.58-0.17-1.35-0.42c-0.89-0.25-1.78-0.5-2.67-0.74
				c-0.68-0.35-1.02-1.16-1.02-2.42c0-1.84,1.02-3.78,3.07-5.83s4-3.07,5.86-3.07c0.54,0,0.96,0.19,1.25,0.57
				c0.3,0.38,0.45,0.86,0.45,1.44c0,0.56-0.04,0.98-0.11,1.26c-0.07,0.28-0.2,0.54-0.39,0.79c-0.37,0.76-0.73,1.53-1.08,2.29
				c-0.62,0.79-1.3,1.45-2.05,1.98c-0.74,0.54-1.57,0.91-2.48,1.12C605.03,202.13,605.88,202.54,606.85,202.54z M604.18,198.89
				c0,0.35,0.12,0.53,0.37,0.53c0.48,0,1.21-0.59,2.2-1.77c0.99-1.18,1.49-2.09,1.49-2.73c0-0.41-0.16-0.62-0.47-0.62
				c-0.7,0-1.48,0.58-2.32,1.75C604.61,197.22,604.18,198.16,604.18,198.89z"/>
			<path d="M617.45,194.92c0.54,0.89,1.02,1.72,1.44,2.5s0.64,1.49,0.64,2.15c0,1.34-0.7,2.47-2.11,3.38
				c-1.24,0.81-2.57,1.21-4,1.21c-0.66,0-1.24-0.09-1.74-0.28c-0.72-0.27-1.08-0.67-1.08-1.21c0-0.5,0.26-1.08,0.79-1.77
				s1.03-1.02,1.5-1.02c0.41,0,0.83,0.37,1.25,1.1c0.42,0.73,0.8,1.1,1.13,1.1c0.25,0,0.37-0.17,0.37-0.5c0-1.24-0.36-2.4-1.08-3.47
				c-0.72-1.07-1.08-1.78-1.08-2.11c0-0.74,0.7-1.71,2.09-2.9c1.4-1.19,2.5-1.78,3.3-1.78c0.31,0,0.62,0.08,0.93,0.25
				c0.31,0.17,0.46,0.39,0.46,0.68c0,0.64-0.06,1.17-0.19,1.58c-0.19,0.66-0.53,0.99-1.02,0.99c-0.31,0-0.57-0.06-0.78-0.17
				c-0.21-0.11-0.42-0.29-0.65-0.54C617.51,194.4,617.45,194.67,617.45,194.92z"/>
		</g>
	</g>
	<g>
		<g>
			<path d="M683.94,210.76c-0.14,0-0.33-0.08-0.56-0.25c-0.23-0.17-0.34-0.33-0.34-0.5c0-1.94,0.67-3.83,2.01-5.67
				c1.12-1.55,2.68-3.04,4.68-4.46c1.49-1.07,3.27-2.13,5.33-3.16c0.43-1.26,0.83-2.47,1.18-3.64c0.35-1.17,0.67-2.34,0.96-3.52
				c-1.74,1.92-3.63,3.81-5.67,5.67c-2.75,2.5-5.24,4.43-7.47,5.8c-2.85,1.76-5.26,2.64-7.22,2.64c-0.52,0-0.92-0.18-1.19-0.53
				c-0.28-0.35-0.42-0.81-0.42-1.36c0-1.43,0.64-3.14,1.92-5.15c0.19-0.29,1.46-2.04,3.81-5.24c1.51-2.05,2.43-3.68,2.76-4.9
				c-0.23-0.27-0.36-0.5-0.4-0.68c0.37-0.5,1.34-1.09,2.9-1.8c1.56-0.7,2.65-1.05,3.27-1.05c0.27,0.08,0.44,0.13,0.53,0.15
				l0.34,0.68c-0.46,1.2-1.52,2.77-3.19,4.71c-2.46,2.87-3.92,4.63-4.37,5.27c-1.57,2.19-2.54,4.28-2.91,6.26l0.46,0.59
				c1.86,0,4.33-1.45,7.41-4.34c2.67-2.75,5.33-5.51,8-8.28c3.04-3.1,5.31-4.78,6.82-5.05l0.56,0.59c-0.06,0.64-0.37,1.79-0.93,3.44
				c-0.45,1.34-1.01,2.92-1.67,4.74c-0.87,2.4-1.34,3.71-1.43,3.94c0.52-0.14,1.03-0.3,1.55-0.47c0.81-0.23,1.33-0.34,1.58-0.34
				c0.54,0,0.81,0.3,0.81,0.9c0,0.08-0.03,0.19-0.09,0.31c-0.06,0.12-0.11,0.24-0.16,0.34c-0.58,0.27-1.28,0.52-2.09,0.74
				c-0.82,0.23-1.6,0.44-2.34,0.65c-1.28,3.06-3.19,5.87-5.74,8.43C689.62,209.25,686.73,210.76,683.94,210.76z M686.14,206.26
				c-0.1,0.21-0.2,0.41-0.28,0.6c-0.08,0.2-0.12,0.36-0.12,0.48c0,0.19,0.11,0.34,0.33,0.45c0.22,0.11,0.44,0.17,0.67,0.17
				c0.79,0,1.98-0.97,3.6-2.91c1.38-1.67,2.35-3.05,2.88-4.12l0.81-1.67c-1.84,0.95-3.34,1.9-4.5,2.85
				C688.01,203.35,686.89,204.73,686.14,206.26z"/>
			<path d="M712.52,191.17c0.43,0,0.96,0.4,1.58,1.21s0.93,1.45,0.93,1.92c0,1.38-0.16,2.73-0.48,4.05
				c-0.32,1.31-1.31,2.61-2.96,3.89c-1.65,1.28-3.17,1.92-4.56,1.92c-0.72,0-1.37-0.21-1.95-0.62c-0.66-0.48-0.99-1.06-0.99-1.77
				c0-0.62,0.1-1.36,0.29-2.23c0.2-0.87,0.44-1.53,0.73-1.98c0.62-0.93,1.38-1.86,2.29-2.79c1.16-1.18,2.12-1.86,2.88-2.05
				c0.14-0.37,0.46-0.72,0.93-1.05C711.7,191.33,712.13,191.17,712.52,191.17z M708.15,200.93c0,0.27,0.04,0.52,0.12,0.74
				c0.08,0.23,0.23,0.34,0.43,0.34c0.6,0,1.21-0.3,1.83-0.9c0.81-0.79,1.49-1.84,2.05-3.16c-0.95-0.83-1.61-1.83-1.98-3.01
				c-0.54,0.66-1.08,1.63-1.63,2.9S708.15,200.15,708.15,200.93z"/>
			<path d="M720.21,202.73c-0.52,0.31-1.03,0.62-1.55,0.93c-0.25,0.21-0.45,0.34-0.6,0.4c-0.15,0.06-0.32,0.09-0.48,0.09
				c-0.33,0-0.71-0.23-1.13-0.7c-0.42-0.46-0.64-0.86-0.64-1.19c0-0.72,0.4-2.34,1.19-4.85c0.8-2.51,1.41-3.99,1.84-4.45
				c0.14-0.14,0.56-0.41,1.24-0.79c0.68-0.38,1.12-0.57,1.3-0.57c0.25,0,0.5,0.25,0.74,0.74c0.08,0.17,0.23,0.54,0.43,1.12
				c-0.91,2.15-1.81,4.29-2.7,6.42c0,0.31,0.12,0.46,0.37,0.46c0.39,0,0.99-0.66,1.8-1.98c0.74-1.24,1.5-2.48,2.26-3.72
				c0.93-1.32,1.76-1.98,2.48-1.98c0.27,0,0.5,0.22,0.68,0.65c0.19,0.43,0.28,0.82,0.28,1.15c0,0.6-0.09,1.35-0.28,2.26
				c-0.41,2.03-0.62,3.29-0.62,3.78c0,0.21,0.05,0.49,0.14,0.85c0.09,0.36,0.15,0.62,0.17,0.76c-0.17,0.39-0.55,0.84-1.15,1.35
				c-0.6,0.51-1.1,0.76-1.49,0.76c-0.21,0-0.46-0.17-0.76-0.51c-0.3-0.34-0.45-0.63-0.45-0.85c0-0.66,0.05-1.35,0.16-2.08
				c0.1-0.72,0.21-1.44,0.31-2.14c-0.54,0.7-1.07,1.41-1.61,2.11C721.4,201.68,720.75,202.34,720.21,202.73z"/>
		</g>
	</g>
	<g>
		<g>
			<path d="M665.62,197.68l0.64,1.12c-0.27,2.19-1.17,3.71-2.72,4.56c-1.17,0.64-2.91,0.96-5.2,0.96c-0.48,0-1.27-0.03-2.36-0.08
				c-1.09-0.05-1.91-0.08-2.44-0.08c-1.71,3.57-2.75,5.68-3.12,6.32c-1.76,2.83-4.69,4.59-8.8,5.28c-1.28-0.37-1.92-1.17-1.92-2.4
				c0-0.27,0.72-1.76,2.16-4.48c0.85-1.55,1.71-3.12,2.56-4.72l-14.64,0.16h-0.96c-0.53,0-0.99-0.07-1.36-0.2
				c-0.37-0.13-0.67-0.41-0.88-0.84c0.16-0.59,0.32-1.2,0.48-1.84c0.37-1.17,0.8-2.24,1.28-3.2c0.96-1.87,2.24-3.87,3.84-6
				c4.43-5.87,6.85-9.2,7.28-10c0.96-2.03,1.73-3.68,2.32-4.96c1.12-2.4,1.97-3.79,2.56-4.16c0.11-0.11,0.91-0.49,2.4-1.16
				c1.49-0.67,2.4-1.05,2.72-1.16c0.64,0.16,1.2,0.43,1.68,0.8c0.48,0.37,0.72,0.88,0.72,1.52c0,3.15-3.01,8.56-9.04,16.24
				c-3.47,4.27-5.65,6.96-6.56,8.08h11.36l8.32-16.48c1.76-3.52,2.96-5.6,3.6-6.24c1.12-1.23,3.33-2.27,6.64-3.12
				c0.64,0.32,0.96,0.75,0.96,1.28c0,0.53-1.04,3.2-3.12,8c-2.83,6.56-5.31,12.08-7.44,16.56c0.85,0,1.71,0,2.56,0
				c0.85,0,1.71-0.03,2.56-0.08c0.8,0,1.63,0,2.48,0C664.82,197.52,665.3,197.62,665.62,197.68z"/>
		</g>
	</g>
	<path class="st2" d="M330.51,114.42c-8.55-5.78-19.11-21.62-13.08-30.93c6.03-9.3,23.89-4.78,23.89-4.78s6.29-9.3,28.27-9.3
		c12.7,0,19,9.56,19,9.56s13.28-1.6,13.92,11.83c0.35,7.28-9.51,17.76-9.51,17.76"/>
	<path class="st2" d="M335.29,132.27c0,0-8.3-16.6-6.29-21.12s19.36-9.05,34.07-9.81c14.71-0.75,27.53,2.77,29.29,4.53
		c1.76,1.76,0,23.64,0,23.64L335.29,132.27z"/>
	<path class="st3" d="M441.96,123.75l2,52.64l36.45-1.39c0,0-1.27-34.55-5.08-38.18c-11.77-11.21-19.81-13.59-19.81-13.59
		L441.96,123.75z"/>
	<path class="st3" d="M459.98,154.01c6.53-0.24,7.52,9.83,7.96,21.46c0.44,11.64-0.34,44.61,0.9,57.21
		c1.23,12.6,5.59,29.73,6.01,40.79c0.42,11.06-12.41,11.01-12.87-1.04c-0.46-12.05-0.39-24.83-0.81-39.76
		c-0.42-14.92-5.98-43.83-6.67-57.58C453.86,162.41,454.96,154.2,459.98,154.01z"/>
	<path class="st4" d="M441.96,123.75l2,52.64l36.45-1.39c0,0-1.27-34.55-5.08-38.18c-11.77-11.21-19.81-13.59-19.81-13.59
		L441.96,123.75z"/>
	<g>
		<path class="st5" d="M369.6,133.28c0,0,1.15-6.29-24.5-8.55c-24.05-2.12-50.56,18.23-56.32,39.98
			c-5.53,20.87-0.75,31.43,3.77,42.75c4.53,11.32,5.93,23.26-1.62,27.93c-5.67,3.51-12.46,0.74-12.46,0.74s7.04,12.57,15.84,14.58
			c8.8,2.01,40.99-7.54,62.74-5.28c21.75,2.26,53.98-1.43,67.26-6.54c9.81-3.77,13.08-12.32,13.08-12.32s-6.76,1.46-11.54-3.32
			c-4.78-4.78-2.14-15.09,2.23-24.84c6.23-13.89,8.21-38.65,1.42-50.22c-6.79-11.57-26.56-27.23-42.91-26.98
			c-16.34,0.25-25.96,4.78-25.96,4.78c-2.71,0.85-15.53-1.26-15.53-1.26"/>
		<path d="M369.6,133.28c0.02-1.01-0.7-1.83-1.4-2.47c-0.74-0.64-1.58-1.16-2.45-1.59c-1.76-0.87-3.63-1.47-5.52-1.97
			c-3.79-0.98-7.68-1.56-11.57-1.98c-7.77-1.13-15.72-0.14-23.03,2.59c-3.67,1.33-7.17,3.07-10.5,5.1
			c-3.34,2.02-6.46,4.36-9.38,6.94c-2.92,2.57-5.62,5.39-8.01,8.47c-2.4,3.06-4.46,6.38-6.09,9.9c-0.81,1.76-1.52,3.57-2.06,5.43
			c-0.29,0.92-0.52,1.87-0.74,2.82c-0.22,0.95-0.49,1.89-0.65,2.85c-0.82,3.81-1.3,7.69-1.39,11.57c-0.08,3.88,0.27,7.77,1.14,11.56
			c0.86,3.79,2.14,7.48,3.59,11.11c0.71,1.82,1.47,3.63,2.16,5.48c0.69,1.85,1.28,3.74,1.78,5.66c0.96,3.83,1.59,7.83,1.11,11.84
			c-0.26,1.99-0.83,3.99-1.91,5.74c-1.07,1.76-2.7,3.16-4.53,4.06c-1.84,0.9-3.9,1.29-5.92,1.28c-2.03-0.02-4.01-0.36-5.95-1.07
			l0.62-0.71c1.78,3.02,3.92,5.91,6.36,8.45c2.44,2.51,5.28,4.79,8.6,5.74c1.63,0.47,3.41,0.44,5.17,0.37
			c1.76-0.09,3.53-0.26,5.3-0.48c3.53-0.44,7.06-1,10.59-1.56c7.06-1.13,14.13-2.27,21.26-3.02c7.12-0.75,14.34-1.15,21.51-0.4
			c7.09,0.67,14.24,0.73,21.36,0.48c7.13-0.26,14.25-0.88,21.32-1.82c7.06-0.95,14.12-2.18,20.92-4.24c1.67-0.58,3.37-1.09,4.92-1.9
			c1.57-0.78,3.04-1.75,4.39-2.86c2.67-2.23,4.93-5.09,6.31-8.24l0.57,0.67c-1.85,0.32-3.66,0.28-5.46-0.05
			c-1.79-0.35-3.54-1.05-5.03-2.13c-0.75-0.54-1.43-1.14-2.04-1.88c-0.59-0.73-1.05-1.56-1.38-2.43c-0.65-1.75-0.82-3.6-0.76-5.4
			c0.15-3.62,1.08-7.1,2.22-10.46c0.58-1.68,1.22-3.34,1.92-4.97c0.71-1.64,1.42-3.21,2-4.87c2.34-6.6,3.6-13.57,4.1-20.57
			c0.44-6.98,0.2-14.12-1.82-20.79c-0.52-1.66-1.17-3.27-2.02-4.77c-0.85-1.51-1.86-2.94-2.93-4.32c-2.15-2.75-4.59-5.29-7.19-7.63
			c-2.61-2.34-5.38-4.5-8.29-6.45c-2.9-1.96-5.95-3.72-9.14-5.16c-3.19-1.44-6.52-2.59-9.96-3.19c-3.43-0.66-6.96-0.47-10.48-0.25
			c-3.51,0.25-7.01,0.68-10.46,1.39c-3.44,0.71-6.87,1.61-10.11,2.97l-0.01,0.01l0,0c-1.32,0.31-2.63,0.18-3.93,0.12
			c-1.3-0.08-2.6-0.22-3.9-0.37c-2.59-0.31-5.17-0.69-7.74-1.12c2.58,0.39,5.16,0.74,7.75,1c1.3,0.13,2.59,0.25,3.89,0.31
			c1.29,0.04,2.63,0.14,3.85-0.17l-0.01,0.01c3.25-1.43,6.67-2.37,10.13-3.14c3.46-0.76,6.97-1.25,10.5-1.55l2.65-0.18l2.65-0.1
			c1.79-0.04,3.57,0.11,5.33,0.39c3.53,0.56,6.94,1.68,10.19,3.1c6.52,2.86,12.48,6.89,17.75,11.65c2.64,2.38,5.11,4.95,7.31,7.76
			c1.09,1.41,2.12,2.87,3.01,4.44c0.89,1.58,1.56,3.25,2.1,4.96c2.07,6.88,2.31,14.1,1.86,21.16c-0.51,7.08-1.78,14.12-4.16,20.84
			c-0.59,1.68-1.33,3.33-2.02,4.92c-0.69,1.61-1.32,3.25-1.9,4.9c-1.12,3.31-2.03,6.72-2.17,10.17c-0.06,1.72,0.11,3.45,0.7,5.01
			c0.56,1.59,1.67,2.86,3.07,3.85c2.74,1.98,6.41,2.57,9.71,2.02l0.93-0.16l-0.36,0.82c-1.49,3.41-3.8,6.3-6.6,8.65
			c-1.4,1.17-2.94,2.17-4.58,2.99c-1.63,0.85-3.37,1.37-5.07,1.96c-6.9,2.09-13.98,3.32-21.08,4.28
			c-7.11,0.94-14.25,1.57-21.41,1.83c-7.16,0.25-14.35,0.19-21.5-0.48c-7.07-0.74-14.22-0.34-21.31,0.4
			c-7.09,0.75-14.15,1.88-21.21,3.01c-3.53,0.56-7.07,1.12-10.63,1.56c-1.78,0.22-3.57,0.4-5.38,0.49c-1.8,0.07-3.66,0.12-5.48-0.41
			c-3.6-1.05-6.54-3.44-9.05-6.01c-2.51-2.62-4.66-5.52-6.51-8.65l-0.7-1.18l1.32,0.47c3.52,1.25,7.67,1.47,11.06-0.18
			c1.68-0.83,3.14-2.08,4.12-3.68c0.99-1.6,1.52-3.45,1.77-5.34c0.46-3.81-0.13-7.71-1.08-11.46c-0.49-1.88-1.07-3.74-1.75-5.56
			c-0.67-1.82-1.44-3.63-2.15-5.46c-1.46-3.65-2.77-7.39-3.64-11.26c-0.89-3.86-1.24-7.84-1.16-11.8c0.09-3.96,0.57-7.9,1.41-11.76
			c0.17-0.97,0.44-1.92,0.66-2.88c0.23-0.96,0.46-1.92,0.76-2.87c0.56-1.91,1.28-3.76,2.11-5.56c1.66-3.6,3.77-6.98,6.21-10.1
			c2.42-3.13,5.15-6.02,8.13-8.61c2.97-2.61,6.2-4.92,9.6-6.92c3.4-2,6.98-3.72,10.71-5c3.72-1.3,7.59-2.23,11.51-2.61
			c1.96-0.23,3.94-0.24,5.91-0.21c1.97,0.11,3.92,0.3,5.87,0.54c3.9,0.47,7.79,1.11,11.58,2.15c1.89,0.53,3.76,1.16,5.51,2.06
			c0.87,0.45,1.71,0.98,2.44,1.64C368.92,131.43,369.63,132.27,369.6,133.28z"/>
	</g>
	<path class="st6" d="M357.04,203.94c0,0,2.58,12.07,1.26,18.67S354.9,236,354.9,236h26.4c0,0-7.73-6.03-8.49-17.73
		c-0.75-11.69,0.94-15.84,0.94-15.84L357.04,203.94z"/>
	<path class="st6" d="M463.91,235.95c-6.5,2.47-29.79,30.09-37.09,43.17c-5.73,10.27-9.58-9.3-9.58-9.3s29.69-29.17,30.45-41.74
		c0.75-12.57,13.83-13.33,17.6-3.77C469.06,233.86,463.91,235.95,463.91,235.95z"/>
	<path class="st6" d="M464.29,212.62c0,0,10.81-2.64,14.84,1.51s1.01,21.75-2.77,26.9c-3.77,5.15-19.36,2.64-19.36,2.64
		s1.97-14.63-2.03-23.23"/>
	<g>
		<path class="st7" d="M451.46,229.08c1.96-3.93,3.27-5.28,5.53-5.53c2.26-0.25,7.2,10.35,7.2,10.35s9.9-10.1,0.09-21.28
			c-4.66-5.31-17.35,0.62-20.62,2.13c-3.27,1.51-4.78,9.56-2.26,14.08c2.51,4.53,2.77,5.53-2.01,10.06
			c-4.78,4.53-32.46,20.12-32.46,20.12c1.03,6.54,14.61,20.12,14.61,20.12"/>
		<path d="M451.46,229.08c0.77-1.57,1.51-3.21,2.8-4.48c0.64-0.63,1.5-1.07,2.41-1.23c0.12-0.02,0.21-0.04,0.35-0.06
			c0.15-0.02,0.28,0.01,0.41,0.04c0.25,0.07,0.46,0.2,0.66,0.33c0.39,0.28,0.71,0.6,1.01,0.93c1.2,1.35,2.14,2.86,3.06,4.37
			c0.92,1.52,1.75,3.07,2.49,4.69l-0.81-0.14c2.95-3.29,4.8-7.88,4.15-12.3c-0.29-2.21-1.2-4.31-2.44-6.18
			c-0.33-0.46-0.64-0.93-1-1.36c-0.36-0.44-0.71-0.88-1.09-1.22c-0.8-0.68-1.8-1.13-2.87-1.34c-2.15-0.42-4.45-0.11-6.65,0.38
			c-2.21,0.51-4.38,1.26-6.5,2.12c-1.06,0.43-2.11,0.89-3.15,1.37l-0.39,0.18c-0.1,0.06-0.22,0.1-0.32,0.18
			c-0.21,0.13-0.4,0.3-0.58,0.48c-0.36,0.37-0.67,0.81-0.93,1.29c-1.02,1.93-1.43,4.23-1.39,6.45c0.02,1.12,0.18,2.23,0.49,3.28
			c0.16,0.53,0.36,1.04,0.61,1.52l0.82,1.53c0.51,1.04,1.11,2.15,1.1,3.5c-0.03,1.38-0.82,2.48-1.57,3.38
			c-0.77,0.91-1.6,1.72-2.46,2.53c-0.9,0.81-1.84,1.49-2.79,2.17c-1.9,1.33-3.85,2.59-5.8,3.83c-7.84,4.91-15.84,9.54-23.87,14.11
			l0.25-0.51c0.36,1.91,1.42,3.75,2.51,5.49c1.08,1.76,2.27,3.47,3.52,5.13c2.52,3.32,5.23,6.51,8.08,9.57
			c-3.01-2.91-5.9-5.94-8.62-9.14c-1.35-1.61-2.67-3.25-3.84-5.02c-0.59-0.88-1.1-1.82-1.57-2.78c-0.46-0.97-0.88-1.98-1.07-3.09
			l-0.06-0.34l0.31-0.17c8.02-4.56,16.02-9.19,23.83-14.09c1.95-1.23,3.88-2.48,5.76-3.8c0.93-0.66,1.86-1.34,2.68-2.08
			c0.83-0.78,1.65-1.58,2.37-2.43c0.71-0.85,1.32-1.78,1.34-2.76c0.02-0.98-0.48-2.02-0.99-3.02l-0.82-1.52
			c-0.28-0.54-0.51-1.11-0.68-1.69c-0.34-1.16-0.5-2.36-0.53-3.55c-0.03-2.38,0.37-4.79,1.51-6.95c0.29-0.54,0.65-1.05,1.1-1.51
			c0.22-0.23,0.47-0.44,0.75-0.62c0.13-0.1,0.29-0.16,0.44-0.25l0.39-0.18c1.05-0.49,2.12-0.96,3.2-1.39
			c2.16-0.87,4.37-1.64,6.66-2.17c2.28-0.51,4.67-0.85,7.08-0.39c1.19,0.22,2.38,0.74,3.33,1.56c0.93,0.88,1.57,1.8,2.27,2.78
			c1.31,1.97,2.29,4.21,2.6,6.6c0.34,2.37,0.03,4.82-0.78,7.05c-0.82,2.24-2.02,4.29-3.65,6.09l-0.48,0.53l-0.33-0.67
			c-0.77-1.56-1.54-3.13-2.35-4.68c-0.82-1.54-1.67-3.07-2.74-4.42c-0.27-0.33-0.56-0.65-0.87-0.9c-0.16-0.13-0.33-0.23-0.49-0.29
			c-0.08-0.03-0.17-0.05-0.24-0.04c-0.09,0-0.2,0.02-0.31,0.03c-0.84,0.1-1.63,0.45-2.28,1.01
			C453.16,225.96,452.31,227.56,451.46,229.08z"/>
	</g>
	<g>
		<path class="st7" d="M370.62,140.87c0,0,4.19,8.38-8.38,14.67c-12.57,6.29-35.62-2.1-46.1,8.38s-8.25,35.55,19.4,43.42
			c24.78,7.05,52.68,4.65,66.51-5.7c7.15-5.35,14.67-25.15,2.1-37.72c-12.57-12.57-34.42-14.53-34.42-14.53
			C370.86,146.98,371.75,144.66,370.62,140.87z"/>
		<path d="M370.62,140.87c1.17,2.61,0.87,5.77-0.58,8.24c-1.44,2.51-3.75,4.39-6.19,5.84c-1.23,0.73-2.52,1.38-3.89,1.86
			c-1.36,0.47-2.76,0.82-4.17,1.08c-2.83,0.5-5.69,0.69-8.54,0.77c-5.7,0.13-11.38-0.23-16.99,0.3c-2.8,0.26-5.57,0.76-8.17,1.76
			c-1.29,0.51-2.52,1.15-3.65,1.93c-1.13,0.79-2.12,1.75-3.01,2.8c-3.53,4.28-4.98,10.09-4.47,15.61
			c0.47,5.55,2.88,10.89,6.59,15.05c3.7,4.2,8.59,7.25,13.81,9.28c2.61,1.04,5.34,1.76,8.08,2.45c2.75,0.67,5.52,1.22,8.31,1.67
			c11.16,1.75,22.63,1.9,33.74-0.18c5.53-1.07,10.98-2.73,15.94-5.37c1.23-0.68,2.44-1.39,3.57-2.2c1.18-0.77,2.15-1.7,3.05-2.77
			c1.77-2.13,3.13-4.61,4.17-7.2c2.04-5.19,2.79-10.97,1.63-16.43c-0.57-2.72-1.67-5.32-3.21-7.63c-1.55-2.3-3.54-4.3-5.74-6.04
			c-2.18-1.76-4.58-3.25-7.05-4.59c-2.46-1.36-5.05-2.5-7.69-3.5c-5.29-1.96-10.83-3.37-16.44-4.09l-0.17-0.02l0.07-0.15
			c0.64-1.31,1.22-2.67,1.4-4.12C371.22,143.76,371.01,142.28,370.62,140.87z M370.62,140.87c0.43,1.4,0.68,2.88,0.52,4.36
			c-0.14,1.48-0.69,2.88-1.3,4.22l-0.1-0.17c5.67,0.57,11.26,1.82,16.67,3.65c5.38,1.86,10.65,4.35,15.12,8
			c2.24,1.78,4.32,3.85,5.94,6.27c1.6,2.42,2.76,5.14,3.35,7.98c1.22,5.69,0.43,11.65-1.67,17c-1.07,2.67-2.47,5.24-4.33,7.48
			c-0.92,1.11-2.04,2.15-3.24,2.94c-1.17,0.84-2.42,1.57-3.67,2.26c-5.09,2.7-10.62,4.38-16.23,5.47
			c-11.25,2.11-22.82,1.95-34.08,0.19c-2.82-0.45-5.62-1.02-8.39-1.69c-2.76-0.69-5.54-1.42-8.21-2.49
			c-5.33-2.08-10.36-5.21-14.19-9.55c-3.85-4.3-6.36-9.85-6.84-15.63c-0.52-5.74,0.96-11.8,4.7-16.33c0.94-1.11,2-2.15,3.2-2.99
			c1.21-0.83,2.51-1.5,3.86-2.04c2.72-1.04,5.58-1.55,8.44-1.82c5.72-0.51,11.41-0.23,17.07-0.29c2.83,0,5.65-0.11,8.43-0.52
			c1.39-0.22,2.76-0.52,4.1-0.94c1.33-0.42,2.6-1.02,3.84-1.7c2.45-1.36,4.75-3.13,6.23-5.54
			C371.31,146.61,371.71,143.51,370.62,140.87z"/>
	</g>
	<g>
		<path d="M357.04,180.93c0.99-1.28,2.15-2.45,3.45-3.45c1.31-0.97,2.76-1.9,4.57-2.07c1.87-0.08,3.39,0.9,4.68,1.89
			c1.28,1.04,2.37,2.27,3.27,3.62c-1.19-1.1-2.43-2.11-3.73-3c-0.66-0.42-1.33-0.82-2.03-1.1c-0.69-0.3-1.43-0.48-2.12-0.42
			c-1.43,0.1-2.86,0.9-4.19,1.71C359.61,178.98,358.31,179.92,357.04,180.93z"/>
	</g>
	<g>
		<path d="M344.85,187.97c0.1-0.24,0.41-0.22,0.61-0.18c0.23,0.05,0.44,0.12,0.65,0.2c0.42,0.16,0.83,0.36,1.24,0.55
			c0.82,0.38,1.63,0.77,2.46,1.13c1.64,0.74,3.3,1.4,5.01,1.93c3.41,1.05,6.95,1.66,10.51,1.7c3.55,0.02,7.14-0.35,10.57-1.27
			c1.71-0.46,3.39-1.1,4.93-1.98c0.78-0.43,1.53-0.92,2.24-1.46l1.08-0.82c0.19-0.13,0.38-0.27,0.62-0.31
			c0.27-0.05,0.44,0.21,0.51,0.4c-0.1-0.19-0.29-0.4-0.5-0.32c-0.2,0.06-0.37,0.22-0.54,0.36l-1,0.91
			c-0.67,0.61-1.39,1.18-2.15,1.68c-1.54,0.99-3.23,1.74-4.97,2.31c-3.5,1.1-7.16,1.53-10.81,1.5c-3.66-0.06-7.31-0.73-10.73-1.99
			c-1.71-0.63-3.37-1.37-4.98-2.21c-0.8-0.43-1.58-0.88-2.37-1.32c-0.39-0.22-0.78-0.44-1.19-0.64c-0.2-0.1-0.4-0.2-0.61-0.26
			C345.24,187.81,344.97,187.75,344.85,187.97z"/>
	</g>
	<g>
		<path d="M369.52,168.01c0.89-1.04,2.08-1.76,3.34-2.29c1.26-0.54,2.62-0.83,3.99-0.95c2.72-0.2,5.46,0.14,8.1,0.86
			c1.32,0.37,2.62,0.82,3.87,1.42c0.61,0.28,1.28,0.68,1.8,0.99c0.48,0.29,1.01,0.53,1.55,0.72c1.09,0.39,2.28,0.5,3.51,0.4
			c1.22-0.12,2.47-0.46,3.73-0.91l0.11,0.17c-0.97,0.96-2.19,1.7-3.55,2.13c-1.37,0.42-2.89,0.5-4.35,0.14
			c-0.73-0.18-1.43-0.47-2.08-0.86c-0.6-0.39-1.07-0.68-1.64-1c-1.1-0.62-2.26-1.16-3.47-1.57c-2.41-0.86-4.98-1.28-7.55-1.29
			c-2.52-0.01-5.2,0.51-7.22,2.18L369.52,168.01z"/>
	</g>
	<g>
		<path d="M354.83,170.06c-2.26-1.75-5.2-2.22-7.94-2.12c-2.79,0.11-5.58,0.67-8.17,1.7c-1.3,0.5-2.54,1.13-3.72,1.85
			c-0.61,0.37-1.11,0.71-1.74,1.15c-0.68,0.45-1.42,0.79-2.2,1.01c-0.77,0.22-1.57,0.34-2.36,0.35c-0.79-0.01-1.58-0.1-2.33-0.29
			c-1.5-0.4-2.85-1.14-3.95-2.12l0.1-0.17c1.38,0.47,2.74,0.8,4.08,0.89c1.34,0.07,2.65-0.09,3.83-0.56
			c0.59-0.22,1.16-0.51,1.68-0.85c0.55-0.37,1.26-0.82,1.9-1.15c1.33-0.7,2.72-1.25,4.13-1.71c2.83-0.9,5.78-1.39,8.74-1.29
			c1.48,0.07,2.97,0.32,4.36,0.84c1.38,0.52,2.71,1.24,3.72,2.32L354.83,170.06z"/>
	</g>
	<path class="st2" d="M309.8,188.79c5.28-0.25,8.59,12.97,1.05,12.82C303.1,201.46,304.52,189.04,309.8,188.79z"/>
	<path class="st2" d="M411.14,189.95c4.57-1.05,9.51,9.66,2.9,10.73C407.25,201.78,406.57,191,411.14,189.95z"/>
	<path class="st2" d="M371,316.09c44,0.39,65.28-22.08,65.28-22.08s-42.63-5.29-67.59-8.09c-24.95-2.8-67.75,7.64-67.75,7.64
		S313.67,315.58,371,316.09z"/>
	<path class="st2" d="M318.7,281.44c-9.64,1.23-20.26,6.53-19.4,12.51c0.67,4.65,8.28,9.71,28.7,13.59
		c37.07,7.04,66.42,5.12,99.75-6.65c24.23-8.56,1.83-21.04-24.07-18.78C377.79,284.36,346.36,277.92,318.7,281.44z"/>
	<path class="st3" d="M310.35,291.04c3.31,6.79,35.71,16.11,60.9,15.34c32.94-1.01,45.69-8.1,53.06-13.08
		c4.1-2.77,1.76-41.49,1.76-41.49l-118.11-3.12C307.95,248.7,307.01,284.19,310.35,291.04z"/>
	<path class="st8" d="M305.44,238.64c5.66-4.72,33.25-14.08,67.32-14.08c28.92,0,57.58,9.56,60.35,19.86
		c2.77,10.31,3.77,31.68-5.28,28.41c-9.05-3.27,1.47-15.78-10.33-12.8c-11.8,2.99-9.51,12.54-6.76,19.08
		c2.75,6.54-11.08,15.09-10.32-0.5c0.75-15.59-4.78-18.1-8.55-17.35c-3.77,0.75-2.77,8.55-1.26,12.32c1.51,3.77-10.06,8.8-7.29-2.51
		c2.77-11.32-11.6-1.76-9.45,6.54c2.16,8.3,5.68,21.62-5.39,21.12c-11.06-0.5-7.79-12.82-6.03-19.36
		c1.76-6.54-2.01-10.31-5.78-10.31c-3.77,0-8.3,5.78-5.53,10.31c2.77,4.53-10.81,7.29-8.05-0.25c2.77-7.54,4.02-14.33-2.26-14.84
		c-6.29-0.5-10.81,1.01-9.05,6.79c1.76,5.78-12.82,7.41-8.3-2.45c4.53-9.87-1.83-12.8-7.04-10.37c-7.29,3.4-1.17,13.08-2.51,21.12
		c-1.07,6.4-13.08,1.26-11.06-10.56S300.47,242.79,305.44,238.64z"/>
	<path class="st6" d="M345.64,307.79c0,0,12.29,1.58,25.61,1.56c14.37-0.02,28.41-1.86,28.41-1.86s0.29,14.58-5.03,17.6
		c-13.01,7.38-30.43,0-44.26,3.02c-11.52,2.51-28.51-12.28-29.77-17.59c0,0,9.9,3.46,15.7,3.64c7.09,0.22,9.72-0.79,9.72-0.79
		L345.64,307.79z"/>
	<g>
		<path d="M315.27,246.18c4.53,0.98,9.1,1.7,13.68,2.28c4.56,0.73,9.15,1.3,13.74,1.75c9.2,0.88,18.44,1.3,27.68,1.23
			c9.24-0.08,18.48-0.65,27.64-1.82c4.59-0.56,9.15-1.3,13.68-2.16c4.57-0.71,9.11-1.58,13.61-2.68c-4.39,1.49-8.9,2.62-13.42,3.66
			c-4.56,0.87-9.14,1.61-13.75,2.17c-9.2,1.17-18.48,1.75-27.76,1.83c-9.28,0.08-18.55-0.35-27.79-1.23
			c-4.62-0.46-9.22-1.03-13.81-1.76C324.24,248.55,319.69,247.57,315.27,246.18z"/>
	</g>
</g>
</svg>
