<?xml version="1.0" encoding="utf-8"?>
<!-- Generator: Adobe Illustrator 23.0.1, SVG Export Plug-In . SVG Version: 6.00 Build 0)  -->
<svg version="1.1" id="BlogPage" xmlns="http://www.w3.org/2000/svg" xmlns:xlink="http://www.w3.org/1999/xlink" x="0px" y="0px"
	 viewBox="0 0 201 99" style="enable-background:new 0 0 201 99;" xml:space="preserve">
<style type="text/css">
	.st0{fill:url(#SVGID_1_);stroke:#020202;stroke-miterlimit:10;}
	.st1{fill:none;stroke:#020202;stroke-width:2;stroke-linecap:round;stroke-miterlimit:10;stroke-dasharray:6;}
	.st2{enable-background:new    ;}
</style>
<radialGradient id="SVGID_1_" cx="100.5" cy="50.5" r="106.4448" gradientTransform="matrix(1 0 0 -1 0 100)" gradientUnits="userSpaceOnUse">
	<stop  offset="0" style="stop-color:#FFFFFF"/>
	<stop  offset="0.1229" style="stop-color:#EAC9E0"/>
	<stop  offset="0.7497" style="stop-color:#CC7AB4"/>
</radialGradient>
<path class="st0" d="M187.84,99H13.16C5.89,99,0,93.11,0,85.84V13.16C0,5.89,5.89,0,13.16,0h174.68C195.11,0,201,5.89,201,13.16
	v72.68C201,93.11,195.11,99,187.84,99z"/>
<path class="st1" d="M177.69,93H23.31c-7.27,0-13.16-5.89-13.16-13.16V23.16c0-7.27,5.89-13.16,13.16-13.16h154.38
	c7.27,0,13.16,5.89,13.16,13.16v56.68C190.85,87.11,184.96,93,177.69,93z"/>
<g class="st2">
	<path d="M82.22,52.24c0,4.72-3.58,8.67-10.74,11.84c-5.83,2.57-11.47,3.86-16.92,3.86c-1.89,0-3.69-0.37-5.4-1.09
		c-2.27-0.99-3.41-2.27-3.41-3.86c0-0.39,0.9-2.7,2.7-6.95c1.2-2.87,2.94-6.82,5.21-11.84c1.89-4.25,2.97-6.54,3.25-6.88
		c0.28-0.34,1.39-1.19,3.35-2.54c1.95-1.35,3.06-2.03,3.31-2.03c0.34,0,0.65,0.12,0.93,0.35c0.28,0.24,0.48,0.55,0.61,0.93
		c-0.3,1.63-1.44,4.31-3.41,8.04c-1.76,3.26-3.54,6.58-5.34,9.97c-1.8,3.39-2.7,5.68-2.7,6.88c0,1.63,1.03,2.92,3.09,3.86
		c1.59,0.73,3.32,1.09,5.21,1.09c2.87,0,5.49-0.71,7.85-2.12c2.79-1.67,4.18-3.86,4.18-6.56c0-2.1-0.79-3.56-2.38-4.38
		c-1.16-0.6-2.9-0.9-5.21-0.9c-0.51,0-1.27,0.02-2.25,0.06c-0.99,0.04-1.69,0.06-2.12,0.06c-0.39,0-0.73-0.13-1.03-0.39
		c-0.3-0.26-0.51-0.58-0.64-0.97c0.09-0.13,3.07-2.72,8.94-7.79c2.19-1.89,3.28-3.69,3.28-5.4c0-1.37-1.09-2.43-3.28-3.18
		c-2.19-0.75-5.28-1.13-9.27-1.13c-6.31,0-12.4,0.94-18.27,2.83c-0.99,0.3-1.82,0.58-2.51,0.84c-1.37,0.51-2.19,0.9-2.44,1.16
		c-0.26,0.26-0.54,0.54-0.84,0.84c-0.3,0.3-0.64,0.45-1.03,0.45c-1.46,0-2.36-0.6-2.7-1.8l0.39-0.84
		c5.62-3.39,11.07-5.94,16.34-7.66c5.88-1.93,11.8-2.89,17.76-2.89c3.43,0,6.35,0.54,8.75,1.61c3.3,1.46,4.95,3.69,4.95,6.69
		c0,2.19-1.39,4.61-4.18,7.27c-1.5,1.42-3.86,3.24-7.08,5.47c3.22,0,5.94,0.41,8.17,1.22C80.59,47.59,82.22,49.54,82.22,52.24z"/>
	<path d="M103.33,29.47l0.32,0.84c0,1.29-0.9,3.92-2.7,7.88c-1.8,3.97-3.56,7.86-5.28,11.68c-1.89,4.42-2.83,7.55-2.83,9.39
		c0,0.3,0.03,0.53,0.1,0.68c0.06,0.15,0.2,0.4,0.42,0.74l1.29,0.58c0.94,0,1.91-0.34,2.9-1.03c1.42-0.99,2.85-2,4.31-3.02l0.71,0.39
		l0.32,0.97c0,1.59-1.69,3.54-5.08,5.85c-3.39,2.32-5.92,3.47-7.59,3.47c-0.26,0-1.24-0.55-2.96-1.64
		c-1.72-1.09-2.57-1.77-2.57-2.03c0-3.22,0.77-6.88,2.32-11c1.42-3.39,2.83-6.78,4.25-10.17c1.59-3.95,2.38-7.21,2.38-9.78
		c0.3-0.47,1.65-1.25,4.05-2.35c2.4-1.09,4.05-1.71,4.95-1.83L103.33,29.47z"/>
	<path d="M120.57,40.98c0.9,0,1.99,0.84,3.28,2.51s1.93,3,1.93,3.99c0,2.87-0.33,5.67-1,8.4c-0.67,2.72-2.71,5.42-6.14,8.08
		c-3.43,2.66-6.58,3.99-9.46,3.99c-1.5,0-2.85-0.43-4.05-1.29c-1.37-0.99-2.06-2.21-2.06-3.67c0-1.29,0.2-2.83,0.61-4.63
		c0.41-1.8,0.91-3.17,1.51-4.12c1.29-1.93,2.87-3.86,4.76-5.79c2.4-2.45,4.4-3.86,5.98-4.25c0.3-0.77,0.94-1.5,1.93-2.19
		C118.85,41.33,119.75,40.98,120.57,40.98z M111.5,61.25c0,0.56,0.09,1.07,0.26,1.54c0.17,0.47,0.47,0.71,0.9,0.71
		c1.24,0,2.51-0.62,3.8-1.87c1.67-1.63,3.09-3.82,4.25-6.56c-1.97-1.71-3.35-3.8-4.12-6.24c-1.12,1.37-2.24,3.38-3.38,6.02
		C112.07,57.49,111.5,59.62,111.5,61.25z"/>
	<path d="M130.16,67.3c-0.39,0-0.89-0.25-1.51-0.74c-0.62-0.49-1.11-0.95-1.45-1.38l-0.13-0.84c0-4.16,2.41-8.74,7.24-13.74
		c4.83-5,9.25-7.5,13.29-7.5c1.2,0,2.42,0.06,3.67,0.19c1.24,0.13,2.44,0.34,3.6,0.64l0.84,1.03c-1.25,5.58-2.17,9.57-2.77,11.97
		c-1.29,5.23-2.62,9.91-3.99,14.03c-1.63,4.98-3.2,8.6-4.7,10.87c-0.43,0.64-1.43,1.28-2.99,1.9c-1.57,0.62-2.82,0.93-3.76,0.93
		c-2.75,0-5.15-0.75-7.21-2.25c-2.32-1.67-3.47-3.84-3.47-6.5c0-0.86,0.49-2.16,1.48-3.89c0.99-1.74,1.84-2.61,2.57-2.61
		c0.56,0.13,0.96,0.21,1.22,0.26c0.47,0.6,1.31,2.57,2.51,5.92c0.94,2.66,2.21,4.38,3.8,5.15c0.73-0.34,1.78-3.26,3.15-8.75
		c1.93-7.63,2.96-11.67,3.09-12.1c-2.45,2.15-4.65,3.8-6.63,4.95C135.22,66.48,132.6,67.3,130.16,67.3z M136.27,60.99l0.39,0.77
		c2.14-0.99,4.2-2.47,6.18-4.44c1.97-1.97,3.5-4.03,4.57-6.18c0.3-0.64,0.62-1.29,0.96-1.93c0.51-1.07,0.77-1.76,0.77-2.06
		c0-0.34-0.17-0.51-0.51-0.51c-2.36,0-5.01,1.78-7.95,5.34C137.74,55.55,136.27,58.55,136.27,60.99z"/>
</g>
</svg>
