<?xml version="1.0" encoding="utf-8"?>
<!-- Generator: Adobe Illustrator 23.0.1, SVG Export Plug-In . SVG Version: 6.00 Build 0)  -->
<svg version="1.1" id="Contactpage" xmlns="http://www.w3.org/2000/svg" xmlns:xlink="http://www.w3.org/1999/xlink" x="0px"
	 y="0px" viewBox="0 0 349.12 99" style="enable-background:new 0 0 349.12 99;" xml:space="preserve">
<style type="text/css">
	.st0{fill:url(#SVGID_1_);stroke:#020202;stroke-miterlimit:10;}
	.st1{fill:none;stroke:#020202;stroke-width:2;stroke-linecap:round;stroke-miterlimit:10;stroke-dasharray:6;}
</style>
<g id="title_1_">
	
		<radialGradient id="SVGID_1_" cx="174.6331" cy="49.5" r="106.4455" gradientTransform="matrix(1.7369 0 0 1 -128.7602 0)" gradientUnits="userSpaceOnUse">
		<stop  offset="0" style="stop-color:#FFFFFF"/>
		<stop  offset="0.1229" style="stop-color:#EAC9E0"/>
		<stop  offset="0.7497" style="stop-color:#CC7AB4"/>
	</radialGradient>
	<path class="st0" d="M335.96,99H13.16C5.89,99,0,93.11,0,85.84V13.16C0,5.89,5.89,0,13.16,0h322.8c7.27,0,13.16,5.89,13.16,13.16
		v72.68C349.12,93.11,343.23,99,335.96,99z"/>
	<g>
		<g>
			<path d="M123.81,60.58c0,1.97-3.22,3.97-9.65,5.98c-5.58,1.76-9.78,2.64-12.61,2.64c-5.49,0-10.36-1.65-14.61-4.95
				C82.31,60.64,80,56.18,80,50.86c0-1.84,0.28-3.35,0.84-4.5c0.9-1.46,1.69-2.74,2.38-3.86c3.47-5.66,7.77-9.97,12.9-12.93
				c5.13-2.96,11.06-4.44,17.79-4.44c0.56,0,1.12,0,1.67,0c0.56,0,1.14-0.02,1.74-0.06c2.14,0,3.69,0.24,4.63,0.71
				c1.42,0.73,2.12,2.02,2.12,3.86c0,1.12-0.18,1.91-0.55,2.38c-0.37,0.47-1.1,0.9-2.22,1.29c-2.83-0.73-4.91-1.24-6.24-1.54
				c-2.36-0.56-4.53-0.84-6.5-0.84c-5.53,0-10.25,1.18-14.15,3.54c-4.63,2.79-6.95,6.82-6.95,12.1c0,4.16,1.98,8.12,5.95,11.87
				c3.97,3.75,8.03,5.63,12.19,5.63c0.9,0,1.78-0.13,2.64-0.39l14.54-3.99L123.81,60.58z"/>
			<path d="M143.95,41.98c0.9,0,1.99,0.84,3.28,2.51c1.29,1.67,1.93,3,1.93,3.99c0,2.87-0.33,5.67-1,8.4
				c-0.67,2.72-2.71,5.42-6.14,8.07c-3.43,2.66-6.58,3.99-9.46,3.99c-1.5,0-2.85-0.43-4.05-1.29c-1.37-0.99-2.06-2.21-2.06-3.67
				c0-1.29,0.2-2.83,0.61-4.63c0.41-1.8,0.91-3.17,1.51-4.12c1.29-1.93,2.87-3.86,4.76-5.79c2.4-2.45,4.4-3.86,5.98-4.25
				c0.3-0.77,0.94-1.5,1.93-2.19C142.23,42.33,143.14,41.98,143.95,41.98z M134.88,62.25c0,0.56,0.09,1.07,0.26,1.54
				c0.17,0.47,0.47,0.71,0.9,0.71c1.24,0,2.51-0.62,3.8-1.87c1.67-1.63,3.09-3.82,4.25-6.56c-1.97-1.72-3.35-3.8-4.12-6.24
				c-1.12,1.37-2.24,3.38-3.38,6.02C135.45,58.49,134.88,60.62,134.88,62.25z"/>
			<path d="M173.35,44.36c1.12,0,1.91,0.47,2.38,1.42c0.34,0.69,0.51,1.65,0.51,2.9c0,1.63-0.43,3.95-1.29,6.95
				c-0.86,3-1.29,5.23-1.29,6.69c0,0.22,0.19,0.6,0.58,1.16c0.39,0.56,0.58,0.94,0.58,1.16c0,0.69-0.94,1.56-2.83,2.61
				c-1.89,1.05-3.26,1.58-4.12,1.58c-0.9,0-1.51-0.51-1.83-1.54c-0.32-1.03-0.48-2.14-0.48-3.35c0-1.33,0.3-2.83,0.9-4.5
				c1.67-4.59,2.53-7.08,2.57-7.46l-0.26-0.45c-0.39,0-1.76,1.63-4.12,4.89c-2.62,3.6-5.23,7.21-7.85,10.81
				c-1.33,0.56-2.64,1.11-3.92,1.67c-0.22-0.13-0.61-0.48-1.19-1.06c-0.58-0.58-0.87-0.98-0.87-1.19c0-1.03,0.88-4.45,2.64-10.26
				c1.76-5.81,2.96-9.13,3.6-9.94c0.09-0.13,0.76-0.5,2.03-1.13c1.26-0.62,1.96-0.93,2.09-0.93c0.47,0,0.94,0.12,1.42,0.35
				c0.47,0.24,0.92,0.55,1.35,0.93c0.13,0.34,0.26,0.69,0.39,1.03c0,0.39-0.37,1.29-1.09,2.7c-0.99,1.89-1.5,2.9-1.54,3.02
				l-2.19,5.28c1.93-2.44,3.88-4.91,5.85-7.4C168.85,46.34,171.51,44.36,173.35,44.36z"/>
			<path d="M187.25,60.26c0,0.81,0.26,1.48,0.77,1.99c0.51,0.51,1.2,0.77,2.06,0.77c0.77,0,1.65-0.17,2.64-0.51
				c1.67-0.6,2.53-0.9,2.57-0.9l0.9,0.45l0.39,0.9c-0.56,1.67-2.12,3.11-4.7,4.31c-2.27,1.07-4.4,1.61-6.37,1.61
				c-1.89,0-3.41-0.73-4.57-2.19c-1.16-1.46-1.74-3.17-1.74-5.15c0-0.73,0.39-2.04,1.16-3.92c0.56-1.37,1.14-2.74,1.74-4.12
				c-0.43,0-0.86,0-1.29,0c-0.51-0.09-0.88-0.34-1.09-0.77c0.21-0.81,0.9-1.63,2.06-2.44c1.59-1.12,2.48-1.79,2.67-2.03
				c0.19-0.24,0.38-0.52,0.55-0.87c0.17-0.34,0.3-0.6,0.39-0.77c0.69-1.46,1.35-2.85,1.99-4.18c1.33-2.7,2.27-4.22,2.83-4.57
				c0.17-0.09,0.59-0.21,1.25-0.39c0.66-0.17,1.17-0.34,1.51-0.51c0.64-0.34,1.01-0.54,1.09-0.58c0.43-0.17,0.84-0.26,1.22-0.26
				c0.64,0,1.07,0.29,1.29,0.87c0.21,0.58,0.32,1.28,0.32,2.09c0,0.26-0.15,0.64-0.45,1.16c-0.3,0.51-0.58,0.99-0.84,1.42
				l-3.22,6.24c0.9,0,1.66,0.03,2.28,0.1c0.62,0.06,1.21,0.23,1.77,0.48l0.32,0.97c0,0.9-0.5,1.83-1.51,2.8
				c-1.01,0.96-1.96,1.45-2.86,1.45h-3.02c-0.77,1.59-1.32,2.9-1.64,3.92C187.41,58.65,187.25,59.53,187.25,60.26z"/>
			<path d="M199.73,68.94c-0.9,0-1.59-0.5-2.06-1.51c-0.47-1.01-0.71-2.05-0.71-3.12c0-3.47,2.95-7.69,8.85-12.64
				s10.71-7.43,14.44-7.43c1.24,0,2.49,0.24,3.73,0.71c1.67,0.64,2.51,1.46,2.51,2.44c0,1.46-0.71,4.27-2.12,8.43
				c-1.42,4.16-2.12,7.4-2.12,9.72c0,0.39,0.12,0.91,0.35,1.58c0.24,0.67,0.38,1.17,0.42,1.51c-0.13,0.47-0.39,0.91-0.77,1.32
				c-0.39,0.41-0.82,0.61-1.29,0.61c-0.39,0-1.01-0.05-1.87-0.16c-0.86-0.11-1.44-0.16-1.74-0.16c-0.86,0-1.44-0.67-1.74-1.99
				c-0.3-1.33-0.45-2.92-0.45-4.76c0-0.51,0-0.99,0-1.42c0-0.43,0.02-0.81,0.06-1.16c-1.76,2.36-4.06,4.29-6.92,5.79
				C205.47,68.19,202.61,68.94,199.73,68.94z M206.04,63.09c0,0.47,0.19,0.71,0.58,0.71c1.63,0,4.38-2.14,8.24-6.43
				c3.86-4.29,5.79-7.25,5.79-8.88c0-0.3-0.24-0.45-0.71-0.45c-1.84,0-4.62,2.01-8.33,6.02C207.89,58.06,206.04,61.07,206.04,63.09z
				"/>
			<path d="M250.37,47.13c0,1.24-0.19,2.06-0.58,2.44c-0.39,0.39-1.01,0.58-1.87,0.58h-1.61c-1.8,0-3.9,1.67-6.31,5.02
				c-2.4,3.35-3.6,5.96-3.6,7.85c0,0.6,0.28,0.9,0.84,0.9c1.8,0,3.82-0.64,6.05-1.93c2.06-1.46,4.14-2.92,6.24-4.38
				c0.47,0,0.71,0.28,0.71,0.84c0,2.27-1.67,4.61-5.02,7.01c-3.09,2.23-5.83,3.35-8.24,3.35c-2.7,0-4.57-0.15-5.6-0.45
				c-2.19-0.64-3.28-1.99-3.28-4.05c0-2.7,0.99-5.6,2.96-8.69c1.84-2.92,3.99-5.23,6.43-6.95c1.8-1.24,3.26-2.19,4.38-2.83
				c2.14-1.24,3.71-1.87,4.7-1.87c0.81,0,1.65,0.33,2.51,1C249.94,45.64,250.37,46.36,250.37,47.13z"/>
			<path d="M260.92,60.26c0,0.81,0.26,1.48,0.77,1.99c0.51,0.51,1.2,0.77,2.06,0.77c0.77,0,1.65-0.17,2.64-0.51
				c1.67-0.6,2.53-0.9,2.57-0.9l0.9,0.45l0.39,0.9c-0.56,1.67-2.12,3.11-4.7,4.31c-2.27,1.07-4.4,1.61-6.37,1.61
				c-1.89,0-3.41-0.73-4.57-2.19c-1.16-1.46-1.74-3.17-1.74-5.15c0-0.73,0.39-2.04,1.16-3.92c0.56-1.37,1.14-2.74,1.74-4.12
				c-0.43,0-0.86,0-1.29,0c-0.51-0.09-0.88-0.34-1.09-0.77c0.21-0.81,0.9-1.63,2.06-2.44c1.59-1.12,2.48-1.79,2.67-2.03
				c0.19-0.24,0.38-0.52,0.55-0.87c0.17-0.34,0.3-0.6,0.39-0.77c0.69-1.46,1.35-2.85,1.99-4.18c1.33-2.7,2.27-4.22,2.83-4.57
				c0.17-0.09,0.59-0.21,1.25-0.39c0.66-0.17,1.17-0.34,1.51-0.51c0.64-0.34,1.01-0.54,1.09-0.58c0.43-0.17,0.84-0.26,1.22-0.26
				c0.64,0,1.07,0.29,1.29,0.87c0.21,0.58,0.32,1.28,0.32,2.09c0,0.26-0.15,0.64-0.45,1.16c-0.3,0.51-0.58,0.99-0.84,1.42
				l-3.22,6.24c0.9,0,1.66,0.03,2.28,0.1c0.62,0.06,1.21,0.23,1.77,0.48l0.32,0.97c0,0.9-0.5,1.83-1.51,2.8
				c-1.01,0.96-1.96,1.45-2.86,1.45h-3.02c-0.77,1.59-1.32,2.9-1.64,3.92C261.08,58.65,260.92,59.53,260.92,60.26z"/>
		</g>
	</g>
	<path class="st1" d="M326.62,93.5H22.5c-7.27,0-13.16-5.89-13.16-13.16V22.66c0-7.27,5.89-13.16,13.16-13.16h304.13
		c7.27,0,13.16,5.89,13.16,13.16v57.68C339.78,87.61,333.89,93.5,326.62,93.5z"/>
</g>
</svg>
