<?xml version="1.0" encoding="utf-8"?>
<!-- Generator: Adobe Illustrator 23.0.1, SVG Export Plug-In . SVG Version: 6.00 Build 0)  -->
<svg version="1.1" xmlns="http://www.w3.org/2000/svg" xmlns:xlink="http://www.w3.org/1999/xlink" x="0px" y="0px"
	 viewBox="0 0 135 145.08" style="enable-background:new 0 0 135 145.08;" xml:space="preserve">
<style type="text/css">
	.st0{fill:#E2E2E2;stroke:#000000;stroke-miterlimit:10;}
	.st1{fill:#4F350F;}
	.st2{fill:#D8A877;stroke:#000000;stroke-miterlimit:10;}
	.st3{fill:#D8A877;}
	.st4{fill:#E2E2E2;}
	.st5{fill:none;stroke:#000000;stroke-width:2;stroke-linecap:round;stroke-miterlimit:10;}
	.st6{fill:none;stroke:#000000;stroke-width:2;stroke-linecap:round;stroke-miterlimit:10;stroke-dasharray:2.997,2.997;}
	.st7{display:none;}
	.st8{display:inline;}
	.st9{fill:#4F4F4F;stroke:#000000;stroke-miterlimit:10;}
	.st10{fill-rule:evenodd;clip-rule:evenodd;fill:#CC7AB4;stroke:#000000;stroke-miterlimit:10;}
	.st11{fill:#C673AC;stroke:#000000;stroke-miterlimit:10;}
</style>
<g id="Location">
	<g id="Hat_copy_2">
		<path class="st0" d="M55.98,29.16c-4.08-2.76-9.12-10.32-6.24-14.76c2.88-4.44,11.4-2.28,11.4-2.28s3-4.44,13.49-4.44
			c6.06,0,9.07,4.56,9.07,4.56s6.34-0.76,6.64,5.65c0.17,3.47-4.54,8.47-4.54,8.47"/>
		<path class="st0" d="M58.26,37.68c0,0-3.96-7.92-3-10.08c0.96-2.16,9.24-4.32,16.26-4.68c7.02-0.36,13.14,1.32,13.98,2.16
			s0,11.28,0,11.28L58.26,37.68z"/>
	</g>
	<g id="Hair_copy_2">
		<g>
			<path class="st1" d="M74.63,38.16c0,0,0.55-3-11.69-4.08c-11.48-1.01-24.13,8.7-26.88,19.08c-2.64,9.96-0.36,15,1.8,20.4
				s2.83,11.1-0.77,13.33c-2.71,1.67-5.95,0.35-5.95,0.35s3.36,6,7.56,6.96s19.56-3.6,29.94-2.52c10.38,1.08,25.76-0.68,32.1-3.12
				c4.68-1.8,6.24-5.88,6.24-5.88s-3.23,0.7-5.51-1.58c-2.28-2.28-1.02-7.2,1.07-11.86c2.97-6.63,3.92-18.45,0.68-23.97
				S90.54,32.28,82.74,32.4c-7.8,0.12-12.39,2.28-12.39,2.28c-1.29,0.41-7.41-0.6-7.41-0.6"/>
			<path d="M74.63,38.16c0-0.48-0.34-0.87-0.68-1.17c-0.35-0.31-0.76-0.54-1.17-0.75c-0.84-0.4-1.73-0.68-2.64-0.92
				c-1.81-0.46-3.67-0.7-5.52-0.9c-3.71-0.52-7.46-0.01-10.92,1.31c-3.46,1.3-6.63,3.32-9.37,5.78c-2.75,2.43-5.13,5.35-6.66,8.68
				c-0.8,1.65-1.24,3.42-1.63,5.24c-0.39,1.81-0.61,3.64-0.66,5.48c-0.04,1.83,0.12,3.67,0.54,5.45c0.4,1.79,1.01,3.53,1.7,5.26
				c1.41,3.42,2.83,7.14,2.43,11.09c-0.13,0.98-0.41,1.97-0.95,2.84c-0.54,0.88-1.35,1.59-2.27,2.03c-1.88,0.89-3.99,0.78-5.88,0.11
				L31.58,87c0.84,1.42,1.85,2.79,2.99,3.98c1.15,1.18,2.48,2.24,3.99,2.67c0.72,0.21,1.55,0.2,2.38,0.17
				c0.83-0.04,1.67-0.12,2.51-0.23c1.68-0.21,3.36-0.48,5.05-0.74c3.37-0.54,6.75-1.08,10.16-1.44c3.41-0.36,6.87-0.55,10.32-0.19
				c6.74,0.6,13.58,0.23,20.31-0.64c3.36-0.45,6.72-1.04,9.94-2.01c1.61-0.49,3.09-1.17,4.35-2.23c1.25-1.03,2.31-2.39,2.94-3.82
				l0.57,0.67c-0.94,0.16-1.81,0.14-2.71-0.03c-0.89-0.17-1.76-0.52-2.5-1.06c-0.38-0.27-0.71-0.57-1.03-0.94
				c-0.3-0.37-0.54-0.8-0.7-1.23c-0.33-0.88-0.41-1.8-0.38-2.68c0.16-3.54,1.73-6.73,2.95-9.77c1.11-3.12,1.71-6.43,1.94-9.74
				c0.21-3.31,0.09-6.69-0.86-9.83c-0.46-1.57-1.29-2.95-2.31-4.25c-1.01-1.3-2.17-2.5-3.4-3.61c-2.49-2.19-5.23-4.12-8.23-5.53
				c-1.5-0.69-3.07-1.25-4.69-1.55c-1.61-0.32-3.28-0.25-4.96-0.16c-3.33,0.22-6.69,0.77-9.8,1.99l-0.01,0.01l0,0
				c-0.65,0.14-1.27,0.08-1.9,0.04c-0.62-0.04-1.24-0.12-1.86-0.19c-1.24-0.16-2.46-0.35-3.69-0.56c1.23,0.18,2.47,0.33,3.7,0.45
				c0.62,0.06,1.24,0.11,1.86,0.13c0.61,0.02,1.25,0.05,1.82-0.09l-0.01,0.01c3.13-1.35,6.49-2,9.86-2.33
				c1.67-0.14,3.4-0.28,5.12,0.01c1.7,0.26,3.35,0.79,4.93,1.46c3.15,1.35,6.03,3.27,8.56,5.57c1.27,1.14,2.46,2.38,3.52,3.74
				c0.53,0.68,1.02,1.39,1.46,2.15c0.43,0.77,0.76,1.59,1.02,2.42c1,3.33,1.11,6.8,0.9,10.19c-0.24,3.4-0.85,6.78-2,10.01
				c-0.6,1.64-1.36,3.1-1.87,4.68c-0.53,1.56-0.96,3.18-1.02,4.78c-0.07,1.6,0.35,3.17,1.69,4c1.23,0.91,2.93,1.17,4.42,0.93
				l0.93-0.15l-0.36,0.82c-0.75,1.69-1.86,3.08-3.23,4.23c-1.36,1.15-3.04,1.92-4.69,2.41c-3.32,1-6.71,1.59-10.11,2.05
				c-6.8,0.88-13.67,1.25-20.54,0.64c-3.35-0.35-6.74-0.16-10.12,0.19c-3.38,0.36-6.74,0.9-10.11,1.44
				c-1.69,0.27-3.37,0.54-5.08,0.75c-0.85,0.11-1.71,0.19-2.59,0.24c-0.87,0.03-1.78,0.06-2.7-0.2c-1.79-0.52-3.22-1.69-4.44-2.94
				c-1.22-1.27-2.25-2.66-3.15-4.18l-0.7-1.18l1.32,0.47c1.61,0.57,3.54,0.66,5.06-0.08c0.77-0.37,1.42-0.94,1.86-1.66
				c0.45-0.72,0.69-1.57,0.81-2.44c0.21-1.76-0.06-3.6-0.51-5.37c-0.45-1.79-1.15-3.48-1.85-5.23c-0.7-1.74-1.33-3.55-1.75-5.41
				c-0.43-1.86-0.6-3.79-0.56-5.69c0.04-1.91,0.28-3.81,0.68-5.66c0.4-1.84,0.86-3.72,1.7-5.45c3.29-6.94,9.56-12.2,16.71-14.68
				c3.57-1.25,7.48-1.64,11.19-1.01c1.86,0.25,3.72,0.55,5.53,1.07c0.9,0.26,1.79,0.57,2.63,1c0.41,0.23,0.82,0.47,1.16,0.8
				C74.32,37.27,74.64,37.68,74.63,38.16z"/>
		</g>
	</g>
	<g id="neck_copy_2">
		<path class="st2" d="M68.64,71.88c0,0,1.23,5.76,0.6,8.91c-0.63,3.15-1.62,6.39-1.62,6.39l7.24,3.63l4.62-3.96
			c0,0-2.95-2.55-3.31-8.13c-0.36-5.58,0.45-7.56,0.45-7.56L68.64,71.88z"/>
	</g>
	<g id="face_copy_2">
		<g>
			<path class="st3" d="M75.12,41.78c0,0,2,4-4,7s-17-1-22,4s-3.94,16.96,9.26,20.72c11.83,3.37,25.14,2.22,31.74-2.72
				c3.41-2.55,7-12,1-18s-16.43-6.93-16.43-6.93C75.23,44.7,75.66,43.59,75.12,41.78z"/>
			<path d="M75.12,41.78c0.58,1.23,0.47,2.76-0.21,3.97c-0.67,1.23-1.79,2.14-2.96,2.86c-1.16,0.76-2.53,1.22-3.88,1.48
				c-1.36,0.26-2.74,0.37-4.1,0.43c-2.73,0.08-5.44-0.12-8.09,0.15c-2.62,0.23-5.3,0.97-6.9,3.01c-1.63,1.98-2.31,4.68-2.07,7.26
				c0.22,2.59,1.34,5.09,3.08,7.03c1.73,1.97,4.03,3.4,6.49,4.36c2.47,0.94,5.13,1.51,7.77,1.95c5.3,0.83,10.75,0.9,16.01-0.09
				c2.62-0.51,5.2-1.29,7.53-2.53c0.58-0.32,1.15-0.65,1.68-1.03c0.56-0.37,0.98-0.77,1.4-1.27c0.82-0.99,1.46-2.15,1.95-3.37
				c0.96-2.43,1.31-5.15,0.76-7.69c-0.27-1.27-0.78-2.48-1.49-3.55c-0.72-1.07-1.65-2-2.68-2.82c-4.18-3.22-9.41-5.15-14.72-5.94
				l-0.2-0.03l0.09-0.17c0.32-0.62,0.6-1.25,0.7-1.94C75.38,43.17,75.29,42.46,75.12,41.78z M75.12,41.78
				c0.22,0.66,0.35,1.37,0.29,2.08c-0.06,0.71-0.31,1.4-0.59,2.04l-0.11-0.2c2.72,0.23,5.4,0.79,8.01,1.64
				c2.6,0.85,5.16,2.01,7.31,3.8c1.08,0.86,2.1,1.87,2.89,3.05c0.78,1.18,1.35,2.51,1.64,3.9c0.59,2.78,0.21,5.67-0.81,8.27
				c-0.52,1.3-1.2,2.54-2.11,3.64c-0.45,0.54-1.01,1.07-1.59,1.45c-0.57,0.41-1.17,0.76-1.78,1.1c-2.46,1.31-5.13,2.11-7.82,2.64
				c-5.4,1.01-10.95,0.94-16.36,0.09c-2.7-0.46-5.37-1.02-7.97-2.01c-2.58-1-5.01-2.52-6.87-4.63c-1.87-2.09-3.09-4.79-3.33-7.61
				c-0.25-2.8,0.47-5.76,2.3-7.98c0.9-1.12,2.15-1.97,3.48-2.48c1.33-0.51,2.72-0.76,4.1-0.89c2.76-0.24,5.48-0.13,8.17-0.14
				c2.66,0.01,5.42-0.04,7.74-1.38c1.16-0.63,2.27-1.43,2.97-2.56C75.39,44.52,75.61,43.06,75.12,41.78z"/>
		</g>
		<g>
			<path d="M68.64,60.9c0.39-0.69,0.92-1.29,1.53-1.81c0.62-0.51,1.32-0.98,2.28-1.08c1.01-0.03,1.76,0.49,2.37,1
				c0.6,0.54,1.1,1.17,1.44,1.89c-0.65-0.45-1.27-0.89-1.9-1.26c-0.62-0.35-1.29-0.69-1.85-0.63c-0.58,0.03-1.26,0.38-1.9,0.72
				L68.64,60.9z"/>
		</g>
		<g>
			<path d="M62.82,64.26c0.04-0.12,0.2-0.12,0.3-0.1c0.11,0.02,0.22,0.05,0.32,0.08c0.21,0.07,0.41,0.15,0.61,0.24l1.2,0.49
				c0.79,0.32,1.59,0.6,2.4,0.84c1.62,0.46,3.28,0.73,4.95,0.74c1.66,0.01,3.36-0.15,4.98-0.55c0.81-0.21,1.6-0.48,2.35-0.86
				c0.38-0.19,0.74-0.4,1.09-0.64l0.53-0.37c0.1-0.06,0.19-0.12,0.32-0.14c0.15-0.02,0.22,0.12,0.25,0.21
				c-0.12-0.25-0.34-0.11-0.47,0.05l-0.46,0.46c-0.31,0.31-0.64,0.6-1,0.86c-0.73,0.51-1.54,0.9-2.38,1.19
				c-1.69,0.57-3.45,0.79-5.22,0.77c-1.77-0.04-3.54-0.38-5.18-1.01c-0.82-0.31-1.61-0.7-2.36-1.14l-1.11-0.68l-0.55-0.33
				C63.21,64.29,62.99,64.1,62.82,64.26z"/>
		</g>
		<g>
			<path d="M74.56,54.7c0.82-1.07,2.18-1.65,3.52-1.82c1.34-0.15,2.69-0.01,4.01,0.3c0.66,0.16,1.32,0.36,1.96,0.64
				c0.3,0.12,0.67,0.34,0.9,0.47c0.19,0.11,0.39,0.21,0.6,0.3c0.43,0.19,0.91,0.29,1.45,0.33c0.55,0.02,1.15-0.03,1.83-0.12
				l0.11,0.17c-0.75,1.16-2.34,1.9-3.94,1.54c-0.39-0.09-0.77-0.23-1.13-0.45l-0.74-0.48c-0.48-0.3-1-0.58-1.55-0.79
				c-1.09-0.44-2.27-0.67-3.46-0.73c-1.15-0.07-2.41,0.06-3.42,0.76L74.56,54.7z"/>
		</g>
		<g>
			<path d="M67.55,55.75c-1.12-0.74-2.5-0.85-3.75-0.73c-1.29,0.11-2.58,0.4-3.75,0.92c-0.59,0.25-1.15,0.57-1.67,0.92l-0.79,0.55
				c-0.37,0.24-0.77,0.42-1.18,0.53c-1.69,0.45-3.43-0.25-4.32-1.44l0.1-0.17c0.73,0.09,1.38,0.14,1.98,0.11
				c0.6-0.05,1.13-0.17,1.6-0.4c0.24-0.11,0.46-0.23,0.67-0.36c0.24-0.16,0.63-0.4,0.95-0.55c0.68-0.33,1.38-0.57,2.08-0.78
				c1.41-0.4,2.86-0.61,4.32-0.51c1.46,0.13,2.95,0.68,3.9,1.79L67.55,55.75z"/>
		</g>
		<path class="st0" d="M46.09,64.65c2.52-0.12,4.1,6.19,0.5,6.12C42.9,70.7,43.57,64.77,46.09,64.65z"/>
		<path class="st0" d="M94.46,65.21c2.18-0.5,4.54,4.61,1.38,5.12C92.6,70.85,92.28,65.71,94.46,65.21z"/>
	</g>
	<g id="map">
		<path class="st0" d="M11.82,81.64c0,0,17.77-8.73,33.82-10.71c16.04-1.98,40.16,2.66,44.3,5.4c4.14,2.74,15.12,4.14,15.12,4.14
			s-12.84,17.86-11.81,24.84c1.03,6.98,8.21,15.3,8.93,19.62c0.72,4.32,7.15,2.31,7.15,2.31s-3.19,8.67-14.35,9.03
			s-23.58-7.02-34.56-5.31s-30.11,5.88-34.4,5.32c-4.3-0.55-11.68-6.49-11.68-6.49s2.1-1.2,5.58-3.96
			c2.23-1.77,2.65-13.79,2.16-19.08C20.82,93.01,11.82,81.64,11.82,81.64z"/>
		<g>
			<path class="st4" d="M27.3,106.93c0,0,2.88-21.42,12.78-18.36c9.9,3.06,4.86,21.6,9.18,27.18s10.62-14.81,16.92-15.24
				c6.3-0.42,8.45,12.9,11.6,17.4"/>
			<g>
				<path class="st5" d="M27.3,106.93c0,0,0.07-0.56,0.24-1.48"/>
				<path class="st6" d="M28.16,102.52c1.45-6.09,4.94-16.11,11.92-13.95c9.9,3.06,4.86,21.6,9.18,27.18s10.62-14.81,16.92-15.24
					c5.33-0.36,7.69,9.11,10.19,14.76"/>
				<path class="st5" d="M77.02,116.63c0.25,0.48,0.5,0.91,0.77,1.29"/>
			</g>
		</g>
		<path d="M80.28,111.97l3.24-1.55c0,0,0.75,4.79,3.17,9.21c2.42,4.42,4.66,5.93,4.66,5.93l-3.45,2.98c0,0-1.16-4.38-3.4-8.78
			C82.27,115.36,80.28,111.97,80.28,111.97z"/>
		<path d="M91.11,112.6l1.69,3.17c0,0-4.75,0.96-9.06,3.58c-4.31,2.61-5.72,4.92-5.72,4.92l-3.13-3.31c0,0,4.32-1.35,8.62-3.79
			C87.82,114.74,91.11,112.6,91.11,112.6z"/>
	</g>
	<g id="hands_copy">
		<path class="st2" d="M45.74,58.57c4.83-0.33,9.19,2.58,10.08,7.66c1.17,6.64-1.78,8.74-1.78,8.74s-5.62-2.46-12.1-0.15
			c-7.74,2.76-12.03,5.65-12.03,5.65s-8.7-10.81-0.1-13.49C37.17,64.69,40.93,58.9,45.74,58.57z"/>
		<path class="st2" d="M84.28,115.92c0,0,6.45-14.81,15.81-16.28s12.56,8.27,13.62,15.09c1.02,6.56-5.87,12.29-8.53,11.02
			c-3.75-1.8-7.18-6.37-8.24-10.19c-0.38-1.38,0.71-4.54,0.71-4.54s-2.87,0.31-5.96,2.1C88.44,114.98,84.28,115.92,84.28,115.92z"/>
	</g>
</g>
<g id="Hours" class="st7">
	<g id="Hat_copy" class="st8">
		<path class="st0" d="M46.87,29.16c-4.08-2.76-9.12-10.32-6.24-14.76c2.88-4.44,11.4-2.28,11.4-2.28s3-4.44,13.49-4.44
			c6.06,0,9.07,4.56,9.07,4.56s6.34-0.76,6.64,5.65c0.17,3.47-4.54,8.47-4.54,8.47"/>
		<path class="st0" d="M49.15,37.68c0,0-3.96-7.92-3-10.08s9.24-4.32,16.26-4.68s13.14,1.32,13.98,2.16c0.84,0.84,0,11.28,0,11.28
			L49.15,37.68z"/>
	</g>
	<g id="Hair_copy" class="st8">
		<g>
			<path class="st1" d="M65.52,38.16c0,0,0.55-3-11.69-4.08c-11.48-1.01-24.13,8.7-26.88,19.08c-2.64,9.96-0.36,15,1.8,20.4
				s2.83,11.1-0.77,13.33c-2.71,1.67-5.95,0.35-5.95,0.35s3.36,6,7.56,6.96s19.56-3.6,29.94-2.52c10.38,1.08,25.76-0.68,32.1-3.12
				c4.68-1.8,6.24-5.88,6.24-5.88s-3.23,0.7-5.51-1.58c-2.28-2.28-1.02-7.2,1.07-11.86c2.97-6.63,3.92-18.45,0.68-23.97
				c-3.24-5.52-12.68-12.99-20.48-12.87c-7.8,0.12-12.39,2.28-12.39,2.28c-1.29,0.41-7.41-0.6-7.41-0.6"/>
			<path d="M65.52,38.16c0-0.48-0.34-0.87-0.68-1.17c-0.35-0.31-0.76-0.54-1.17-0.75c-0.84-0.4-1.73-0.68-2.64-0.92
				c-1.81-0.46-3.67-0.7-5.52-0.9c-3.71-0.52-7.46-0.01-10.92,1.31c-3.46,1.3-6.63,3.32-9.37,5.78c-2.75,2.43-5.13,5.35-6.66,8.68
				c-0.8,1.65-1.24,3.42-1.63,5.24c-0.39,1.81-0.61,3.64-0.66,5.48c-0.04,1.83,0.12,3.67,0.54,5.45c0.4,1.79,1.01,3.53,1.7,5.26
				c1.41,3.42,2.83,7.14,2.42,11.09c-0.13,0.98-0.41,1.97-0.95,2.84c-0.54,0.88-1.35,1.59-2.27,2.03c-1.88,0.89-3.99,0.78-5.88,0.11
				L22.47,87c0.84,1.42,1.85,2.79,2.99,3.98c1.15,1.18,2.48,2.24,3.99,2.67c0.72,0.21,1.55,0.2,2.38,0.17
				c0.83-0.04,1.67-0.12,2.51-0.23c1.68-0.21,3.36-0.48,5.05-0.74c3.37-0.54,6.75-1.08,10.16-1.44c3.41-0.36,6.87-0.55,10.32-0.19
				c6.74,0.6,13.58,0.23,20.31-0.64c3.36-0.45,6.72-1.04,9.94-2.01c1.61-0.49,3.09-1.17,4.35-2.23c1.25-1.03,2.31-2.39,2.94-3.82
				l0.57,0.67c-0.94,0.16-1.81,0.14-2.71-0.03c-0.89-0.17-1.76-0.52-2.5-1.06c-0.38-0.27-0.71-0.57-1.03-0.94
				c-0.3-0.37-0.54-0.8-0.7-1.23c-0.33-0.88-0.41-1.8-0.38-2.68c0.16-3.54,1.73-6.73,2.95-9.77c1.11-3.12,1.71-6.43,1.94-9.74
				c0.21-3.31,0.09-6.69-0.86-9.83c-0.46-1.57-1.29-2.95-2.32-4.25c-1.01-1.3-2.17-2.5-3.4-3.61c-2.49-2.19-5.23-4.12-8.23-5.53
				c-1.5-0.69-3.07-1.25-4.69-1.55c-1.61-0.32-3.28-0.25-4.96-0.16c-3.33,0.22-6.69,0.77-9.8,1.99l-0.01,0.01l0,0
				c-0.65,0.14-1.27,0.08-1.9,0.04c-0.62-0.04-1.24-0.12-1.86-0.19c-1.23-0.16-2.46-0.35-3.69-0.56c1.23,0.18,2.47,0.33,3.7,0.45
				c0.62,0.06,1.24,0.11,1.86,0.13c0.61,0.02,1.25,0.05,1.82-0.09l-0.01,0.01c3.13-1.35,6.49-2,9.86-2.33
				c1.67-0.14,3.4-0.28,5.12,0.01c1.7,0.26,3.35,0.79,4.93,1.46c3.15,1.35,6.03,3.27,8.56,5.57c1.27,1.14,2.46,2.38,3.52,3.74
				c0.53,0.68,1.02,1.39,1.46,2.15c0.43,0.77,0.76,1.59,1.02,2.42c1,3.33,1.11,6.8,0.9,10.19c-0.24,3.4-0.85,6.78-2,10.01
				c-0.6,1.64-1.36,3.1-1.87,4.68c-0.53,1.56-0.96,3.18-1.02,4.78c-0.07,1.6,0.35,3.17,1.69,4c1.23,0.91,2.93,1.17,4.42,0.93
				l0.93-0.15l-0.36,0.82c-0.75,1.69-1.86,3.08-3.23,4.23c-1.36,1.15-3.04,1.92-4.69,2.41c-3.32,1-6.71,1.59-10.11,2.05
				c-6.8,0.88-13.67,1.25-20.54,0.64c-3.35-0.35-6.74-0.16-10.12,0.19c-3.38,0.36-6.74,0.9-10.11,1.44
				c-1.69,0.27-3.37,0.54-5.08,0.75c-0.85,0.11-1.71,0.19-2.59,0.24c-0.87,0.03-1.78,0.06-2.7-0.2c-1.79-0.52-3.22-1.69-4.44-2.94
				c-1.22-1.27-2.25-2.66-3.15-4.18l-0.7-1.18l1.32,0.47c1.61,0.57,3.54,0.66,5.06-0.08c0.77-0.37,1.42-0.94,1.86-1.66
				c0.45-0.72,0.69-1.57,0.81-2.44c0.21-1.76-0.06-3.6-0.51-5.37c-0.45-1.79-1.15-3.48-1.85-5.23c-0.7-1.74-1.33-3.55-1.75-5.41
				c-0.43-1.86-0.6-3.79-0.56-5.69c0.04-1.91,0.28-3.81,0.68-5.66c0.4-1.84,0.87-3.72,1.7-5.45c3.29-6.94,9.56-12.2,16.71-14.68
				c3.57-1.25,7.48-1.64,11.19-1.01c1.86,0.25,3.72,0.55,5.53,1.07c0.9,0.26,1.79,0.57,2.63,1c0.41,0.23,0.82,0.47,1.16,0.8
				C65.21,37.27,65.54,37.68,65.52,38.16z"/>
		</g>
	</g>
	<g id="neck_copy" class="st8">
		<path class="st2" d="M59.53,71.88c0,0,1.23,5.76,0.6,8.91c-0.63,3.15-1.62,6.39-1.62,6.39l7.24,3.63l4.62-3.96
			c0,0-2.95-2.55-3.31-8.13c-0.36-5.58,0.45-7.56,0.45-7.56L59.53,71.88z"/>
	</g>
	<g id="Clock" class="st8">
		<ellipse class="st9" cx="64.35" cy="109.87" rx="28.91" ry="27.55"/>
		<ellipse class="st0" cx="64.44" cy="109.78" rx="23.82" ry="22.7"/>
		<path d="M61.7,89.07c1.28-0.12,4.61,20.52,2.27,20.65C61.63,109.87,60.42,89.19,61.7,89.07z"/>
		<path d="M80.78,114.01c-0.23,1.26-15.93-0.1-15.46-2.39S81,112.75,80.78,114.01z"/>
	</g>
	<g id="hands" class="st8">
		<path class="st2" d="M25.94,101.61c1.08-4.05,4.68-6.8,9.09-6.11c5.76,0.9,6.66,3.9,6.66,3.9s-3.59,3.91-3.51,9.86
			c0.09,7.11,1.26,11.43,1.26,11.43s-11.28,4.1-11.07-3.69C28.55,110.34,24.87,105.64,25.94,101.61z"/>
		<path class="st2" d="M103.6,109.25c-0.22-4.19-3.19-7.62-7.64-7.85c-5.82-0.3-7.32,2.45-7.32,2.45s2.71,4.56,1.41,10.37
			c-1.55,6.94-3.58,10.93-3.58,10.93s10.2,6.33,11.59-1.34C99.25,117.26,103.82,113.42,103.6,109.25z"/>
	</g>
	<g id="face_copy" class="st8">
		<g>
			<path class="st3" d="M66.01,41.78c0,0,2,4-4,7s-17-1-22,4s-3.94,16.96,9.26,20.72c11.83,3.37,25.14,2.22,31.74-2.72
				c3.41-2.55,7-12,1-18s-16.43-6.93-16.43-6.93C66.13,44.7,66.55,43.59,66.01,41.78z"/>
			<path d="M66.01,41.78c0.58,1.23,0.47,2.76-0.21,3.97c-0.67,1.23-1.79,2.14-2.96,2.86c-1.16,0.76-2.53,1.22-3.88,1.48
				c-1.36,0.26-2.74,0.37-4.1,0.43c-2.73,0.08-5.44-0.12-8.09,0.15c-2.62,0.23-5.3,0.97-6.9,3.01c-1.63,1.98-2.31,4.68-2.07,7.26
				c0.22,2.59,1.34,5.09,3.08,7.03c1.73,1.97,4.03,3.4,6.49,4.36c2.47,0.94,5.13,1.51,7.77,1.95c5.3,0.83,10.75,0.9,16.01-0.09
				c2.62-0.51,5.2-1.29,7.53-2.53c0.58-0.32,1.15-0.65,1.68-1.03c0.56-0.37,0.98-0.77,1.4-1.27c0.82-0.99,1.46-2.15,1.95-3.37
				c0.96-2.43,1.31-5.15,0.76-7.69c-0.27-1.27-0.78-2.48-1.49-3.55c-0.72-1.07-1.65-2-2.68-2.82c-4.18-3.22-9.41-5.15-14.72-5.94
				l-0.2-0.03l0.09-0.17c0.32-0.62,0.6-1.25,0.7-1.94C66.27,43.17,66.19,42.46,66.01,41.78z M66.01,41.78
				c0.22,0.66,0.35,1.37,0.29,2.08c-0.06,0.71-0.31,1.4-0.59,2.04l-0.11-0.2c2.72,0.23,5.4,0.79,8.01,1.64
				c2.6,0.85,5.16,2.01,7.31,3.8c1.08,0.86,2.1,1.87,2.89,3.05c0.78,1.18,1.35,2.51,1.64,3.9c0.59,2.78,0.21,5.67-0.81,8.27
				c-0.52,1.3-1.2,2.54-2.11,3.64c-0.45,0.54-1.01,1.07-1.59,1.45c-0.57,0.41-1.17,0.76-1.78,1.1c-2.46,1.31-5.13,2.11-7.82,2.64
				c-5.4,1.01-10.95,0.94-16.36,0.09c-2.7-0.46-5.37-1.02-7.97-2.01c-2.58-1-5.01-2.52-6.87-4.63c-1.87-2.09-3.09-4.79-3.33-7.61
				c-0.25-2.8,0.47-5.76,2.3-7.98c0.9-1.12,2.15-1.97,3.48-2.48c1.33-0.51,2.72-0.76,4.1-0.89c2.76-0.24,5.48-0.13,8.17-0.14
				c2.66,0.01,5.42-0.04,7.74-1.38c1.16-0.63,2.27-1.43,2.97-2.56C66.28,44.52,66.5,43.06,66.01,41.78z"/>
		</g>
		<g>
			<path d="M59.53,60.9c0.39-0.69,0.92-1.29,1.53-1.81c0.62-0.51,1.32-0.98,2.28-1.08c1.01-0.03,1.76,0.49,2.37,1
				c0.6,0.54,1.1,1.17,1.44,1.89c-0.65-0.45-1.27-0.89-1.9-1.26c-0.62-0.35-1.29-0.69-1.85-0.63c-0.58,0.03-1.26,0.38-1.9,0.72
				L59.53,60.9z"/>
		</g>
		<g>
			<path d="M53.71,64.26c0.04-0.12,0.2-0.12,0.3-0.1c0.11,0.02,0.22,0.05,0.32,0.08c0.21,0.07,0.41,0.15,0.61,0.24l1.2,0.49
				c0.79,0.32,1.59,0.6,2.4,0.84c1.62,0.46,3.28,0.73,4.95,0.74c1.66,0.01,3.36-0.15,4.98-0.55c0.81-0.21,1.6-0.48,2.35-0.86
				c0.38-0.19,0.74-0.4,1.09-0.64l0.53-0.37c0.1-0.06,0.19-0.12,0.32-0.14c0.15-0.02,0.22,0.12,0.25,0.21
				c-0.12-0.25-0.34-0.11-0.47,0.05l-0.46,0.46c-0.31,0.31-0.64,0.6-1,0.86c-0.73,0.51-1.54,0.9-2.38,1.19
				c-1.69,0.57-3.45,0.79-5.22,0.77c-1.77-0.04-3.54-0.38-5.18-1.01c-0.82-0.31-1.61-0.7-2.36-1.14l-1.11-0.68l-0.55-0.33
				C54.1,64.29,53.88,64.1,53.71,64.26z"/>
		</g>
		<g>
			<path d="M65.45,54.7c0.82-1.07,2.18-1.64,3.52-1.82c1.34-0.15,2.69-0.01,4.01,0.3c0.66,0.16,1.32,0.36,1.96,0.64
				c0.3,0.12,0.67,0.34,0.9,0.47c0.19,0.11,0.39,0.21,0.61,0.3c0.43,0.19,0.91,0.29,1.45,0.33c0.55,0.02,1.15-0.03,1.83-0.12
				l0.11,0.17c-0.75,1.16-2.34,1.9-3.94,1.54c-0.39-0.09-0.77-0.23-1.13-0.45l-0.74-0.48c-0.48-0.3-1-0.58-1.55-0.79
				c-1.09-0.44-2.27-0.67-3.46-0.73c-1.15-0.07-2.41,0.06-3.42,0.76L65.45,54.7z"/>
		</g>
		<g>
			<path d="M58.44,55.75c-1.12-0.74-2.5-0.85-3.75-0.73c-1.29,0.11-2.58,0.4-3.75,0.92c-0.59,0.25-1.15,0.57-1.67,0.92l-0.79,0.55
				c-0.37,0.24-0.77,0.42-1.18,0.53c-1.69,0.45-3.43-0.25-4.32-1.44l0.1-0.17c0.73,0.09,1.39,0.14,1.98,0.11
				c0.6-0.05,1.13-0.17,1.6-0.4c0.24-0.11,0.46-0.23,0.67-0.36c0.24-0.16,0.63-0.4,0.95-0.55c0.68-0.33,1.38-0.57,2.08-0.78
				c1.41-0.4,2.86-0.61,4.32-0.51c1.46,0.13,2.95,0.68,3.9,1.79L58.44,55.75z"/>
		</g>
		<path class="st0" d="M36.99,64.65c2.52-0.12,4.1,6.19,0.5,6.12C33.79,70.7,34.47,64.77,36.99,64.65z"/>
		<path class="st0" d="M85.35,65.21c2.18-0.5,4.54,4.61,1.38,5.12C83.49,70.85,83.17,65.71,85.35,65.21z"/>
	</g>
</g>
<g id="Phone" class="st7">
	<g id="Hat" class="st8">
		<path class="st0" d="M37.95,29.16c-4.08-2.76-9.12-10.32-6.24-14.76s11.4-2.28,11.4-2.28s3-4.44,13.49-4.44
			c6.06,0,9.07,4.56,9.07,4.56s6.34-0.76,6.64,5.65c0.16,3.47-4.54,8.47-4.54,8.47"/>
		<path class="st0" d="M40.23,37.68c0,0-3.96-7.92-3-10.08c0.96-2.16,9.24-4.32,16.26-4.68s13.14,1.32,13.98,2.16
			c0.84,0.84,0,11.28,0,11.28L40.23,37.68z"/>
	</g>
	<g id="Hair" class="st8">
		<g>
			<path class="st1" d="M56.6,38.16c0,0,0.55-3-11.69-4.08c-11.48-1.01-24.13,8.7-26.88,19.08c-2.64,9.96-0.36,15,1.8,20.4
				s2.83,11.1-0.77,13.33c-2.71,1.67-5.95,0.35-5.95,0.35s3.36,6,7.56,6.96s19.56-3.6,29.94-2.52c10.38,1.08,25.76-0.68,32.1-3.12
				c4.68-1.8,6.24-5.88,6.24-5.88s-3.23,0.7-5.51-1.58c-2.28-2.28-1.02-7.2,1.07-11.86c2.97-6.63,3.92-18.45,0.68-23.97
				S72.51,32.28,64.71,32.4c-7.8,0.12-12.39,2.28-12.39,2.28c-1.29,0.41-7.41-0.6-7.41-0.6"/>
			<path d="M56.6,38.16c0-0.48-0.34-0.87-0.68-1.17c-0.35-0.31-0.76-0.54-1.17-0.75c-0.84-0.4-1.73-0.68-2.64-0.92
				c-1.81-0.46-3.67-0.7-5.52-0.9c-3.71-0.52-7.46-0.01-10.92,1.31c-3.46,1.3-6.63,3.32-9.37,5.78c-2.75,2.43-5.13,5.35-6.66,8.68
				c-0.8,1.65-1.24,3.42-1.63,5.24c-0.39,1.81-0.61,3.64-0.66,5.48c-0.04,1.83,0.12,3.67,0.54,5.45c0.4,1.79,1.01,3.53,1.7,5.26
				c1.41,3.42,2.83,7.14,2.42,11.09c-0.13,0.98-0.41,1.97-0.95,2.84c-0.54,0.88-1.35,1.59-2.27,2.03c-1.88,0.89-3.99,0.78-5.88,0.11
				L13.55,87c0.84,1.42,1.85,2.79,2.99,3.98c1.15,1.18,2.48,2.24,3.99,2.67c0.72,0.21,1.55,0.2,2.38,0.17
				c0.83-0.04,1.67-0.12,2.51-0.23c1.68-0.21,3.36-0.48,5.05-0.74c3.37-0.54,6.75-1.08,10.16-1.44c3.41-0.36,6.87-0.55,10.32-0.19
				c6.74,0.6,13.58,0.23,20.31-0.64c3.36-0.45,6.72-1.04,9.94-2.01c1.61-0.49,3.09-1.17,4.35-2.23c1.25-1.03,2.31-2.39,2.94-3.82
				l0.57,0.67c-0.94,0.16-1.81,0.14-2.71-0.03c-0.89-0.17-1.76-0.52-2.5-1.06c-0.38-0.27-0.71-0.57-1.03-0.94
				c-0.3-0.37-0.54-0.8-0.7-1.23c-0.33-0.88-0.41-1.8-0.38-2.68c0.16-3.54,1.73-6.73,2.95-9.77c1.11-3.12,1.71-6.43,1.94-9.74
				c0.21-3.31,0.09-6.69-0.86-9.83c-0.46-1.57-1.29-2.95-2.32-4.25c-1.01-1.3-2.17-2.5-3.4-3.61c-2.49-2.19-5.23-4.12-8.23-5.53
				c-1.5-0.69-3.07-1.25-4.69-1.55c-1.61-0.32-3.28-0.25-4.96-0.16c-3.33,0.22-6.69,0.77-9.8,1.99l-0.01,0.01l0,0
				c-0.65,0.14-1.27,0.08-1.9,0.04c-0.62-0.04-1.24-0.12-1.86-0.19c-1.24-0.16-2.46-0.35-3.69-0.56c1.23,0.18,2.47,0.33,3.7,0.45
				c0.62,0.06,1.24,0.11,1.86,0.13c0.61,0.02,1.25,0.05,1.82-0.09l-0.01,0.01c3.13-1.35,6.49-2,9.86-2.33
				c1.67-0.14,3.4-0.28,5.12,0.01c1.7,0.26,3.35,0.79,4.93,1.46c3.15,1.35,6.03,3.27,8.56,5.57c1.27,1.14,2.46,2.38,3.52,3.74
				c0.53,0.68,1.02,1.39,1.46,2.15c0.43,0.77,0.76,1.59,1.02,2.42c1,3.33,1.11,6.8,0.9,10.19c-0.24,3.4-0.85,6.78-2,10.01
				c-0.6,1.64-1.36,3.1-1.87,4.68c-0.53,1.56-0.96,3.18-1.02,4.78c-0.07,1.6,0.35,3.17,1.69,4c1.23,0.91,2.93,1.17,4.42,0.93
				l0.93-0.15l-0.36,0.82c-0.75,1.69-1.86,3.08-3.23,4.23c-1.36,1.15-3.04,1.92-4.69,2.41c-3.32,1-6.71,1.59-10.11,2.05
				c-6.8,0.88-13.67,1.25-20.54,0.64c-3.35-0.35-6.74-0.16-10.12,0.19c-3.38,0.36-6.74,0.9-10.11,1.44
				c-1.69,0.27-3.37,0.54-5.08,0.75c-0.85,0.11-1.71,0.19-2.59,0.24c-0.87,0.03-1.78,0.06-2.7-0.2c-1.79-0.52-3.22-1.69-4.44-2.94
				c-1.22-1.27-2.25-2.66-3.15-4.18l-0.7-1.18l1.32,0.47c1.61,0.57,3.54,0.66,5.06-0.08c0.77-0.37,1.42-0.94,1.86-1.66
				c0.45-0.72,0.69-1.57,0.81-2.44c0.21-1.76-0.06-3.6-0.51-5.37c-0.45-1.79-1.15-3.48-1.85-5.23c-0.7-1.74-1.33-3.55-1.75-5.41
				c-0.43-1.86-0.6-3.79-0.56-5.69c0.04-1.91,0.28-3.81,0.68-5.66c0.4-1.84,0.86-3.72,1.7-5.45c3.29-6.94,9.56-12.2,16.71-14.68
				c3.57-1.25,7.48-1.64,11.19-1.01c1.86,0.25,3.72,0.55,5.53,1.07c0.9,0.26,1.79,0.57,2.63,1c0.41,0.23,0.82,0.47,1.16,0.8
				C56.29,37.27,56.62,37.68,56.6,38.16z"/>
		</g>
	</g>
	<g id="arms" class="st8">
		<path class="st2" d="M25.6,126.27c-4.41-2.07-7.2-1.35-7.2-1.35s4.32,5.85,2.79,4.14c-1.53-1.71-8.08-2.16-8.08-2.16
			s2.77,10.17,10.51,11.07s8.28-4.68,8.28-7.74"/>
		<g id="Icons">
			<g>
				<g>
					<path class="st10" d="M127.58,76.39c-0.97-1.63-2.31-3.6-4.37-3.83c-1.58-0.17-2.26-0.13-3.66,0.45
						c-0.72,0.3-2.55,1.66-3.04,1.01c-3.43-4.52-6.52-10.4-6.02-15.76c-0.08-0.94,0.3-1.44,1.2-1.79c1.33-0.51,1.77,0.24,2.69-0.93
						c0.92-1.17,2.29-4.27,2.38-5.71c0.12-1.83,0.49-4.33-0.53-5.95c-0.93-1.49-2.94-2.03-4.67-1.7c-2.99,0.56-5.42,2.66-6.81,5.3
						c-0.4,0.75-0.71,1.54-0.92,2.35c-0.52,1.95-0.6,4-0.53,6.02c0.05,1.52,0.18,3.05,0.38,4.56c0.75,5.41,2.56,10.69,5.49,15.32
						c1.2,1.89,2.68,3.57,4.2,5.21c1.85,1.98,3.11,3.65,5.84,4.52c2.92,0.93,6.41,0.71,8.85-1.26c0.72-0.59,1.33-1.34,1.59-2.23
						C130.17,80.1,128.48,77.91,127.58,76.39z"/>
				</g>
			</g>
		</g>
		<path class="st2" d="M112.88,69.83c-2.6,2.06-13.03,22.45-16.34,28.09c-2.84,4.84-4.61-8.16-4.61-8.16s13.91-15.35,12.44-21.18
			c-1.47-5.83,4.37-8.06,7.46-4.26C114.93,68.14,112.88,69.83,112.88,69.83z"/>
		<path class="st2" d="M109.69,59.16c0,0,4.54-2.76,6.97-1.45c2.43,1.3,3.6,9.75,2.62,12.64c-0.97,2.89-8.43,3.99-8.43,3.99
			s-1.22-6.94-4.27-10.28"/>
		<g>
			<path class="st3" d="M106.23,68.5c0.33-2.07,0.73-2.87,1.72-3.31c0.99-0.44,4.77,3.67,4.77,3.67s3.05-6.02-3.03-9.69
				c-2.89-1.74-7.8,2.79-9.07,3.95c-1.27,1.16-0.79,5.04,1,6.73c1.8,1.7,2.06,2.12,0.54,4.87c-1.52,2.75-11.86,13.83-11.86,13.83
				c-4.42,2.5-14.51,1.77-14.51,1.77c-0.35,5.4-7,10.62,3.85,10.68c4.69,0.03,15.54-0.9,16.38-2.46c0.97-1.8,1.46-3.32,1.74-3.9"/>
			<path d="M106.23,68.5c0.12-0.83,0.21-1.68,0.61-2.45c0.2-0.39,0.53-0.72,0.92-0.92c0.08-0.04,0.22-0.12,0.36-0.12
				c0.13-0.01,0.25,0.02,0.36,0.06c0.22,0.07,0.41,0.17,0.6,0.28c0.75,0.44,1.39,0.99,2.03,1.54c0.64,0.56,1.25,1.14,1.84,1.74
				l-0.53,0.07c0.8-1.93,0.87-4.23-0.05-6.04c-0.45-0.91-1.11-1.72-1.93-2.37c-0.4-0.3-0.88-0.65-1.27-0.84
				c-0.41-0.17-0.88-0.23-1.37-0.17c-0.98,0.11-1.96,0.56-2.87,1.1c-0.92,0.54-1.79,1.19-2.62,1.88c-0.42,0.35-0.82,0.7-1.23,1.07
				l-0.15,0.14c-0.03,0.04-0.07,0.06-0.09,0.1c-0.06,0.07-0.12,0.16-0.16,0.25c-0.1,0.19-0.17,0.41-0.21,0.65
				c-0.18,0.96-0.04,2.03,0.29,3c0.16,0.49,0.39,0.95,0.66,1.36c0.14,0.21,0.29,0.4,0.46,0.56l0.59,0.58
				c0.39,0.4,0.85,0.84,1.07,1.55c0.21,0.73-0.02,1.4-0.23,1.93c-0.23,0.55-0.49,1.04-0.77,1.53c-0.31,0.51-0.64,0.97-0.97,1.42
				c-0.68,0.88-1.38,1.75-2.1,2.59c-2.86,3.38-5.83,6.63-8.83,9.87l-0.05,0.06l-0.07,0.04c-1.16,0.64-2.39,0.99-3.62,1.26
				c-1.23,0.26-2.48,0.42-3.72,0.52c-2.49,0.2-4.96,0.2-7.46,0.05l0.54-0.47c-0.12,1.65-0.72,3.14-1.3,4.57
				c-0.29,0.71-0.58,1.41-0.8,2.11c-0.21,0.69-0.33,1.4-0.11,1.92c0.2,0.52,0.78,0.87,1.45,1.08c0.67,0.21,1.41,0.33,2.15,0.39
				c1.49,0.13,3.01,0.09,4.54,0.03c3.05-0.14,6.11-0.39,9.11-0.88c0.75-0.13,1.5-0.24,2.23-0.38c0.72-0.15,1.5-0.33,2.03-0.66
				c0.17-0.08,0.37-0.53,0.57-0.82c0.19-0.33,0.38-0.66,0.56-1c0.36-0.68,0.69-1.37,1.06-2.05c-0.25,0.73-0.44,1.48-0.71,2.2
				c-0.13,0.37-0.27,0.73-0.41,1.09l-0.23,0.54c-0.05,0.1-0.06,0.16-0.14,0.29c-0.08,0.13-0.17,0.22-0.26,0.3
				c-0.74,0.56-1.49,0.74-2.25,0.99c-0.76,0.22-1.52,0.4-2.28,0.52c-3.07,0.47-6.14,0.74-9.23,0.88c-1.54,0.06-3.1,0.1-4.67-0.03
				c-0.79-0.07-1.58-0.19-2.37-0.44c-0.76-0.24-1.68-0.7-2.07-1.65c-0.37-0.94-0.14-1.83,0.08-2.59c0.24-0.77,0.54-1.49,0.83-2.2
				c0.58-1.41,1.13-2.82,1.23-4.25l0.04-0.5l0.5,0.03c2.42,0.14,4.88,0.14,7.3-0.05c1.21-0.1,2.42-0.25,3.59-0.5
				c1.17-0.25,2.33-0.59,3.33-1.15l-0.12,0.09c2.99-3.23,5.96-6.49,8.8-9.84c0.71-0.84,1.4-1.69,2.06-2.55
				c0.32-0.43,0.64-0.87,0.9-1.3c0.26-0.47,0.52-0.95,0.71-1.42c0.19-0.47,0.31-0.93,0.2-1.28c-0.11-0.36-0.44-0.75-0.82-1.12
				l-0.59-0.58c-0.22-0.22-0.41-0.46-0.58-0.71c-0.34-0.5-0.59-1.04-0.78-1.6c-0.37-1.12-0.54-2.3-0.32-3.52
				c0.06-0.3,0.15-0.61,0.31-0.91c0.08-0.15,0.17-0.3,0.28-0.44c0.05-0.07,0.12-0.13,0.19-0.2l0.15-0.14
				c0.41-0.37,0.83-0.75,1.26-1.1c0.86-0.72,1.77-1.39,2.75-1.97c0.98-0.57,2.04-1.09,3.27-1.23c0.61-0.07,1.27-0.01,1.87,0.25
				c0.61,0.3,1.01,0.61,1.49,0.97c0.9,0.73,1.72,1.62,2.21,2.71c0.52,1.08,0.68,2.29,0.61,3.44c-0.08,1.16-0.37,2.27-0.89,3.33
				l-0.21,0.43l-0.32-0.36c-0.54-0.62-1.12-1.23-1.71-1.82c-0.59-0.58-1.2-1.16-1.88-1.61c-0.33-0.2-0.71-0.46-1.01-0.27
				c-0.37,0.16-0.67,0.43-0.89,0.77C106.56,66.84,106.4,67.69,106.23,68.5z"/>
		</g>
		<path class="st2" d="M24.07,131.37c0.72-2.58-19.13-21.45-17.19-26.97c0.87-2.48,18.09-11.25,18.09-11.25
			c0.72,1.35,2.7,9.54,2.7,9.54s-10.12,4.23-10.1,4.95c0.02,0.72,14.4,19.25,14.33,22.77c-0.01,0.39-0.15,2.57-0.57,3.67"/>
	</g>
	<g id="shoulders" class="st8">
		<path class="st11" d="M69.61,90.54c0,0,14.4-4.62,15.96-2.46c1.56,2.16,2.1,13.39,0.66,18.43c-1.44,5.04-13.92-2.17-15.42-7.21"/>
		<path class="st11" d="M40.51,89.04c0,0-14.28-0.47-16.17,2.41c-1.89,2.88-2.7,15.28,2.43,18.12s16.92-10.3,16.92-10.3"/>
	</g>
	<g id="Body" class="st8">
		<path class="st11" d="M40.45,87.87c8.47-3.06,27.8-2.85,31.9,0.63c4.1,3.48-0.74,27.24-5.61,32.82
			c-4.87,5.58-22.51,4.14-26.65-7.74S32.88,90.6,40.45,87.87z"/>
	</g>
	<g id="neck" class="st8">
		<path class="st2" d="M50.61,71.88c0,0,1.23,5.76,0.6,8.91c-0.63,3.15-1.62,6.39-1.62,6.39l7.24,3.63l4.62-3.96
			c0,0-2.95-2.55-3.31-8.13c-0.36-5.58,0.45-7.56,0.45-7.56L50.61,71.88z"/>
	</g>
	<g id="face" class="st8">
		<g>
			<path class="st3" d="M57.09,41.78c0,0,2,4-4,7s-17-1-22,4s-3.94,16.96,9.26,20.72c11.83,3.37,25.14,2.22,31.74-2.72
				c3.41-2.55,7-12,1-18s-16.43-6.93-16.43-6.93C57.21,44.7,57.63,43.59,57.09,41.78z"/>
			<path d="M57.09,41.78c0.58,1.23,0.47,2.76-0.21,3.97c-0.67,1.23-1.79,2.14-2.96,2.86c-1.16,0.76-2.53,1.22-3.88,1.48
				c-1.36,0.26-2.74,0.37-4.1,0.43c-2.73,0.08-5.44-0.12-8.09,0.15c-2.62,0.23-5.3,0.97-6.9,3.01c-1.63,1.98-2.31,4.68-2.07,7.26
				c0.22,2.59,1.34,5.09,3.08,7.03c1.73,1.97,4.03,3.4,6.49,4.36c2.47,0.94,5.13,1.51,7.77,1.95c5.3,0.83,10.75,0.9,16.01-0.09
				c2.62-0.51,5.2-1.29,7.53-2.53c0.58-0.32,1.15-0.65,1.68-1.03c0.56-0.37,0.98-0.77,1.4-1.27c0.82-0.99,1.46-2.15,1.95-3.37
				c0.96-2.43,1.31-5.15,0.76-7.69c-0.27-1.27-0.78-2.48-1.49-3.55c-0.72-1.07-1.65-2-2.68-2.82c-4.18-3.22-9.41-5.15-14.72-5.94
				l-0.2-0.03l0.09-0.17c0.32-0.62,0.6-1.25,0.7-1.94C57.35,43.17,57.27,42.46,57.09,41.78z M57.09,41.78
				c0.22,0.66,0.35,1.37,0.29,2.08c-0.06,0.71-0.31,1.4-0.59,2.04l-0.11-0.2c2.72,0.23,5.4,0.79,8.01,1.64
				c2.6,0.85,5.16,2.01,7.31,3.8c1.08,0.86,2.1,1.87,2.89,3.05c0.78,1.18,1.35,2.51,1.64,3.9c0.59,2.78,0.21,5.67-0.81,8.27
				c-0.52,1.3-1.2,2.54-2.11,3.64c-0.45,0.54-1.01,1.07-1.59,1.45c-0.57,0.41-1.17,0.76-1.78,1.1c-2.46,1.31-5.13,2.11-7.82,2.64
				c-5.4,1.01-10.95,0.94-16.36,0.09c-2.7-0.46-5.37-1.02-7.97-2.01c-2.58-1-5.01-2.52-6.87-4.63c-1.87-2.09-3.09-4.79-3.33-7.61
				c-0.25-2.8,0.47-5.76,2.3-7.98c0.9-1.12,2.15-1.97,3.48-2.48c1.33-0.51,2.72-0.76,4.1-0.89c2.76-0.24,5.48-0.13,8.17-0.14
				c2.66,0.01,5.42-0.04,7.74-1.38c1.16-0.63,2.27-1.43,2.97-2.56C57.36,44.52,57.58,43.06,57.09,41.78z"/>
		</g>
		<g>
			<path d="M50.61,60.9c0.39-0.69,0.92-1.29,1.53-1.81c0.62-0.51,1.32-0.98,2.28-1.08c1.01-0.03,1.76,0.49,2.37,1
				c0.6,0.54,1.1,1.17,1.44,1.89c-0.65-0.45-1.27-0.89-1.9-1.26c-0.62-0.35-1.29-0.69-1.85-0.63c-0.58,0.03-1.26,0.38-1.9,0.72
				L50.61,60.9z"/>
		</g>
		<g>
			<path d="M44.79,64.26c0.04-0.12,0.2-0.12,0.3-0.1c0.11,0.02,0.22,0.05,0.32,0.08c0.21,0.07,0.41,0.15,0.61,0.24l1.2,0.49
				c0.79,0.32,1.59,0.6,2.4,0.84c1.62,0.46,3.28,0.73,4.95,0.74c1.66,0.01,3.36-0.15,4.98-0.55c0.81-0.21,1.6-0.48,2.35-0.86
				c0.38-0.19,0.74-0.4,1.09-0.64l0.53-0.37c0.1-0.06,0.19-0.12,0.32-0.14c0.15-0.02,0.22,0.12,0.25,0.21
				c-0.12-0.25-0.34-0.11-0.47,0.05l-0.46,0.46c-0.31,0.31-0.64,0.6-1,0.86c-0.73,0.51-1.54,0.9-2.38,1.19
				c-1.69,0.57-3.45,0.79-5.23,0.77c-1.77-0.04-3.54-0.38-5.18-1.01c-0.82-0.31-1.61-0.7-2.36-1.14l-1.11-0.68l-0.55-0.33
				C45.18,64.29,44.96,64.1,44.79,64.26z"/>
		</g>
		<g>
			<path d="M56.53,54.7c0.82-1.07,2.18-1.64,3.52-1.82c1.34-0.15,2.69-0.01,4.01,0.3c0.66,0.16,1.32,0.36,1.96,0.64
				c0.3,0.12,0.67,0.34,0.9,0.47c0.19,0.11,0.39,0.21,0.61,0.3c0.42,0.19,0.91,0.29,1.45,0.33c0.55,0.02,1.15-0.03,1.83-0.12
				l0.11,0.17c-0.75,1.16-2.34,1.9-3.94,1.54c-0.39-0.09-0.77-0.23-1.13-0.45l-0.74-0.48c-0.48-0.3-1-0.58-1.55-0.79
				c-1.09-0.44-2.27-0.67-3.46-0.73c-1.15-0.07-2.41,0.06-3.42,0.76L56.53,54.7z"/>
		</g>
		<g>
			<path d="M49.52,55.75c-1.12-0.74-2.5-0.85-3.75-0.73c-1.29,0.11-2.58,0.4-3.75,0.92c-0.59,0.25-1.15,0.57-1.67,0.92l-0.79,0.55
				c-0.37,0.24-0.77,0.42-1.18,0.53c-1.69,0.45-3.43-0.25-4.32-1.44l0.1-0.17c0.73,0.09,1.39,0.14,1.98,0.11
				c0.6-0.05,1.13-0.17,1.6-0.4c0.24-0.11,0.46-0.23,0.67-0.36c0.24-0.16,0.63-0.4,0.95-0.55c0.68-0.33,1.38-0.57,2.08-0.78
				c1.41-0.4,2.87-0.61,4.32-0.51c1.46,0.13,2.95,0.68,3.9,1.79L49.52,55.75z"/>
		</g>
		<path class="st0" d="M28.07,64.65c2.52-0.12,4.1,6.19,0.5,6.12C24.87,70.7,25.55,64.77,28.07,64.65z"/>
		<path class="st0" d="M76.43,65.21c2.18-0.5,4.54,4.61,1.38,5.12C74.57,70.85,74.25,65.71,76.43,65.21z"/>
	</g>
</g>
</svg>
