<?xml version="1.0" encoding="utf-8"?>
<!-- Generator: Adobe Illustrator 23.0.1, SVG Export Plug-In . SVG Version: 6.00 Build 0)  -->
<svg version="1.1" xmlns="http://www.w3.org/2000/svg" xmlns:xlink="http://www.w3.org/1999/xlink" x="0px" y="0px"
	 viewBox="0 0 104 104" style="enable-background:new 0 0 104 104;" xml:space="preserve">
<style type="text/css">
	.st0{display:none;}
	.st1{display:inline;fill:#F2F2F2;}
	.st2{display:inline;fill-rule:evenodd;clip-rule:evenodd;fill:#ED82A6;}
	.st3{display:inline;fill:#ED82A6;}
	.st4{fill:#F2F2F2;}
	.st5{fill:#ED82A6;}
</style>
<g id="WhatsApp" class="st0">
	<rect x="-0.31" y="-3.09" class="st1" width="104.09" height="104.09"/>
	<path class="st2" d="M51.94,18.62c-16.92,0-30.69,13.77-30.69,30.69c0,5.95,1.69,11.67,4.9,16.63l-4.66,10.27
		c-0.43,0.95-0.27,2.06,0.4,2.85c0.52,0.61,1.27,0.94,2.04,0.94c0.24,0,0.47-0.03,0.71-0.1l12.84-3.52
		C41.92,78.75,46.89,80,51.94,80c16.92,0,30.69-13.77,30.69-30.69C82.63,32.39,68.86,18.62,51.94,18.62z M51.94,74.64
		c-4.48,0-8.89-1.19-12.75-3.45c-0.41-0.24-0.88-0.37-1.35-0.37c-0.24,0-0.48,0.03-0.71,0.1l-8.39,2.3l2.92-6.44
		c0.4-0.88,0.3-1.9-0.27-2.68c-3.13-4.33-4.78-9.45-4.78-14.8c0-13.97,11.36-25.33,25.33-25.33c13.97,0,25.33,11.36,25.33,25.33
		C77.27,63.28,65.9,74.64,51.94,74.64z"/>
	<path class="st2" d="M63.74,53.91c-1.29-0.77-2.96-1.63-4.47-1.01c-1.16,0.48-1.9,2.29-2.66,3.22c-0.39,0.48-0.85,0.55-1.44,0.31
		c-4.36-1.74-7.7-4.65-10.11-8.66c-0.41-0.62-0.33-1.11,0.16-1.69c0.73-0.86,1.64-1.83,1.84-2.98c0.2-1.15-0.34-2.5-0.82-3.53
		c-0.61-1.31-1.29-3.18-2.6-3.93c-1.21-0.68-2.8-0.3-3.88,0.58c-1.86,1.51-2.75,3.88-2.73,6.23c0.01,0.67,0.09,1.33,0.25,1.98
		c0.38,1.55,1.09,3,1.9,4.37c0.61,1.04,1.27,2.04,1.98,3.01c2.33,3.17,5.23,5.92,8.59,7.98c1.68,1.03,3.49,1.93,5.36,2.55
		c2.1,0.69,3.97,1.42,6.24,0.99c2.37-0.45,4.71-1.92,5.66-4.21c0.28-0.68,0.42-1.43,0.26-2.15C66.94,55.5,64.93,54.62,63.74,53.91z"
		/>
</g>
<g id="Facebook" class="st0">
	<rect x="-0.31" y="-0.09" class="st1" width="104.09" height="104.09"/>
	<path class="st3" d="M43.06,84.48h13.01c0,0,0-17.96,0-32.53h9.66l1.19-13.01H56.57v-5.2c0-2.53,1.69-3.13,2.88-3.13
		c1.19,0,7.3,0,7.3,0V19.47L56.7,19.43c-11.16,0-13.69,8.31-13.69,13.64v5.88h-6.45v13.01h6.51C43.06,66.7,43.06,84.48,43.06,84.48z
		"/>
</g>
<g id="Snapchat" class="st0">
	<rect x="-0.31" y="-0.09" class="st1" width="104.09" height="104.09"/>
	<path class="st3" d="M17.51,69.57c0-0.36,0-0.72,0-1.08c0.44-0.51,0.91-0.95,1.63-1.1c5.69-1.13,9.5-4.76,12.37-9.52
		c2.41-4,2.03-4.92-2.42-6.5c-0.25-0.09-0.52-0.16-0.77-0.27c-0.96-0.4-1.91-0.82-2.71-1.51c-1.99-1.73-0.81-4.23,1.54-4.79
		c1.72-0.41,3.21,0.69,4.88,0.9c1.11,0.14,1.56-0.24,1.42-1.42c-0.35-3.06-0.34-6.13-0.2-9.2c0.27-5.85,3.15-10.31,8.02-13.19
		c7.12-4.22,14.55-4.27,21.72-0.07c4.47,2.62,7.36,6.6,7.99,11.92c0.41,3.47,0.25,6.94-0.03,10.41c-0.12,1.51,0.19,1.78,1.68,1.43
		c1.85-0.43,3.4-1.39,5.32-0.54c1.03,0.45,1.93,1.42,1.9,2.55c-0.02,0.77-0.47,1.48-1.05,1.98c-0.89,0.77-2.05,1.2-3.12,1.64
		c-0.84,0.34-1.7,0.6-2.52,0.98c-1.68,0.79-2.16,1.83-1.38,3.49c2.72,5.75,6.72,10.12,13.19,11.64c0.79,0.19,1.42,0.51,1.9,1.15
		c0,0.36,0,0.72,0,1.08c-0.61,1.26-1.71,1.96-2.96,2.43c-1.26,0.48-2.54,1.02-3.89,1.1c-1.88,0.12-2.86,0.94-3.15,2.89
		c-0.27,1.86-0.83,2.12-2.73,1.97c-0.45-0.04-0.89-0.12-1.34-0.2c-3.71-0.66-7.19-0.28-10.24,2.18c-0.6,0.48-1.26,0.88-1.9,1.3
		c-5.2,3.37-10.52,3.76-15.95,0.59c-1.48-0.86-2.88-1.86-4.32-2.8c-1.19-0.78-2.47-1.21-3.89-1.43c-2.25-0.34-4.41,0.16-6.59,0.41
		c-1.13,0.12-2.21-0.2-2.28-1.36c-0.15-2.81-1.87-3.49-4.23-3.75c-1.1-0.12-2.18-0.57-3.22-1C19.08,71.43,18.05,70.76,17.51,69.57z"
		/>
</g>
<g id="Twitter">
	<rect x="-0.31" y="-0.09" class="st4" width="104.09" height="104.09"/>
	<path class="st5" d="M87.33,28.86c-2.31,1.04-4.84,1.68-7.33,2.09c1.18-0.2,2.92-2.34,3.62-3.2c1.06-1.32,1.95-2.82,2.44-4.45
		c0.06-0.13,0.11-0.29-0.02-0.38c-0.16-0.06-0.26-0.03-0.39,0.03c-2.78,1.49-5.65,2.57-8.71,3.33c-0.25,0.06-0.44,0-0.6-0.16
		c-0.25-0.29-0.49-0.56-0.76-0.78c-1.29-1.09-2.66-1.95-4.22-2.59c-2.04-0.83-4.27-1.18-6.47-1.04c-2.14,0.14-4.24,0.74-6.14,1.73
		c-1.9,0.99-3.6,2.38-4.95,4.05c-1.4,1.73-2.43,3.76-2.96,5.92c-0.51,2.09-0.47,4.15-0.16,6.26c0.05,0.35,0.02,0.4-0.3,0.35
		c-11.96-1.78-21.88-6.06-29.93-15.24c-0.35-0.4-0.54-0.4-0.83,0.03c-3.52,5.28-1.81,13.76,2.59,17.93
		c0.59,0.56,1.19,1.11,1.84,1.62c-0.24,0.05-3.17-0.27-5.78-1.62c-0.35-0.22-0.52-0.09-0.56,0.3c-0.03,0.57,0.02,1.1,0.09,1.71
		c0.68,5.35,4.38,10.3,9.46,12.24c0.6,0.25,1.27,0.48,1.92,0.59c-1.16,0.25-2.35,0.44-5.67,0.18c-0.41-0.08-0.57,0.13-0.41,0.52
		c2.49,6.79,7.87,8.82,11.9,9.97c0.54,0.09,1.08,0.09,1.62,0.22c-0.03,0.05-0.06,0.05-0.1,0.1c-1.34,2.04-5.97,3.55-8.13,4.31
		c-3.92,1.37-8.2,1.99-12.35,1.58c-0.66-0.1-0.8-0.09-0.98,0c-0.18,0.11-0.02,0.27,0.19,0.44c0.84,0.56,1.7,1.05,2.57,1.52
		c2.63,1.4,5.38,2.51,8.25,3.3c14.83,4.1,31.54,1.09,42.67-9.98c8.74-8.69,11.81-20.67,11.81-32.67c0-0.47,0.55-0.73,0.88-0.98
		c2.28-1.71,4.08-3.76,5.78-6.04c0.38-0.51,0.36-0.97,0.36-1.16c0-0.03,0-0.06,0-0.06C87.6,28.66,87.62,28.72,87.33,28.86z"/>
</g>
</svg>
